G04 #@! TF.GenerationSoftware,KiCad,Pcbnew,(5.1.8)-1*
G04 #@! TF.CreationDate,2020-12-10T13:26:07-05:00*
G04 #@! TF.ProjectId,dl3000-adapters,646c3330-3030-42d6-9164-617074657273,rev?*
G04 #@! TF.SameCoordinates,Original*
G04 #@! TF.FileFunction,Legend,Bot*
G04 #@! TF.FilePolarity,Positive*
%FSLAX46Y46*%
G04 Gerber Fmt 4.6, Leading zero omitted, Abs format (unit mm)*
G04 Created by KiCad (PCBNEW (5.1.8)-1) date 2020-12-10 13:26:07*
%MOMM*%
%LPD*%
G01*
G04 APERTURE LIST*
%ADD10C,0.150000*%
%ADD11C,0.010000*%
G04 APERTURE END LIST*
D10*
X150428571Y-46452380D02*
X151000000Y-46452380D01*
X150714285Y-46452380D02*
X150714285Y-45452380D01*
X150809523Y-45595238D01*
X150904761Y-45690476D01*
X151000000Y-45738095D01*
X150000000Y-46357142D02*
X149952380Y-46404761D01*
X150000000Y-46452380D01*
X150047619Y-46404761D01*
X150000000Y-46357142D01*
X150000000Y-46452380D01*
X149333333Y-45452380D02*
X149238095Y-45452380D01*
X149142857Y-45500000D01*
X149095238Y-45547619D01*
X149047619Y-45642857D01*
X149000000Y-45833333D01*
X149000000Y-46071428D01*
X149047619Y-46261904D01*
X149095238Y-46357142D01*
X149142857Y-46404761D01*
X149238095Y-46452380D01*
X149333333Y-46452380D01*
X149428571Y-46404761D01*
X149476190Y-46357142D01*
X149523809Y-46261904D01*
X149571428Y-46071428D01*
X149571428Y-45833333D01*
X149523809Y-45642857D01*
X149476190Y-45547619D01*
X149428571Y-45500000D01*
X149333333Y-45452380D01*
X158928571Y-100452380D02*
X159500000Y-100452380D01*
X159214285Y-100452380D02*
X159214285Y-99452380D01*
X159309523Y-99595238D01*
X159404761Y-99690476D01*
X159500000Y-99738095D01*
X158500000Y-100357142D02*
X158452380Y-100404761D01*
X158500000Y-100452380D01*
X158547619Y-100404761D01*
X158500000Y-100357142D01*
X158500000Y-100452380D01*
X157833333Y-99452380D02*
X157738095Y-99452380D01*
X157642857Y-99500000D01*
X157595238Y-99547619D01*
X157547619Y-99642857D01*
X157500000Y-99833333D01*
X157500000Y-100071428D01*
X157547619Y-100261904D01*
X157595238Y-100357142D01*
X157642857Y-100404761D01*
X157738095Y-100452380D01*
X157833333Y-100452380D01*
X157928571Y-100404761D01*
X157976190Y-100357142D01*
X158023809Y-100261904D01*
X158071428Y-100071428D01*
X158071428Y-99833333D01*
X158023809Y-99642857D01*
X157976190Y-99547619D01*
X157928571Y-99500000D01*
X157833333Y-99452380D01*
X163500000Y-56785714D02*
X163500000Y-57595238D01*
X163547619Y-57690476D01*
X163595238Y-57738095D01*
X163690476Y-57785714D01*
X163833333Y-57785714D01*
X163928571Y-57738095D01*
X163500000Y-57404761D02*
X163595238Y-57452380D01*
X163785714Y-57452380D01*
X163880952Y-57404761D01*
X163928571Y-57357142D01*
X163976190Y-57261904D01*
X163976190Y-56976190D01*
X163928571Y-56880952D01*
X163880952Y-56833333D01*
X163785714Y-56785714D01*
X163595238Y-56785714D01*
X163500000Y-56833333D01*
X163023809Y-57452380D02*
X163023809Y-56785714D01*
X163023809Y-56452380D02*
X163071428Y-56500000D01*
X163023809Y-56547619D01*
X162976190Y-56500000D01*
X163023809Y-56452380D01*
X163023809Y-56547619D01*
X162690476Y-56785714D02*
X162309523Y-56785714D01*
X162547619Y-56452380D02*
X162547619Y-57309523D01*
X162500000Y-57404761D01*
X162404761Y-57452380D01*
X162309523Y-57452380D01*
X161976190Y-57452380D02*
X161976190Y-56452380D01*
X161547619Y-57452380D02*
X161547619Y-56928571D01*
X161595238Y-56833333D01*
X161690476Y-56785714D01*
X161833333Y-56785714D01*
X161928571Y-56833333D01*
X161976190Y-56880952D01*
X160642857Y-56785714D02*
X160642857Y-57452380D01*
X161071428Y-56785714D02*
X161071428Y-57309523D01*
X161023809Y-57404761D01*
X160928571Y-57452380D01*
X160785714Y-57452380D01*
X160690476Y-57404761D01*
X160642857Y-57357142D01*
X160166666Y-57452380D02*
X160166666Y-56452380D01*
X160166666Y-56833333D02*
X160071428Y-56785714D01*
X159880952Y-56785714D01*
X159785714Y-56833333D01*
X159738095Y-56880952D01*
X159690476Y-56976190D01*
X159690476Y-57261904D01*
X159738095Y-57357142D01*
X159785714Y-57404761D01*
X159880952Y-57452380D01*
X160071428Y-57452380D01*
X160166666Y-57404761D01*
X159261904Y-57357142D02*
X159214285Y-57404761D01*
X159261904Y-57452380D01*
X159309523Y-57404761D01*
X159261904Y-57357142D01*
X159261904Y-57452380D01*
X158357142Y-57404761D02*
X158452380Y-57452380D01*
X158642857Y-57452380D01*
X158738095Y-57404761D01*
X158785714Y-57357142D01*
X158833333Y-57261904D01*
X158833333Y-56976190D01*
X158785714Y-56880952D01*
X158738095Y-56833333D01*
X158642857Y-56785714D01*
X158452380Y-56785714D01*
X158357142Y-56833333D01*
X157785714Y-57452380D02*
X157880952Y-57404761D01*
X157928571Y-57357142D01*
X157976190Y-57261904D01*
X157976190Y-56976190D01*
X157928571Y-56880952D01*
X157880952Y-56833333D01*
X157785714Y-56785714D01*
X157642857Y-56785714D01*
X157547619Y-56833333D01*
X157500000Y-56880952D01*
X157452380Y-56976190D01*
X157452380Y-57261904D01*
X157500000Y-57357142D01*
X157547619Y-57404761D01*
X157642857Y-57452380D01*
X157785714Y-57452380D01*
X157023809Y-57452380D02*
X157023809Y-56785714D01*
X157023809Y-56880952D02*
X156976190Y-56833333D01*
X156880952Y-56785714D01*
X156738095Y-56785714D01*
X156642857Y-56833333D01*
X156595238Y-56928571D01*
X156595238Y-57452380D01*
X156595238Y-56928571D02*
X156547619Y-56833333D01*
X156452380Y-56785714D01*
X156309523Y-56785714D01*
X156214285Y-56833333D01*
X156166666Y-56928571D01*
X156166666Y-57452380D01*
X154976190Y-56404761D02*
X155833333Y-57690476D01*
X154690476Y-57404761D02*
X154595238Y-57452380D01*
X154404761Y-57452380D01*
X154309523Y-57404761D01*
X154261904Y-57309523D01*
X154261904Y-57261904D01*
X154309523Y-57166666D01*
X154404761Y-57119047D01*
X154547619Y-57119047D01*
X154642857Y-57071428D01*
X154690476Y-56976190D01*
X154690476Y-56928571D01*
X154642857Y-56833333D01*
X154547619Y-56785714D01*
X154404761Y-56785714D01*
X154309523Y-56833333D01*
X153833333Y-57452380D02*
X153833333Y-56785714D01*
X153833333Y-56452380D02*
X153880952Y-56500000D01*
X153833333Y-56547619D01*
X153785714Y-56500000D01*
X153833333Y-56452380D01*
X153833333Y-56547619D01*
X153357142Y-57452380D02*
X153357142Y-56785714D01*
X153357142Y-56976190D02*
X153309523Y-56880952D01*
X153261904Y-56833333D01*
X153166666Y-56785714D01*
X153071428Y-56785714D01*
X152738095Y-57452380D02*
X152738095Y-56452380D01*
X152309523Y-57452380D02*
X152309523Y-56928571D01*
X152357142Y-56833333D01*
X152452380Y-56785714D01*
X152595238Y-56785714D01*
X152690476Y-56833333D01*
X152738095Y-56880952D01*
X151404761Y-57404761D02*
X151500000Y-57452380D01*
X151690476Y-57452380D01*
X151785714Y-57404761D01*
X151833333Y-57357142D01*
X151880952Y-57261904D01*
X151880952Y-56976190D01*
X151833333Y-56880952D01*
X151785714Y-56833333D01*
X151690476Y-56785714D01*
X151500000Y-56785714D01*
X151404761Y-56833333D01*
X150595238Y-57404761D02*
X150690476Y-57452380D01*
X150880952Y-57452380D01*
X150976190Y-57404761D01*
X151023809Y-57309523D01*
X151023809Y-56928571D01*
X150976190Y-56833333D01*
X150880952Y-56785714D01*
X150690476Y-56785714D01*
X150595238Y-56833333D01*
X150547619Y-56928571D01*
X150547619Y-57023809D01*
X151023809Y-57119047D01*
X149976190Y-57452380D02*
X150071428Y-57404761D01*
X150119047Y-57309523D01*
X150119047Y-56452380D01*
X148880952Y-56404761D02*
X149738095Y-57690476D01*
X148119047Y-57452380D02*
X148119047Y-56452380D01*
X148119047Y-57404761D02*
X148214285Y-57452380D01*
X148404761Y-57452380D01*
X148500000Y-57404761D01*
X148547619Y-57357142D01*
X148595238Y-57261904D01*
X148595238Y-56976190D01*
X148547619Y-56880952D01*
X148500000Y-56833333D01*
X148404761Y-56785714D01*
X148214285Y-56785714D01*
X148119047Y-56833333D01*
X147500000Y-57452380D02*
X147595238Y-57404761D01*
X147642857Y-57309523D01*
X147642857Y-56452380D01*
X147214285Y-56452380D02*
X146595238Y-56452380D01*
X146928571Y-56833333D01*
X146785714Y-56833333D01*
X146690476Y-56880952D01*
X146642857Y-56928571D01*
X146595238Y-57023809D01*
X146595238Y-57261904D01*
X146642857Y-57357142D01*
X146690476Y-57404761D01*
X146785714Y-57452380D01*
X147071428Y-57452380D01*
X147166666Y-57404761D01*
X147214285Y-57357142D01*
X145976190Y-56452380D02*
X145880952Y-56452380D01*
X145785714Y-56500000D01*
X145738095Y-56547619D01*
X145690476Y-56642857D01*
X145642857Y-56833333D01*
X145642857Y-57071428D01*
X145690476Y-57261904D01*
X145738095Y-57357142D01*
X145785714Y-57404761D01*
X145880952Y-57452380D01*
X145976190Y-57452380D01*
X146071428Y-57404761D01*
X146119047Y-57357142D01*
X146166666Y-57261904D01*
X146214285Y-57071428D01*
X146214285Y-56833333D01*
X146166666Y-56642857D01*
X146119047Y-56547619D01*
X146071428Y-56500000D01*
X145976190Y-56452380D01*
X145023809Y-56452380D02*
X144928571Y-56452380D01*
X144833333Y-56500000D01*
X144785714Y-56547619D01*
X144738095Y-56642857D01*
X144690476Y-56833333D01*
X144690476Y-57071428D01*
X144738095Y-57261904D01*
X144785714Y-57357142D01*
X144833333Y-57404761D01*
X144928571Y-57452380D01*
X145023809Y-57452380D01*
X145119047Y-57404761D01*
X145166666Y-57357142D01*
X145214285Y-57261904D01*
X145261904Y-57071428D01*
X145261904Y-56833333D01*
X145214285Y-56642857D01*
X145166666Y-56547619D01*
X145119047Y-56500000D01*
X145023809Y-56452380D01*
X144071428Y-56452380D02*
X143976190Y-56452380D01*
X143880952Y-56500000D01*
X143833333Y-56547619D01*
X143785714Y-56642857D01*
X143738095Y-56833333D01*
X143738095Y-57071428D01*
X143785714Y-57261904D01*
X143833333Y-57357142D01*
X143880952Y-57404761D01*
X143976190Y-57452380D01*
X144071428Y-57452380D01*
X144166666Y-57404761D01*
X144214285Y-57357142D01*
X144261904Y-57261904D01*
X144309523Y-57071428D01*
X144309523Y-56833333D01*
X144261904Y-56642857D01*
X144214285Y-56547619D01*
X144166666Y-56500000D01*
X144071428Y-56452380D01*
X143309523Y-57071428D02*
X142547619Y-57071428D01*
X141642857Y-57452380D02*
X141642857Y-56928571D01*
X141690476Y-56833333D01*
X141785714Y-56785714D01*
X141976190Y-56785714D01*
X142071428Y-56833333D01*
X141642857Y-57404761D02*
X141738095Y-57452380D01*
X141976190Y-57452380D01*
X142071428Y-57404761D01*
X142119047Y-57309523D01*
X142119047Y-57214285D01*
X142071428Y-57119047D01*
X141976190Y-57071428D01*
X141738095Y-57071428D01*
X141642857Y-57023809D01*
X140738095Y-57452380D02*
X140738095Y-56452380D01*
X140738095Y-57404761D02*
X140833333Y-57452380D01*
X141023809Y-57452380D01*
X141119047Y-57404761D01*
X141166666Y-57357142D01*
X141214285Y-57261904D01*
X141214285Y-56976190D01*
X141166666Y-56880952D01*
X141119047Y-56833333D01*
X141023809Y-56785714D01*
X140833333Y-56785714D01*
X140738095Y-56833333D01*
X139833333Y-57452380D02*
X139833333Y-56928571D01*
X139880952Y-56833333D01*
X139976190Y-56785714D01*
X140166666Y-56785714D01*
X140261904Y-56833333D01*
X139833333Y-57404761D02*
X139928571Y-57452380D01*
X140166666Y-57452380D01*
X140261904Y-57404761D01*
X140309523Y-57309523D01*
X140309523Y-57214285D01*
X140261904Y-57119047D01*
X140166666Y-57071428D01*
X139928571Y-57071428D01*
X139833333Y-57023809D01*
X139357142Y-56785714D02*
X139357142Y-57785714D01*
X139357142Y-56833333D02*
X139261904Y-56785714D01*
X139071428Y-56785714D01*
X138976190Y-56833333D01*
X138928571Y-56880952D01*
X138880952Y-56976190D01*
X138880952Y-57261904D01*
X138928571Y-57357142D01*
X138976190Y-57404761D01*
X139071428Y-57452380D01*
X139261904Y-57452380D01*
X139357142Y-57404761D01*
X138595238Y-56785714D02*
X138214285Y-56785714D01*
X138452380Y-56452380D02*
X138452380Y-57309523D01*
X138404761Y-57404761D01*
X138309523Y-57452380D01*
X138214285Y-57452380D01*
X137500000Y-57404761D02*
X137595238Y-57452380D01*
X137785714Y-57452380D01*
X137880952Y-57404761D01*
X137928571Y-57309523D01*
X137928571Y-56928571D01*
X137880952Y-56833333D01*
X137785714Y-56785714D01*
X137595238Y-56785714D01*
X137500000Y-56833333D01*
X137452380Y-56928571D01*
X137452380Y-57023809D01*
X137928571Y-57119047D01*
X137023809Y-57452380D02*
X137023809Y-56785714D01*
X137023809Y-56976190D02*
X136976190Y-56880952D01*
X136928571Y-56833333D01*
X136833333Y-56785714D01*
X136738095Y-56785714D01*
X136452380Y-57404761D02*
X136357142Y-57452380D01*
X136166666Y-57452380D01*
X136071428Y-57404761D01*
X136023809Y-57309523D01*
X136023809Y-57261904D01*
X136071428Y-57166666D01*
X136166666Y-57119047D01*
X136309523Y-57119047D01*
X136404761Y-57071428D01*
X136452380Y-56976190D01*
X136452380Y-56928571D01*
X136404761Y-56833333D01*
X136309523Y-56785714D01*
X136166666Y-56785714D01*
X136071428Y-56833333D01*
X163500000Y-106785714D02*
X163500000Y-107595238D01*
X163547619Y-107690476D01*
X163595238Y-107738095D01*
X163690476Y-107785714D01*
X163833333Y-107785714D01*
X163928571Y-107738095D01*
X163500000Y-107404761D02*
X163595238Y-107452380D01*
X163785714Y-107452380D01*
X163880952Y-107404761D01*
X163928571Y-107357142D01*
X163976190Y-107261904D01*
X163976190Y-106976190D01*
X163928571Y-106880952D01*
X163880952Y-106833333D01*
X163785714Y-106785714D01*
X163595238Y-106785714D01*
X163500000Y-106833333D01*
X163023809Y-107452380D02*
X163023809Y-106785714D01*
X163023809Y-106452380D02*
X163071428Y-106500000D01*
X163023809Y-106547619D01*
X162976190Y-106500000D01*
X163023809Y-106452380D01*
X163023809Y-106547619D01*
X162690476Y-106785714D02*
X162309523Y-106785714D01*
X162547619Y-106452380D02*
X162547619Y-107309523D01*
X162500000Y-107404761D01*
X162404761Y-107452380D01*
X162309523Y-107452380D01*
X161976190Y-107452380D02*
X161976190Y-106452380D01*
X161547619Y-107452380D02*
X161547619Y-106928571D01*
X161595238Y-106833333D01*
X161690476Y-106785714D01*
X161833333Y-106785714D01*
X161928571Y-106833333D01*
X161976190Y-106880952D01*
X160642857Y-106785714D02*
X160642857Y-107452380D01*
X161071428Y-106785714D02*
X161071428Y-107309523D01*
X161023809Y-107404761D01*
X160928571Y-107452380D01*
X160785714Y-107452380D01*
X160690476Y-107404761D01*
X160642857Y-107357142D01*
X160166666Y-107452380D02*
X160166666Y-106452380D01*
X160166666Y-106833333D02*
X160071428Y-106785714D01*
X159880952Y-106785714D01*
X159785714Y-106833333D01*
X159738095Y-106880952D01*
X159690476Y-106976190D01*
X159690476Y-107261904D01*
X159738095Y-107357142D01*
X159785714Y-107404761D01*
X159880952Y-107452380D01*
X160071428Y-107452380D01*
X160166666Y-107404761D01*
X159261904Y-107357142D02*
X159214285Y-107404761D01*
X159261904Y-107452380D01*
X159309523Y-107404761D01*
X159261904Y-107357142D01*
X159261904Y-107452380D01*
X158357142Y-107404761D02*
X158452380Y-107452380D01*
X158642857Y-107452380D01*
X158738095Y-107404761D01*
X158785714Y-107357142D01*
X158833333Y-107261904D01*
X158833333Y-106976190D01*
X158785714Y-106880952D01*
X158738095Y-106833333D01*
X158642857Y-106785714D01*
X158452380Y-106785714D01*
X158357142Y-106833333D01*
X157785714Y-107452380D02*
X157880952Y-107404761D01*
X157928571Y-107357142D01*
X157976190Y-107261904D01*
X157976190Y-106976190D01*
X157928571Y-106880952D01*
X157880952Y-106833333D01*
X157785714Y-106785714D01*
X157642857Y-106785714D01*
X157547619Y-106833333D01*
X157500000Y-106880952D01*
X157452380Y-106976190D01*
X157452380Y-107261904D01*
X157500000Y-107357142D01*
X157547619Y-107404761D01*
X157642857Y-107452380D01*
X157785714Y-107452380D01*
X157023809Y-107452380D02*
X157023809Y-106785714D01*
X157023809Y-106880952D02*
X156976190Y-106833333D01*
X156880952Y-106785714D01*
X156738095Y-106785714D01*
X156642857Y-106833333D01*
X156595238Y-106928571D01*
X156595238Y-107452380D01*
X156595238Y-106928571D02*
X156547619Y-106833333D01*
X156452380Y-106785714D01*
X156309523Y-106785714D01*
X156214285Y-106833333D01*
X156166666Y-106928571D01*
X156166666Y-107452380D01*
X154976190Y-106404761D02*
X155833333Y-107690476D01*
X154690476Y-107404761D02*
X154595238Y-107452380D01*
X154404761Y-107452380D01*
X154309523Y-107404761D01*
X154261904Y-107309523D01*
X154261904Y-107261904D01*
X154309523Y-107166666D01*
X154404761Y-107119047D01*
X154547619Y-107119047D01*
X154642857Y-107071428D01*
X154690476Y-106976190D01*
X154690476Y-106928571D01*
X154642857Y-106833333D01*
X154547619Y-106785714D01*
X154404761Y-106785714D01*
X154309523Y-106833333D01*
X153833333Y-107452380D02*
X153833333Y-106785714D01*
X153833333Y-106452380D02*
X153880952Y-106500000D01*
X153833333Y-106547619D01*
X153785714Y-106500000D01*
X153833333Y-106452380D01*
X153833333Y-106547619D01*
X153357142Y-107452380D02*
X153357142Y-106785714D01*
X153357142Y-106976190D02*
X153309523Y-106880952D01*
X153261904Y-106833333D01*
X153166666Y-106785714D01*
X153071428Y-106785714D01*
X152738095Y-107452380D02*
X152738095Y-106452380D01*
X152309523Y-107452380D02*
X152309523Y-106928571D01*
X152357142Y-106833333D01*
X152452380Y-106785714D01*
X152595238Y-106785714D01*
X152690476Y-106833333D01*
X152738095Y-106880952D01*
X151404761Y-107404761D02*
X151500000Y-107452380D01*
X151690476Y-107452380D01*
X151785714Y-107404761D01*
X151833333Y-107357142D01*
X151880952Y-107261904D01*
X151880952Y-106976190D01*
X151833333Y-106880952D01*
X151785714Y-106833333D01*
X151690476Y-106785714D01*
X151500000Y-106785714D01*
X151404761Y-106833333D01*
X150595238Y-107404761D02*
X150690476Y-107452380D01*
X150880952Y-107452380D01*
X150976190Y-107404761D01*
X151023809Y-107309523D01*
X151023809Y-106928571D01*
X150976190Y-106833333D01*
X150880952Y-106785714D01*
X150690476Y-106785714D01*
X150595238Y-106833333D01*
X150547619Y-106928571D01*
X150547619Y-107023809D01*
X151023809Y-107119047D01*
X149976190Y-107452380D02*
X150071428Y-107404761D01*
X150119047Y-107309523D01*
X150119047Y-106452380D01*
X148880952Y-106404761D02*
X149738095Y-107690476D01*
X148119047Y-107452380D02*
X148119047Y-106452380D01*
X148119047Y-107404761D02*
X148214285Y-107452380D01*
X148404761Y-107452380D01*
X148500000Y-107404761D01*
X148547619Y-107357142D01*
X148595238Y-107261904D01*
X148595238Y-106976190D01*
X148547619Y-106880952D01*
X148500000Y-106833333D01*
X148404761Y-106785714D01*
X148214285Y-106785714D01*
X148119047Y-106833333D01*
X147500000Y-107452380D02*
X147595238Y-107404761D01*
X147642857Y-107309523D01*
X147642857Y-106452380D01*
X147214285Y-106452380D02*
X146595238Y-106452380D01*
X146928571Y-106833333D01*
X146785714Y-106833333D01*
X146690476Y-106880952D01*
X146642857Y-106928571D01*
X146595238Y-107023809D01*
X146595238Y-107261904D01*
X146642857Y-107357142D01*
X146690476Y-107404761D01*
X146785714Y-107452380D01*
X147071428Y-107452380D01*
X147166666Y-107404761D01*
X147214285Y-107357142D01*
X145976190Y-106452380D02*
X145880952Y-106452380D01*
X145785714Y-106500000D01*
X145738095Y-106547619D01*
X145690476Y-106642857D01*
X145642857Y-106833333D01*
X145642857Y-107071428D01*
X145690476Y-107261904D01*
X145738095Y-107357142D01*
X145785714Y-107404761D01*
X145880952Y-107452380D01*
X145976190Y-107452380D01*
X146071428Y-107404761D01*
X146119047Y-107357142D01*
X146166666Y-107261904D01*
X146214285Y-107071428D01*
X146214285Y-106833333D01*
X146166666Y-106642857D01*
X146119047Y-106547619D01*
X146071428Y-106500000D01*
X145976190Y-106452380D01*
X145023809Y-106452380D02*
X144928571Y-106452380D01*
X144833333Y-106500000D01*
X144785714Y-106547619D01*
X144738095Y-106642857D01*
X144690476Y-106833333D01*
X144690476Y-107071428D01*
X144738095Y-107261904D01*
X144785714Y-107357142D01*
X144833333Y-107404761D01*
X144928571Y-107452380D01*
X145023809Y-107452380D01*
X145119047Y-107404761D01*
X145166666Y-107357142D01*
X145214285Y-107261904D01*
X145261904Y-107071428D01*
X145261904Y-106833333D01*
X145214285Y-106642857D01*
X145166666Y-106547619D01*
X145119047Y-106500000D01*
X145023809Y-106452380D01*
X144071428Y-106452380D02*
X143976190Y-106452380D01*
X143880952Y-106500000D01*
X143833333Y-106547619D01*
X143785714Y-106642857D01*
X143738095Y-106833333D01*
X143738095Y-107071428D01*
X143785714Y-107261904D01*
X143833333Y-107357142D01*
X143880952Y-107404761D01*
X143976190Y-107452380D01*
X144071428Y-107452380D01*
X144166666Y-107404761D01*
X144214285Y-107357142D01*
X144261904Y-107261904D01*
X144309523Y-107071428D01*
X144309523Y-106833333D01*
X144261904Y-106642857D01*
X144214285Y-106547619D01*
X144166666Y-106500000D01*
X144071428Y-106452380D01*
X143309523Y-107071428D02*
X142547619Y-107071428D01*
X141642857Y-107452380D02*
X141642857Y-106928571D01*
X141690476Y-106833333D01*
X141785714Y-106785714D01*
X141976190Y-106785714D01*
X142071428Y-106833333D01*
X141642857Y-107404761D02*
X141738095Y-107452380D01*
X141976190Y-107452380D01*
X142071428Y-107404761D01*
X142119047Y-107309523D01*
X142119047Y-107214285D01*
X142071428Y-107119047D01*
X141976190Y-107071428D01*
X141738095Y-107071428D01*
X141642857Y-107023809D01*
X140738095Y-107452380D02*
X140738095Y-106452380D01*
X140738095Y-107404761D02*
X140833333Y-107452380D01*
X141023809Y-107452380D01*
X141119047Y-107404761D01*
X141166666Y-107357142D01*
X141214285Y-107261904D01*
X141214285Y-106976190D01*
X141166666Y-106880952D01*
X141119047Y-106833333D01*
X141023809Y-106785714D01*
X140833333Y-106785714D01*
X140738095Y-106833333D01*
X139833333Y-107452380D02*
X139833333Y-106928571D01*
X139880952Y-106833333D01*
X139976190Y-106785714D01*
X140166666Y-106785714D01*
X140261904Y-106833333D01*
X139833333Y-107404761D02*
X139928571Y-107452380D01*
X140166666Y-107452380D01*
X140261904Y-107404761D01*
X140309523Y-107309523D01*
X140309523Y-107214285D01*
X140261904Y-107119047D01*
X140166666Y-107071428D01*
X139928571Y-107071428D01*
X139833333Y-107023809D01*
X139357142Y-106785714D02*
X139357142Y-107785714D01*
X139357142Y-106833333D02*
X139261904Y-106785714D01*
X139071428Y-106785714D01*
X138976190Y-106833333D01*
X138928571Y-106880952D01*
X138880952Y-106976190D01*
X138880952Y-107261904D01*
X138928571Y-107357142D01*
X138976190Y-107404761D01*
X139071428Y-107452380D01*
X139261904Y-107452380D01*
X139357142Y-107404761D01*
X138595238Y-106785714D02*
X138214285Y-106785714D01*
X138452380Y-106452380D02*
X138452380Y-107309523D01*
X138404761Y-107404761D01*
X138309523Y-107452380D01*
X138214285Y-107452380D01*
X137500000Y-107404761D02*
X137595238Y-107452380D01*
X137785714Y-107452380D01*
X137880952Y-107404761D01*
X137928571Y-107309523D01*
X137928571Y-106928571D01*
X137880952Y-106833333D01*
X137785714Y-106785714D01*
X137595238Y-106785714D01*
X137500000Y-106833333D01*
X137452380Y-106928571D01*
X137452380Y-107023809D01*
X137928571Y-107119047D01*
X137023809Y-107452380D02*
X137023809Y-106785714D01*
X137023809Y-106976190D02*
X136976190Y-106880952D01*
X136928571Y-106833333D01*
X136833333Y-106785714D01*
X136738095Y-106785714D01*
X136452380Y-107404761D02*
X136357142Y-107452380D01*
X136166666Y-107452380D01*
X136071428Y-107404761D01*
X136023809Y-107309523D01*
X136023809Y-107261904D01*
X136071428Y-107166666D01*
X136166666Y-107119047D01*
X136309523Y-107119047D01*
X136404761Y-107071428D01*
X136452380Y-106976190D01*
X136452380Y-106928571D01*
X136404761Y-106833333D01*
X136309523Y-106785714D01*
X136166666Y-106785714D01*
X136071428Y-106833333D01*
X160952380Y-43452380D02*
X160952380Y-42452380D01*
X160714285Y-42452380D01*
X160571428Y-42500000D01*
X160476190Y-42595238D01*
X160428571Y-42690476D01*
X160380952Y-42880952D01*
X160380952Y-43023809D01*
X160428571Y-43214285D01*
X160476190Y-43309523D01*
X160571428Y-43404761D01*
X160714285Y-43452380D01*
X160952380Y-43452380D01*
X159476190Y-43452380D02*
X159952380Y-43452380D01*
X159952380Y-42452380D01*
X159238095Y-42452380D02*
X158619047Y-42452380D01*
X158952380Y-42833333D01*
X158809523Y-42833333D01*
X158714285Y-42880952D01*
X158666666Y-42928571D01*
X158619047Y-43023809D01*
X158619047Y-43261904D01*
X158666666Y-43357142D01*
X158714285Y-43404761D01*
X158809523Y-43452380D01*
X159095238Y-43452380D01*
X159190476Y-43404761D01*
X159238095Y-43357142D01*
X158000000Y-42452380D02*
X157904761Y-42452380D01*
X157809523Y-42500000D01*
X157761904Y-42547619D01*
X157714285Y-42642857D01*
X157666666Y-42833333D01*
X157666666Y-43071428D01*
X157714285Y-43261904D01*
X157761904Y-43357142D01*
X157809523Y-43404761D01*
X157904761Y-43452380D01*
X158000000Y-43452380D01*
X158095238Y-43404761D01*
X158142857Y-43357142D01*
X158190476Y-43261904D01*
X158238095Y-43071428D01*
X158238095Y-42833333D01*
X158190476Y-42642857D01*
X158142857Y-42547619D01*
X158095238Y-42500000D01*
X158000000Y-42452380D01*
X157047619Y-42452380D02*
X156952380Y-42452380D01*
X156857142Y-42500000D01*
X156809523Y-42547619D01*
X156761904Y-42642857D01*
X156714285Y-42833333D01*
X156714285Y-43071428D01*
X156761904Y-43261904D01*
X156809523Y-43357142D01*
X156857142Y-43404761D01*
X156952380Y-43452380D01*
X157047619Y-43452380D01*
X157142857Y-43404761D01*
X157190476Y-43357142D01*
X157238095Y-43261904D01*
X157285714Y-43071428D01*
X157285714Y-42833333D01*
X157238095Y-42642857D01*
X157190476Y-42547619D01*
X157142857Y-42500000D01*
X157047619Y-42452380D01*
X156095238Y-42452380D02*
X156000000Y-42452380D01*
X155904761Y-42500000D01*
X155857142Y-42547619D01*
X155809523Y-42642857D01*
X155761904Y-42833333D01*
X155761904Y-43071428D01*
X155809523Y-43261904D01*
X155857142Y-43357142D01*
X155904761Y-43404761D01*
X156000000Y-43452380D01*
X156095238Y-43452380D01*
X156190476Y-43404761D01*
X156238095Y-43357142D01*
X156285714Y-43261904D01*
X156333333Y-43071428D01*
X156333333Y-42833333D01*
X156285714Y-42642857D01*
X156238095Y-42547619D01*
X156190476Y-42500000D01*
X156095238Y-42452380D01*
X154238095Y-42928571D02*
X154095238Y-42976190D01*
X154047619Y-43023809D01*
X154000000Y-43119047D01*
X154000000Y-43261904D01*
X154047619Y-43357142D01*
X154095238Y-43404761D01*
X154190476Y-43452380D01*
X154571428Y-43452380D01*
X154571428Y-42452380D01*
X154238095Y-42452380D01*
X154142857Y-42500000D01*
X154095238Y-42547619D01*
X154047619Y-42642857D01*
X154047619Y-42738095D01*
X154095238Y-42833333D01*
X154142857Y-42880952D01*
X154238095Y-42928571D01*
X154571428Y-42928571D01*
X153142857Y-43452380D02*
X153142857Y-42928571D01*
X153190476Y-42833333D01*
X153285714Y-42785714D01*
X153476190Y-42785714D01*
X153571428Y-42833333D01*
X153142857Y-43404761D02*
X153238095Y-43452380D01*
X153476190Y-43452380D01*
X153571428Y-43404761D01*
X153619047Y-43309523D01*
X153619047Y-43214285D01*
X153571428Y-43119047D01*
X153476190Y-43071428D01*
X153238095Y-43071428D01*
X153142857Y-43023809D01*
X152666666Y-42785714D02*
X152666666Y-43452380D01*
X152666666Y-42880952D02*
X152619047Y-42833333D01*
X152523809Y-42785714D01*
X152380952Y-42785714D01*
X152285714Y-42833333D01*
X152238095Y-42928571D01*
X152238095Y-43452380D01*
X151333333Y-43452380D02*
X151333333Y-42928571D01*
X151380952Y-42833333D01*
X151476190Y-42785714D01*
X151666666Y-42785714D01*
X151761904Y-42833333D01*
X151333333Y-43404761D02*
X151428571Y-43452380D01*
X151666666Y-43452380D01*
X151761904Y-43404761D01*
X151809523Y-43309523D01*
X151809523Y-43214285D01*
X151761904Y-43119047D01*
X151666666Y-43071428D01*
X151428571Y-43071428D01*
X151333333Y-43023809D01*
X150857142Y-42785714D02*
X150857142Y-43452380D01*
X150857142Y-42880952D02*
X150809523Y-42833333D01*
X150714285Y-42785714D01*
X150571428Y-42785714D01*
X150476190Y-42833333D01*
X150428571Y-42928571D01*
X150428571Y-43452380D01*
X149523809Y-43452380D02*
X149523809Y-42928571D01*
X149571428Y-42833333D01*
X149666666Y-42785714D01*
X149857142Y-42785714D01*
X149952380Y-42833333D01*
X149523809Y-43404761D02*
X149619047Y-43452380D01*
X149857142Y-43452380D01*
X149952380Y-43404761D01*
X150000000Y-43309523D01*
X150000000Y-43214285D01*
X149952380Y-43119047D01*
X149857142Y-43071428D01*
X149619047Y-43071428D01*
X149523809Y-43023809D01*
X148000000Y-42452380D02*
X148000000Y-43166666D01*
X148047619Y-43309523D01*
X148142857Y-43404761D01*
X148285714Y-43452380D01*
X148380952Y-43452380D01*
X147095238Y-43452380D02*
X147095238Y-42928571D01*
X147142857Y-42833333D01*
X147238095Y-42785714D01*
X147428571Y-42785714D01*
X147523809Y-42833333D01*
X147095238Y-43404761D02*
X147190476Y-43452380D01*
X147428571Y-43452380D01*
X147523809Y-43404761D01*
X147571428Y-43309523D01*
X147571428Y-43214285D01*
X147523809Y-43119047D01*
X147428571Y-43071428D01*
X147190476Y-43071428D01*
X147095238Y-43023809D01*
X146190476Y-43404761D02*
X146285714Y-43452380D01*
X146476190Y-43452380D01*
X146571428Y-43404761D01*
X146619047Y-43357142D01*
X146666666Y-43261904D01*
X146666666Y-42976190D01*
X146619047Y-42880952D01*
X146571428Y-42833333D01*
X146476190Y-42785714D01*
X146285714Y-42785714D01*
X146190476Y-42833333D01*
X145761904Y-43452380D02*
X145761904Y-42452380D01*
X145666666Y-43071428D02*
X145380952Y-43452380D01*
X145380952Y-42785714D02*
X145761904Y-43166666D01*
X144238095Y-43166666D02*
X143761904Y-43166666D01*
X144333333Y-43452380D02*
X144000000Y-42452380D01*
X143666666Y-43452380D01*
X142904761Y-43452380D02*
X142904761Y-42452380D01*
X142904761Y-43404761D02*
X143000000Y-43452380D01*
X143190476Y-43452380D01*
X143285714Y-43404761D01*
X143333333Y-43357142D01*
X143380952Y-43261904D01*
X143380952Y-42976190D01*
X143333333Y-42880952D01*
X143285714Y-42833333D01*
X143190476Y-42785714D01*
X143000000Y-42785714D01*
X142904761Y-42833333D01*
X142000000Y-43452380D02*
X142000000Y-42928571D01*
X142047619Y-42833333D01*
X142142857Y-42785714D01*
X142333333Y-42785714D01*
X142428571Y-42833333D01*
X142000000Y-43404761D02*
X142095238Y-43452380D01*
X142333333Y-43452380D01*
X142428571Y-43404761D01*
X142476190Y-43309523D01*
X142476190Y-43214285D01*
X142428571Y-43119047D01*
X142333333Y-43071428D01*
X142095238Y-43071428D01*
X142000000Y-43023809D01*
X141523809Y-42785714D02*
X141523809Y-43785714D01*
X141523809Y-42833333D02*
X141428571Y-42785714D01*
X141238095Y-42785714D01*
X141142857Y-42833333D01*
X141095238Y-42880952D01*
X141047619Y-42976190D01*
X141047619Y-43261904D01*
X141095238Y-43357142D01*
X141142857Y-43404761D01*
X141238095Y-43452380D01*
X141428571Y-43452380D01*
X141523809Y-43404761D01*
X140761904Y-42785714D02*
X140380952Y-42785714D01*
X140619047Y-42452380D02*
X140619047Y-43309523D01*
X140571428Y-43404761D01*
X140476190Y-43452380D01*
X140380952Y-43452380D01*
X139666666Y-43404761D02*
X139761904Y-43452380D01*
X139952380Y-43452380D01*
X140047619Y-43404761D01*
X140095238Y-43309523D01*
X140095238Y-42928571D01*
X140047619Y-42833333D01*
X139952380Y-42785714D01*
X139761904Y-42785714D01*
X139666666Y-42833333D01*
X139619047Y-42928571D01*
X139619047Y-43023809D01*
X140095238Y-43119047D01*
X139190476Y-43452380D02*
X139190476Y-42785714D01*
X139190476Y-42976190D02*
X139142857Y-42880952D01*
X139095238Y-42833333D01*
X139000000Y-42785714D01*
X138904761Y-42785714D01*
X157666666Y-93452380D02*
X157666666Y-92452380D01*
X157428571Y-92452380D01*
X157285714Y-92500000D01*
X157190476Y-92595238D01*
X157142857Y-92690476D01*
X157095238Y-92880952D01*
X157095238Y-93023809D01*
X157142857Y-93214285D01*
X157190476Y-93309523D01*
X157285714Y-93404761D01*
X157428571Y-93452380D01*
X157666666Y-93452380D01*
X156190476Y-93452380D02*
X156666666Y-93452380D01*
X156666666Y-92452380D01*
X155952380Y-92452380D02*
X155333333Y-92452380D01*
X155666666Y-92833333D01*
X155523809Y-92833333D01*
X155428571Y-92880952D01*
X155380952Y-92928571D01*
X155333333Y-93023809D01*
X155333333Y-93261904D01*
X155380952Y-93357142D01*
X155428571Y-93404761D01*
X155523809Y-93452380D01*
X155809523Y-93452380D01*
X155904761Y-93404761D01*
X155952380Y-93357142D01*
X154714285Y-92452380D02*
X154619047Y-92452380D01*
X154523809Y-92500000D01*
X154476190Y-92547619D01*
X154428571Y-92642857D01*
X154380952Y-92833333D01*
X154380952Y-93071428D01*
X154428571Y-93261904D01*
X154476190Y-93357142D01*
X154523809Y-93404761D01*
X154619047Y-93452380D01*
X154714285Y-93452380D01*
X154809523Y-93404761D01*
X154857142Y-93357142D01*
X154904761Y-93261904D01*
X154952380Y-93071428D01*
X154952380Y-92833333D01*
X154904761Y-92642857D01*
X154857142Y-92547619D01*
X154809523Y-92500000D01*
X154714285Y-92452380D01*
X153761904Y-92452380D02*
X153666666Y-92452380D01*
X153571428Y-92500000D01*
X153523809Y-92547619D01*
X153476190Y-92642857D01*
X153428571Y-92833333D01*
X153428571Y-93071428D01*
X153476190Y-93261904D01*
X153523809Y-93357142D01*
X153571428Y-93404761D01*
X153666666Y-93452380D01*
X153761904Y-93452380D01*
X153857142Y-93404761D01*
X153904761Y-93357142D01*
X153952380Y-93261904D01*
X154000000Y-93071428D01*
X154000000Y-92833333D01*
X153952380Y-92642857D01*
X153904761Y-92547619D01*
X153857142Y-92500000D01*
X153761904Y-92452380D01*
X152809523Y-92452380D02*
X152714285Y-92452380D01*
X152619047Y-92500000D01*
X152571428Y-92547619D01*
X152523809Y-92642857D01*
X152476190Y-92833333D01*
X152476190Y-93071428D01*
X152523809Y-93261904D01*
X152571428Y-93357142D01*
X152619047Y-93404761D01*
X152714285Y-93452380D01*
X152809523Y-93452380D01*
X152904761Y-93404761D01*
X152952380Y-93357142D01*
X153000000Y-93261904D01*
X153047619Y-93071428D01*
X153047619Y-92833333D01*
X153000000Y-92642857D01*
X152952380Y-92547619D01*
X152904761Y-92500000D01*
X152809523Y-92452380D01*
X150952380Y-92928571D02*
X150809523Y-92976190D01*
X150761904Y-93023809D01*
X150714285Y-93119047D01*
X150714285Y-93261904D01*
X150761904Y-93357142D01*
X150809523Y-93404761D01*
X150904761Y-93452380D01*
X151285714Y-93452380D01*
X151285714Y-92452380D01*
X150952380Y-92452380D01*
X150857142Y-92500000D01*
X150809523Y-92547619D01*
X150761904Y-92642857D01*
X150761904Y-92738095D01*
X150809523Y-92833333D01*
X150857142Y-92880952D01*
X150952380Y-92928571D01*
X151285714Y-92928571D01*
X150285714Y-93452380D02*
X150285714Y-92452380D01*
X149714285Y-93452380D01*
X149714285Y-92452380D01*
X148666666Y-93357142D02*
X148714285Y-93404761D01*
X148857142Y-93452380D01*
X148952380Y-93452380D01*
X149095238Y-93404761D01*
X149190476Y-93309523D01*
X149238095Y-93214285D01*
X149285714Y-93023809D01*
X149285714Y-92880952D01*
X149238095Y-92690476D01*
X149190476Y-92595238D01*
X149095238Y-92500000D01*
X148952380Y-92452380D01*
X148857142Y-92452380D01*
X148714285Y-92500000D01*
X148666666Y-92547619D01*
X147523809Y-93166666D02*
X147047619Y-93166666D01*
X147619047Y-93452380D02*
X147285714Y-92452380D01*
X146952380Y-93452380D01*
X146190476Y-93452380D02*
X146190476Y-92452380D01*
X146190476Y-93404761D02*
X146285714Y-93452380D01*
X146476190Y-93452380D01*
X146571428Y-93404761D01*
X146619047Y-93357142D01*
X146666666Y-93261904D01*
X146666666Y-92976190D01*
X146619047Y-92880952D01*
X146571428Y-92833333D01*
X146476190Y-92785714D01*
X146285714Y-92785714D01*
X146190476Y-92833333D01*
X145285714Y-93452380D02*
X145285714Y-92928571D01*
X145333333Y-92833333D01*
X145428571Y-92785714D01*
X145619047Y-92785714D01*
X145714285Y-92833333D01*
X145285714Y-93404761D02*
X145380952Y-93452380D01*
X145619047Y-93452380D01*
X145714285Y-93404761D01*
X145761904Y-93309523D01*
X145761904Y-93214285D01*
X145714285Y-93119047D01*
X145619047Y-93071428D01*
X145380952Y-93071428D01*
X145285714Y-93023809D01*
X144809523Y-92785714D02*
X144809523Y-93785714D01*
X144809523Y-92833333D02*
X144714285Y-92785714D01*
X144523809Y-92785714D01*
X144428571Y-92833333D01*
X144380952Y-92880952D01*
X144333333Y-92976190D01*
X144333333Y-93261904D01*
X144380952Y-93357142D01*
X144428571Y-93404761D01*
X144523809Y-93452380D01*
X144714285Y-93452380D01*
X144809523Y-93404761D01*
X144047619Y-92785714D02*
X143666666Y-92785714D01*
X143904761Y-92452380D02*
X143904761Y-93309523D01*
X143857142Y-93404761D01*
X143761904Y-93452380D01*
X143666666Y-93452380D01*
X142952380Y-93404761D02*
X143047619Y-93452380D01*
X143238095Y-93452380D01*
X143333333Y-93404761D01*
X143380952Y-93309523D01*
X143380952Y-92928571D01*
X143333333Y-92833333D01*
X143238095Y-92785714D01*
X143047619Y-92785714D01*
X142952380Y-92833333D01*
X142904761Y-92928571D01*
X142904761Y-93023809D01*
X143380952Y-93119047D01*
X142476190Y-93452380D02*
X142476190Y-92785714D01*
X142476190Y-92976190D02*
X142428571Y-92880952D01*
X142380952Y-92833333D01*
X142285714Y-92785714D01*
X142190476Y-92785714D01*
D11*
G36*
X151908759Y-52969184D02*
G01*
X151882247Y-52982282D01*
X151849553Y-53005106D01*
X151825725Y-53029996D01*
X151809406Y-53061249D01*
X151799240Y-53103166D01*
X151793872Y-53160044D01*
X151791944Y-53236184D01*
X151791831Y-53268917D01*
X151792161Y-53340656D01*
X151793527Y-53391927D01*
X151796500Y-53427404D01*
X151801649Y-53451763D01*
X151809543Y-53469680D01*
X151817757Y-53481902D01*
X151870187Y-53533905D01*
X151931930Y-53565184D01*
X151998536Y-53574592D01*
X152065558Y-53560980D01*
X152086792Y-53551354D01*
X152137624Y-53524859D01*
X152137624Y-53940052D01*
X152100525Y-53920868D01*
X152051643Y-53906025D01*
X151991561Y-53902222D01*
X151931564Y-53909243D01*
X151886256Y-53925013D01*
X151848675Y-53955047D01*
X151816564Y-53998024D01*
X151814150Y-54002436D01*
X151803967Y-54023221D01*
X151796530Y-54044170D01*
X151791411Y-54069548D01*
X151788181Y-54103618D01*
X151786413Y-54150641D01*
X151785677Y-54214882D01*
X151785544Y-54287176D01*
X151785544Y-54517822D01*
X151923861Y-54517822D01*
X151923861Y-54092533D01*
X151962549Y-54059979D01*
X152002738Y-54033940D01*
X152040797Y-54029205D01*
X152079066Y-54041389D01*
X152099462Y-54053320D01*
X152114642Y-54070313D01*
X152125438Y-54095995D01*
X152132683Y-54133991D01*
X152137208Y-54187926D01*
X152139844Y-54261425D01*
X152140772Y-54310347D01*
X152143911Y-54511535D01*
X152209926Y-54515336D01*
X152275940Y-54519136D01*
X152275940Y-53270650D01*
X152137624Y-53270650D01*
X152134097Y-53340254D01*
X152122215Y-53388569D01*
X152100020Y-53418631D01*
X152065559Y-53433471D01*
X152030742Y-53436436D01*
X151991329Y-53433028D01*
X151965171Y-53419617D01*
X151948814Y-53401896D01*
X151935937Y-53382835D01*
X151928272Y-53361601D01*
X151924861Y-53331849D01*
X151924749Y-53287236D01*
X151925897Y-53249880D01*
X151928532Y-53193604D01*
X151932456Y-53156658D01*
X151939063Y-53133223D01*
X151949749Y-53117480D01*
X151959833Y-53108380D01*
X152001970Y-53088537D01*
X152051840Y-53085332D01*
X152080476Y-53092168D01*
X152108828Y-53116464D01*
X152127609Y-53163728D01*
X152136712Y-53233624D01*
X152137624Y-53270650D01*
X152275940Y-53270650D01*
X152275940Y-52958614D01*
X152206782Y-52958614D01*
X152165260Y-52960256D01*
X152143838Y-52966087D01*
X152137626Y-52977461D01*
X152137624Y-52977798D01*
X152134742Y-52988938D01*
X152122030Y-52987673D01*
X152096757Y-52975433D01*
X152037869Y-52956707D01*
X151971615Y-52954739D01*
X151908759Y-52969184D01*
G37*
X151908759Y-52969184D02*
X151882247Y-52982282D01*
X151849553Y-53005106D01*
X151825725Y-53029996D01*
X151809406Y-53061249D01*
X151799240Y-53103166D01*
X151793872Y-53160044D01*
X151791944Y-53236184D01*
X151791831Y-53268917D01*
X151792161Y-53340656D01*
X151793527Y-53391927D01*
X151796500Y-53427404D01*
X151801649Y-53451763D01*
X151809543Y-53469680D01*
X151817757Y-53481902D01*
X151870187Y-53533905D01*
X151931930Y-53565184D01*
X151998536Y-53574592D01*
X152065558Y-53560980D01*
X152086792Y-53551354D01*
X152137624Y-53524859D01*
X152137624Y-53940052D01*
X152100525Y-53920868D01*
X152051643Y-53906025D01*
X151991561Y-53902222D01*
X151931564Y-53909243D01*
X151886256Y-53925013D01*
X151848675Y-53955047D01*
X151816564Y-53998024D01*
X151814150Y-54002436D01*
X151803967Y-54023221D01*
X151796530Y-54044170D01*
X151791411Y-54069548D01*
X151788181Y-54103618D01*
X151786413Y-54150641D01*
X151785677Y-54214882D01*
X151785544Y-54287176D01*
X151785544Y-54517822D01*
X151923861Y-54517822D01*
X151923861Y-54092533D01*
X151962549Y-54059979D01*
X152002738Y-54033940D01*
X152040797Y-54029205D01*
X152079066Y-54041389D01*
X152099462Y-54053320D01*
X152114642Y-54070313D01*
X152125438Y-54095995D01*
X152132683Y-54133991D01*
X152137208Y-54187926D01*
X152139844Y-54261425D01*
X152140772Y-54310347D01*
X152143911Y-54511535D01*
X152209926Y-54515336D01*
X152275940Y-54519136D01*
X152275940Y-53270650D01*
X152137624Y-53270650D01*
X152134097Y-53340254D01*
X152122215Y-53388569D01*
X152100020Y-53418631D01*
X152065559Y-53433471D01*
X152030742Y-53436436D01*
X151991329Y-53433028D01*
X151965171Y-53419617D01*
X151948814Y-53401896D01*
X151935937Y-53382835D01*
X151928272Y-53361601D01*
X151924861Y-53331849D01*
X151924749Y-53287236D01*
X151925897Y-53249880D01*
X151928532Y-53193604D01*
X151932456Y-53156658D01*
X151939063Y-53133223D01*
X151949749Y-53117480D01*
X151959833Y-53108380D01*
X152001970Y-53088537D01*
X152051840Y-53085332D01*
X152080476Y-53092168D01*
X152108828Y-53116464D01*
X152127609Y-53163728D01*
X152136712Y-53233624D01*
X152137624Y-53270650D01*
X152275940Y-53270650D01*
X152275940Y-52958614D01*
X152206782Y-52958614D01*
X152165260Y-52960256D01*
X152143838Y-52966087D01*
X152137626Y-52977461D01*
X152137624Y-52977798D01*
X152134742Y-52988938D01*
X152122030Y-52987673D01*
X152096757Y-52975433D01*
X152037869Y-52956707D01*
X151971615Y-52954739D01*
X151908759Y-52969184D01*
G36*
X151384210Y-53906555D02*
G01*
X151325055Y-53922339D01*
X151280023Y-53950948D01*
X151248246Y-53988419D01*
X151238366Y-54004411D01*
X151231073Y-54021163D01*
X151225974Y-54042592D01*
X151222679Y-54072616D01*
X151220797Y-54115154D01*
X151219937Y-54174122D01*
X151219707Y-54253440D01*
X151219703Y-54274484D01*
X151219703Y-54517822D01*
X151280059Y-54517822D01*
X151318557Y-54515126D01*
X151347023Y-54508295D01*
X151354155Y-54504083D01*
X151373652Y-54496813D01*
X151393566Y-54504083D01*
X151426353Y-54513160D01*
X151473978Y-54516813D01*
X151526764Y-54515228D01*
X151575036Y-54508589D01*
X151603218Y-54500072D01*
X151657753Y-54465063D01*
X151691835Y-54416479D01*
X151707157Y-54351882D01*
X151707299Y-54350223D01*
X151705955Y-54321566D01*
X151584356Y-54321566D01*
X151573726Y-54354161D01*
X151556410Y-54372505D01*
X151521652Y-54386379D01*
X151475773Y-54391917D01*
X151428988Y-54389191D01*
X151391514Y-54378274D01*
X151381015Y-54371269D01*
X151362668Y-54338904D01*
X151358020Y-54302111D01*
X151358020Y-54253763D01*
X151427582Y-54253763D01*
X151493667Y-54258850D01*
X151543764Y-54273263D01*
X151574929Y-54295729D01*
X151584356Y-54321566D01*
X151705955Y-54321566D01*
X151703987Y-54279647D01*
X151680710Y-54223845D01*
X151636948Y-54181647D01*
X151630899Y-54177808D01*
X151604907Y-54165309D01*
X151572735Y-54157740D01*
X151527760Y-54154061D01*
X151474331Y-54153216D01*
X151358020Y-54153169D01*
X151358020Y-54104411D01*
X151362953Y-54066581D01*
X151375543Y-54041236D01*
X151377017Y-54039887D01*
X151405034Y-54028800D01*
X151447326Y-54024503D01*
X151494064Y-54026615D01*
X151535418Y-54034756D01*
X151559957Y-54046965D01*
X151573253Y-54056746D01*
X151587294Y-54058613D01*
X151606671Y-54050600D01*
X151635976Y-54030739D01*
X151679803Y-53997063D01*
X151683825Y-53993909D01*
X151681764Y-53982236D01*
X151664568Y-53962822D01*
X151638433Y-53941248D01*
X151609552Y-53923096D01*
X151600478Y-53918809D01*
X151567380Y-53910256D01*
X151518880Y-53904155D01*
X151464695Y-53901708D01*
X151462161Y-53901703D01*
X151384210Y-53906555D01*
G37*
X151384210Y-53906555D02*
X151325055Y-53922339D01*
X151280023Y-53950948D01*
X151248246Y-53988419D01*
X151238366Y-54004411D01*
X151231073Y-54021163D01*
X151225974Y-54042592D01*
X151222679Y-54072616D01*
X151220797Y-54115154D01*
X151219937Y-54174122D01*
X151219707Y-54253440D01*
X151219703Y-54274484D01*
X151219703Y-54517822D01*
X151280059Y-54517822D01*
X151318557Y-54515126D01*
X151347023Y-54508295D01*
X151354155Y-54504083D01*
X151373652Y-54496813D01*
X151393566Y-54504083D01*
X151426353Y-54513160D01*
X151473978Y-54516813D01*
X151526764Y-54515228D01*
X151575036Y-54508589D01*
X151603218Y-54500072D01*
X151657753Y-54465063D01*
X151691835Y-54416479D01*
X151707157Y-54351882D01*
X151707299Y-54350223D01*
X151705955Y-54321566D01*
X151584356Y-54321566D01*
X151573726Y-54354161D01*
X151556410Y-54372505D01*
X151521652Y-54386379D01*
X151475773Y-54391917D01*
X151428988Y-54389191D01*
X151391514Y-54378274D01*
X151381015Y-54371269D01*
X151362668Y-54338904D01*
X151358020Y-54302111D01*
X151358020Y-54253763D01*
X151427582Y-54253763D01*
X151493667Y-54258850D01*
X151543764Y-54273263D01*
X151574929Y-54295729D01*
X151584356Y-54321566D01*
X151705955Y-54321566D01*
X151703987Y-54279647D01*
X151680710Y-54223845D01*
X151636948Y-54181647D01*
X151630899Y-54177808D01*
X151604907Y-54165309D01*
X151572735Y-54157740D01*
X151527760Y-54154061D01*
X151474331Y-54153216D01*
X151358020Y-54153169D01*
X151358020Y-54104411D01*
X151362953Y-54066581D01*
X151375543Y-54041236D01*
X151377017Y-54039887D01*
X151405034Y-54028800D01*
X151447326Y-54024503D01*
X151494064Y-54026615D01*
X151535418Y-54034756D01*
X151559957Y-54046965D01*
X151573253Y-54056746D01*
X151587294Y-54058613D01*
X151606671Y-54050600D01*
X151635976Y-54030739D01*
X151679803Y-53997063D01*
X151683825Y-53993909D01*
X151681764Y-53982236D01*
X151664568Y-53962822D01*
X151638433Y-53941248D01*
X151609552Y-53923096D01*
X151600478Y-53918809D01*
X151567380Y-53910256D01*
X151518880Y-53904155D01*
X151464695Y-53901708D01*
X151462161Y-53901703D01*
X151384210Y-53906555D01*
G36*
X150993356Y-53903020D02*
G01*
X150974539Y-53908660D01*
X150968473Y-53921053D01*
X150968218Y-53926647D01*
X150967129Y-53942230D01*
X150959632Y-53944676D01*
X150939381Y-53933993D01*
X150927351Y-53926694D01*
X150889400Y-53911063D01*
X150844072Y-53903334D01*
X150796544Y-53902740D01*
X150751995Y-53908513D01*
X150715602Y-53919884D01*
X150692543Y-53936088D01*
X150687996Y-53956355D01*
X150690291Y-53961843D01*
X150707020Y-53984626D01*
X150732963Y-54012647D01*
X150737655Y-54017177D01*
X150762383Y-54038005D01*
X150783718Y-54044735D01*
X150813555Y-54040038D01*
X150825508Y-54036917D01*
X150862705Y-54029421D01*
X150888859Y-54032792D01*
X150910946Y-54044681D01*
X150931178Y-54060635D01*
X150946079Y-54080700D01*
X150956434Y-54108702D01*
X150963029Y-54148467D01*
X150966649Y-54203823D01*
X150968078Y-54278594D01*
X150968218Y-54323740D01*
X150968218Y-54517822D01*
X151093960Y-54517822D01*
X151093960Y-53901683D01*
X151031089Y-53901683D01*
X150993356Y-53903020D01*
G37*
X150993356Y-53903020D02*
X150974539Y-53908660D01*
X150968473Y-53921053D01*
X150968218Y-53926647D01*
X150967129Y-53942230D01*
X150959632Y-53944676D01*
X150939381Y-53933993D01*
X150927351Y-53926694D01*
X150889400Y-53911063D01*
X150844072Y-53903334D01*
X150796544Y-53902740D01*
X150751995Y-53908513D01*
X150715602Y-53919884D01*
X150692543Y-53936088D01*
X150687996Y-53956355D01*
X150690291Y-53961843D01*
X150707020Y-53984626D01*
X150732963Y-54012647D01*
X150737655Y-54017177D01*
X150762383Y-54038005D01*
X150783718Y-54044735D01*
X150813555Y-54040038D01*
X150825508Y-54036917D01*
X150862705Y-54029421D01*
X150888859Y-54032792D01*
X150910946Y-54044681D01*
X150931178Y-54060635D01*
X150946079Y-54080700D01*
X150956434Y-54108702D01*
X150963029Y-54148467D01*
X150966649Y-54203823D01*
X150968078Y-54278594D01*
X150968218Y-54323740D01*
X150968218Y-54517822D01*
X151093960Y-54517822D01*
X151093960Y-53901683D01*
X151031089Y-53901683D01*
X150993356Y-53903020D01*
G36*
X150201188Y-54517822D02*
G01*
X150270346Y-54517822D01*
X150310488Y-54516645D01*
X150331394Y-54511772D01*
X150338922Y-54501186D01*
X150339505Y-54494029D01*
X150340774Y-54479676D01*
X150348779Y-54476923D01*
X150369815Y-54485771D01*
X150386173Y-54494029D01*
X150448977Y-54513597D01*
X150517248Y-54514729D01*
X150572752Y-54500135D01*
X150624438Y-54464877D01*
X150663838Y-54412835D01*
X150685413Y-54351450D01*
X150685962Y-54348018D01*
X150689167Y-54310571D01*
X150690761Y-54256813D01*
X150690633Y-54216155D01*
X150553279Y-54216155D01*
X150550097Y-54270194D01*
X150542859Y-54314735D01*
X150533060Y-54339888D01*
X150495989Y-54374260D01*
X150451974Y-54386582D01*
X150406584Y-54376618D01*
X150367797Y-54346895D01*
X150353108Y-54326905D01*
X150344519Y-54303050D01*
X150340496Y-54268230D01*
X150339505Y-54215930D01*
X150341278Y-54164139D01*
X150345963Y-54118634D01*
X150352603Y-54088181D01*
X150353710Y-54085452D01*
X150380491Y-54053000D01*
X150419579Y-54035183D01*
X150463315Y-54032306D01*
X150504038Y-54044674D01*
X150534087Y-54072593D01*
X150537204Y-54078148D01*
X150546961Y-54112022D01*
X150552277Y-54160728D01*
X150553279Y-54216155D01*
X150690633Y-54216155D01*
X150690568Y-54195540D01*
X150689664Y-54162563D01*
X150683514Y-54080981D01*
X150670733Y-54019730D01*
X150649471Y-53974449D01*
X150617878Y-53940779D01*
X150587207Y-53921014D01*
X150544354Y-53907120D01*
X150491056Y-53902354D01*
X150436480Y-53906236D01*
X150389792Y-53918282D01*
X150365124Y-53932693D01*
X150339505Y-53955878D01*
X150339505Y-53662773D01*
X150201188Y-53662773D01*
X150201188Y-54517822D01*
G37*
X150201188Y-54517822D02*
X150270346Y-54517822D01*
X150310488Y-54516645D01*
X150331394Y-54511772D01*
X150338922Y-54501186D01*
X150339505Y-54494029D01*
X150340774Y-54479676D01*
X150348779Y-54476923D01*
X150369815Y-54485771D01*
X150386173Y-54494029D01*
X150448977Y-54513597D01*
X150517248Y-54514729D01*
X150572752Y-54500135D01*
X150624438Y-54464877D01*
X150663838Y-54412835D01*
X150685413Y-54351450D01*
X150685962Y-54348018D01*
X150689167Y-54310571D01*
X150690761Y-54256813D01*
X150690633Y-54216155D01*
X150553279Y-54216155D01*
X150550097Y-54270194D01*
X150542859Y-54314735D01*
X150533060Y-54339888D01*
X150495989Y-54374260D01*
X150451974Y-54386582D01*
X150406584Y-54376618D01*
X150367797Y-54346895D01*
X150353108Y-54326905D01*
X150344519Y-54303050D01*
X150340496Y-54268230D01*
X150339505Y-54215930D01*
X150341278Y-54164139D01*
X150345963Y-54118634D01*
X150352603Y-54088181D01*
X150353710Y-54085452D01*
X150380491Y-54053000D01*
X150419579Y-54035183D01*
X150463315Y-54032306D01*
X150504038Y-54044674D01*
X150534087Y-54072593D01*
X150537204Y-54078148D01*
X150546961Y-54112022D01*
X150552277Y-54160728D01*
X150553279Y-54216155D01*
X150690633Y-54216155D01*
X150690568Y-54195540D01*
X150689664Y-54162563D01*
X150683514Y-54080981D01*
X150670733Y-54019730D01*
X150649471Y-53974449D01*
X150617878Y-53940779D01*
X150587207Y-53921014D01*
X150544354Y-53907120D01*
X150491056Y-53902354D01*
X150436480Y-53906236D01*
X150389792Y-53918282D01*
X150365124Y-53932693D01*
X150339505Y-53955878D01*
X150339505Y-53662773D01*
X150201188Y-53662773D01*
X150201188Y-54517822D01*
G36*
X149718476Y-53904237D02*
G01*
X149668745Y-53907971D01*
X149538709Y-54297773D01*
X149518322Y-54228614D01*
X149506054Y-54185874D01*
X149489915Y-54128115D01*
X149472488Y-54064625D01*
X149463274Y-54030570D01*
X149428612Y-53901683D01*
X149285609Y-53901683D01*
X149328354Y-54036857D01*
X149349404Y-54103342D01*
X149374833Y-54183539D01*
X149401390Y-54267193D01*
X149425098Y-54341782D01*
X149479098Y-54511535D01*
X149537402Y-54515328D01*
X149595705Y-54519122D01*
X149627321Y-54414734D01*
X149646818Y-54349889D01*
X149668096Y-54278400D01*
X149686692Y-54215263D01*
X149687426Y-54212750D01*
X149701316Y-54169969D01*
X149713571Y-54140779D01*
X149722154Y-54129741D01*
X149723918Y-54131018D01*
X149730109Y-54148130D01*
X149741872Y-54184787D01*
X149757775Y-54236378D01*
X149776386Y-54298294D01*
X149786457Y-54332352D01*
X149840993Y-54517822D01*
X149956736Y-54517822D01*
X150049263Y-54225471D01*
X150075256Y-54143462D01*
X150098934Y-54068987D01*
X150119180Y-54005544D01*
X150134874Y-53956632D01*
X150144898Y-53925749D01*
X150147945Y-53916726D01*
X150145533Y-53907487D01*
X150126592Y-53903441D01*
X150087177Y-53903846D01*
X150081007Y-53904152D01*
X150007914Y-53907971D01*
X149960043Y-54084010D01*
X149942447Y-54148211D01*
X149926723Y-54204649D01*
X149914254Y-54248422D01*
X149906426Y-54274630D01*
X149904980Y-54278903D01*
X149898986Y-54273990D01*
X149886899Y-54248532D01*
X149870107Y-54205997D01*
X149849997Y-54149850D01*
X149832997Y-54099130D01*
X149768206Y-53900504D01*
X149718476Y-53904237D01*
G37*
X149718476Y-53904237D02*
X149668745Y-53907971D01*
X149538709Y-54297773D01*
X149518322Y-54228614D01*
X149506054Y-54185874D01*
X149489915Y-54128115D01*
X149472488Y-54064625D01*
X149463274Y-54030570D01*
X149428612Y-53901683D01*
X149285609Y-53901683D01*
X149328354Y-54036857D01*
X149349404Y-54103342D01*
X149374833Y-54183539D01*
X149401390Y-54267193D01*
X149425098Y-54341782D01*
X149479098Y-54511535D01*
X149537402Y-54515328D01*
X149595705Y-54519122D01*
X149627321Y-54414734D01*
X149646818Y-54349889D01*
X149668096Y-54278400D01*
X149686692Y-54215263D01*
X149687426Y-54212750D01*
X149701316Y-54169969D01*
X149713571Y-54140779D01*
X149722154Y-54129741D01*
X149723918Y-54131018D01*
X149730109Y-54148130D01*
X149741872Y-54184787D01*
X149757775Y-54236378D01*
X149776386Y-54298294D01*
X149786457Y-54332352D01*
X149840993Y-54517822D01*
X149956736Y-54517822D01*
X150049263Y-54225471D01*
X150075256Y-54143462D01*
X150098934Y-54068987D01*
X150119180Y-54005544D01*
X150134874Y-53956632D01*
X150144898Y-53925749D01*
X150147945Y-53916726D01*
X150145533Y-53907487D01*
X150126592Y-53903441D01*
X150087177Y-53903846D01*
X150081007Y-53904152D01*
X150007914Y-53907971D01*
X149960043Y-54084010D01*
X149942447Y-54148211D01*
X149926723Y-54204649D01*
X149914254Y-54248422D01*
X149906426Y-54274630D01*
X149904980Y-54278903D01*
X149898986Y-54273990D01*
X149886899Y-54248532D01*
X149870107Y-54205997D01*
X149849997Y-54149850D01*
X149832997Y-54099130D01*
X149768206Y-53900504D01*
X149718476Y-53904237D01*
G36*
X148961589Y-53905417D02*
G01*
X148908589Y-53918290D01*
X148893269Y-53925110D01*
X148863572Y-53942974D01*
X148840780Y-53963093D01*
X148823917Y-53988962D01*
X148812002Y-54024073D01*
X148804058Y-54071920D01*
X148799106Y-54135996D01*
X148796169Y-54219794D01*
X148795053Y-54275768D01*
X148790948Y-54517822D01*
X148861068Y-54517822D01*
X148903607Y-54516038D01*
X148925524Y-54509942D01*
X148931188Y-54499706D01*
X148934179Y-54488637D01*
X148947549Y-54490754D01*
X148965767Y-54499629D01*
X149011376Y-54513233D01*
X149069993Y-54516899D01*
X149131646Y-54510903D01*
X149186362Y-54495521D01*
X149191270Y-54493386D01*
X149241277Y-54458255D01*
X149274244Y-54409419D01*
X149289413Y-54352333D01*
X149288254Y-54331824D01*
X149164492Y-54331824D01*
X149153587Y-54359425D01*
X149121255Y-54379204D01*
X149069090Y-54389819D01*
X149041213Y-54391228D01*
X148994753Y-54387620D01*
X148963871Y-54373597D01*
X148956336Y-54366931D01*
X148935924Y-54330666D01*
X148931188Y-54297773D01*
X148931188Y-54253763D01*
X148992487Y-54253763D01*
X149063744Y-54257395D01*
X149113724Y-54268818D01*
X149145304Y-54288824D01*
X149152374Y-54297743D01*
X149164492Y-54331824D01*
X149288254Y-54331824D01*
X149286029Y-54292456D01*
X149263337Y-54235244D01*
X149232376Y-54196580D01*
X149213624Y-54179864D01*
X149195267Y-54168878D01*
X149171381Y-54162180D01*
X149136043Y-54158326D01*
X149083331Y-54155873D01*
X149062423Y-54155168D01*
X148931188Y-54150879D01*
X148931380Y-54111158D01*
X148936463Y-54069405D01*
X148954838Y-54044158D01*
X148991961Y-54028030D01*
X148992957Y-54027742D01*
X149045590Y-54021400D01*
X149097094Y-54029684D01*
X149135370Y-54049827D01*
X149150728Y-54059773D01*
X149167270Y-54058397D01*
X149192725Y-54043987D01*
X149207672Y-54033817D01*
X149236909Y-54012088D01*
X149255020Y-53995800D01*
X149257926Y-53991137D01*
X149245960Y-53967005D01*
X149210604Y-53938185D01*
X149195247Y-53928461D01*
X149151099Y-53911714D01*
X149091602Y-53902227D01*
X149025513Y-53900095D01*
X148961589Y-53905417D01*
G37*
X148961589Y-53905417D02*
X148908589Y-53918290D01*
X148893269Y-53925110D01*
X148863572Y-53942974D01*
X148840780Y-53963093D01*
X148823917Y-53988962D01*
X148812002Y-54024073D01*
X148804058Y-54071920D01*
X148799106Y-54135996D01*
X148796169Y-54219794D01*
X148795053Y-54275768D01*
X148790948Y-54517822D01*
X148861068Y-54517822D01*
X148903607Y-54516038D01*
X148925524Y-54509942D01*
X148931188Y-54499706D01*
X148934179Y-54488637D01*
X148947549Y-54490754D01*
X148965767Y-54499629D01*
X149011376Y-54513233D01*
X149069993Y-54516899D01*
X149131646Y-54510903D01*
X149186362Y-54495521D01*
X149191270Y-54493386D01*
X149241277Y-54458255D01*
X149274244Y-54409419D01*
X149289413Y-54352333D01*
X149288254Y-54331824D01*
X149164492Y-54331824D01*
X149153587Y-54359425D01*
X149121255Y-54379204D01*
X149069090Y-54389819D01*
X149041213Y-54391228D01*
X148994753Y-54387620D01*
X148963871Y-54373597D01*
X148956336Y-54366931D01*
X148935924Y-54330666D01*
X148931188Y-54297773D01*
X148931188Y-54253763D01*
X148992487Y-54253763D01*
X149063744Y-54257395D01*
X149113724Y-54268818D01*
X149145304Y-54288824D01*
X149152374Y-54297743D01*
X149164492Y-54331824D01*
X149288254Y-54331824D01*
X149286029Y-54292456D01*
X149263337Y-54235244D01*
X149232376Y-54196580D01*
X149213624Y-54179864D01*
X149195267Y-54168878D01*
X149171381Y-54162180D01*
X149136043Y-54158326D01*
X149083331Y-54155873D01*
X149062423Y-54155168D01*
X148931188Y-54150879D01*
X148931380Y-54111158D01*
X148936463Y-54069405D01*
X148954838Y-54044158D01*
X148991961Y-54028030D01*
X148992957Y-54027742D01*
X149045590Y-54021400D01*
X149097094Y-54029684D01*
X149135370Y-54049827D01*
X149150728Y-54059773D01*
X149167270Y-54058397D01*
X149192725Y-54043987D01*
X149207672Y-54033817D01*
X149236909Y-54012088D01*
X149255020Y-53995800D01*
X149257926Y-53991137D01*
X149245960Y-53967005D01*
X149210604Y-53938185D01*
X149195247Y-53928461D01*
X149151099Y-53911714D01*
X149091602Y-53902227D01*
X149025513Y-53900095D01*
X148961589Y-53905417D01*
G36*
X148364745Y-53901486D02*
G01*
X148316405Y-53911015D01*
X148288886Y-53925125D01*
X148259936Y-53948568D01*
X148301124Y-54000571D01*
X148326518Y-54032064D01*
X148343762Y-54047428D01*
X148360898Y-54049776D01*
X148385973Y-54042217D01*
X148397743Y-54037941D01*
X148445730Y-54031631D01*
X148489676Y-54045156D01*
X148521940Y-54075710D01*
X148527181Y-54085452D01*
X148532888Y-54111258D01*
X148537294Y-54158817D01*
X148540189Y-54224758D01*
X148541369Y-54305710D01*
X148541386Y-54317226D01*
X148541386Y-54517822D01*
X148679703Y-54517822D01*
X148679703Y-53901683D01*
X148610544Y-53901683D01*
X148570667Y-53902725D01*
X148549893Y-53907358D01*
X148542211Y-53917849D01*
X148541386Y-53927745D01*
X148541386Y-53953806D01*
X148508255Y-53927745D01*
X148470265Y-53909965D01*
X148419230Y-53901174D01*
X148364745Y-53901486D01*
G37*
X148364745Y-53901486D02*
X148316405Y-53911015D01*
X148288886Y-53925125D01*
X148259936Y-53948568D01*
X148301124Y-54000571D01*
X148326518Y-54032064D01*
X148343762Y-54047428D01*
X148360898Y-54049776D01*
X148385973Y-54042217D01*
X148397743Y-54037941D01*
X148445730Y-54031631D01*
X148489676Y-54045156D01*
X148521940Y-54075710D01*
X148527181Y-54085452D01*
X148532888Y-54111258D01*
X148537294Y-54158817D01*
X148540189Y-54224758D01*
X148541369Y-54305710D01*
X148541386Y-54317226D01*
X148541386Y-54517822D01*
X148679703Y-54517822D01*
X148679703Y-53901683D01*
X148610544Y-53901683D01*
X148570667Y-53902725D01*
X148549893Y-53907358D01*
X148542211Y-53917849D01*
X148541386Y-53927745D01*
X148541386Y-53953806D01*
X148508255Y-53927745D01*
X148470265Y-53909965D01*
X148419230Y-53901174D01*
X148364745Y-53901486D01*
G36*
X147967419Y-53904970D02*
G01*
X147907315Y-53920597D01*
X147856979Y-53952848D01*
X147832607Y-53976940D01*
X147792655Y-54033895D01*
X147769758Y-54099965D01*
X147761892Y-54181182D01*
X147761852Y-54187748D01*
X147761782Y-54253763D01*
X148141736Y-54253763D01*
X148133637Y-54288342D01*
X148119013Y-54319659D01*
X148093419Y-54352291D01*
X148088065Y-54357500D01*
X148042057Y-54385694D01*
X147989590Y-54390475D01*
X147929197Y-54371926D01*
X147918960Y-54366931D01*
X147887561Y-54351745D01*
X147866530Y-54343094D01*
X147862861Y-54342293D01*
X147850052Y-54350063D01*
X147825622Y-54369072D01*
X147813221Y-54379460D01*
X147787524Y-54403321D01*
X147779085Y-54419077D01*
X147784942Y-54433571D01*
X147788072Y-54437534D01*
X147809275Y-54454879D01*
X147844262Y-54475959D01*
X147868663Y-54488265D01*
X147937928Y-54509946D01*
X148014612Y-54516971D01*
X148087235Y-54508647D01*
X148107574Y-54502686D01*
X148170524Y-54468952D01*
X148217185Y-54417045D01*
X148247827Y-54346459D01*
X148262718Y-54256692D01*
X148264353Y-54209753D01*
X148259579Y-54141413D01*
X148139010Y-54141413D01*
X148127348Y-54146465D01*
X148096002Y-54150429D01*
X148050429Y-54152768D01*
X148019554Y-54153169D01*
X147964019Y-54152783D01*
X147928967Y-54150975D01*
X147909738Y-54146773D01*
X147901670Y-54139203D01*
X147900099Y-54128218D01*
X147910879Y-54094381D01*
X147938020Y-54060940D01*
X147973723Y-54035272D01*
X148009440Y-54024772D01*
X148057952Y-54034086D01*
X148099947Y-54061013D01*
X148129064Y-54099827D01*
X148139010Y-54141413D01*
X148259579Y-54141413D01*
X148257401Y-54110236D01*
X148235945Y-54030949D01*
X148199530Y-53971263D01*
X148147703Y-53930549D01*
X148080010Y-53908179D01*
X148043338Y-53903871D01*
X147967419Y-53904970D01*
G37*
X147967419Y-53904970D02*
X147907315Y-53920597D01*
X147856979Y-53952848D01*
X147832607Y-53976940D01*
X147792655Y-54033895D01*
X147769758Y-54099965D01*
X147761892Y-54181182D01*
X147761852Y-54187748D01*
X147761782Y-54253763D01*
X148141736Y-54253763D01*
X148133637Y-54288342D01*
X148119013Y-54319659D01*
X148093419Y-54352291D01*
X148088065Y-54357500D01*
X148042057Y-54385694D01*
X147989590Y-54390475D01*
X147929197Y-54371926D01*
X147918960Y-54366931D01*
X147887561Y-54351745D01*
X147866530Y-54343094D01*
X147862861Y-54342293D01*
X147850052Y-54350063D01*
X147825622Y-54369072D01*
X147813221Y-54379460D01*
X147787524Y-54403321D01*
X147779085Y-54419077D01*
X147784942Y-54433571D01*
X147788072Y-54437534D01*
X147809275Y-54454879D01*
X147844262Y-54475959D01*
X147868663Y-54488265D01*
X147937928Y-54509946D01*
X148014612Y-54516971D01*
X148087235Y-54508647D01*
X148107574Y-54502686D01*
X148170524Y-54468952D01*
X148217185Y-54417045D01*
X148247827Y-54346459D01*
X148262718Y-54256692D01*
X148264353Y-54209753D01*
X148259579Y-54141413D01*
X148139010Y-54141413D01*
X148127348Y-54146465D01*
X148096002Y-54150429D01*
X148050429Y-54152768D01*
X148019554Y-54153169D01*
X147964019Y-54152783D01*
X147928967Y-54150975D01*
X147909738Y-54146773D01*
X147901670Y-54139203D01*
X147900099Y-54128218D01*
X147910879Y-54094381D01*
X147938020Y-54060940D01*
X147973723Y-54035272D01*
X148009440Y-54024772D01*
X148057952Y-54034086D01*
X148099947Y-54061013D01*
X148129064Y-54099827D01*
X148139010Y-54141413D01*
X148259579Y-54141413D01*
X148257401Y-54110236D01*
X148235945Y-54030949D01*
X148199530Y-53971263D01*
X148147703Y-53930549D01*
X148080010Y-53908179D01*
X148043338Y-53903871D01*
X147967419Y-53904970D01*
G36*
X152538261Y-52965148D02*
G01*
X152472479Y-52994231D01*
X152422540Y-53042793D01*
X152388374Y-53110908D01*
X152369907Y-53198651D01*
X152368583Y-53212351D01*
X152367546Y-53308939D01*
X152380993Y-53393602D01*
X152408108Y-53462221D01*
X152422627Y-53484294D01*
X152473201Y-53531011D01*
X152537609Y-53561268D01*
X152609666Y-53573824D01*
X152683185Y-53567439D01*
X152739072Y-53547772D01*
X152787132Y-53514629D01*
X152826412Y-53471175D01*
X152827092Y-53470158D01*
X152843044Y-53443338D01*
X152853410Y-53416368D01*
X152859688Y-53382332D01*
X152863373Y-53334310D01*
X152864997Y-53294931D01*
X152865672Y-53259219D01*
X152739955Y-53259219D01*
X152738726Y-53294770D01*
X152734266Y-53342094D01*
X152726397Y-53372465D01*
X152712207Y-53394072D01*
X152698917Y-53406694D01*
X152651802Y-53433122D01*
X152602505Y-53436653D01*
X152556593Y-53417639D01*
X152533638Y-53396331D01*
X152517096Y-53374859D01*
X152507421Y-53354313D01*
X152503174Y-53327574D01*
X152502920Y-53287523D01*
X152504228Y-53250638D01*
X152507043Y-53197947D01*
X152511505Y-53163772D01*
X152519548Y-53141480D01*
X152533103Y-53124442D01*
X152543845Y-53114703D01*
X152588777Y-53089123D01*
X152637249Y-53087847D01*
X152677894Y-53102999D01*
X152712567Y-53134642D01*
X152733224Y-53186620D01*
X152739955Y-53259219D01*
X152865672Y-53259219D01*
X152866479Y-53216621D01*
X152863948Y-53158056D01*
X152856362Y-53114007D01*
X152842681Y-53079248D01*
X152821865Y-53048551D01*
X152814147Y-53039436D01*
X152765889Y-52994021D01*
X152714128Y-52967493D01*
X152650828Y-52956379D01*
X152619961Y-52955471D01*
X152538261Y-52965148D01*
G37*
X152538261Y-52965148D02*
X152472479Y-52994231D01*
X152422540Y-53042793D01*
X152388374Y-53110908D01*
X152369907Y-53198651D01*
X152368583Y-53212351D01*
X152367546Y-53308939D01*
X152380993Y-53393602D01*
X152408108Y-53462221D01*
X152422627Y-53484294D01*
X152473201Y-53531011D01*
X152537609Y-53561268D01*
X152609666Y-53573824D01*
X152683185Y-53567439D01*
X152739072Y-53547772D01*
X152787132Y-53514629D01*
X152826412Y-53471175D01*
X152827092Y-53470158D01*
X152843044Y-53443338D01*
X152853410Y-53416368D01*
X152859688Y-53382332D01*
X152863373Y-53334310D01*
X152864997Y-53294931D01*
X152865672Y-53259219D01*
X152739955Y-53259219D01*
X152738726Y-53294770D01*
X152734266Y-53342094D01*
X152726397Y-53372465D01*
X152712207Y-53394072D01*
X152698917Y-53406694D01*
X152651802Y-53433122D01*
X152602505Y-53436653D01*
X152556593Y-53417639D01*
X152533638Y-53396331D01*
X152517096Y-53374859D01*
X152507421Y-53354313D01*
X152503174Y-53327574D01*
X152502920Y-53287523D01*
X152504228Y-53250638D01*
X152507043Y-53197947D01*
X152511505Y-53163772D01*
X152519548Y-53141480D01*
X152533103Y-53124442D01*
X152543845Y-53114703D01*
X152588777Y-53089123D01*
X152637249Y-53087847D01*
X152677894Y-53102999D01*
X152712567Y-53134642D01*
X152733224Y-53186620D01*
X152739955Y-53259219D01*
X152865672Y-53259219D01*
X152866479Y-53216621D01*
X152863948Y-53158056D01*
X152856362Y-53114007D01*
X152842681Y-53079248D01*
X152821865Y-53048551D01*
X152814147Y-53039436D01*
X152765889Y-52994021D01*
X152714128Y-52967493D01*
X152650828Y-52956379D01*
X152619961Y-52955471D01*
X152538261Y-52965148D01*
G36*
X151356699Y-52972614D02*
G01*
X151344168Y-52978514D01*
X151300799Y-53010283D01*
X151259790Y-53056646D01*
X151229168Y-53107696D01*
X151220459Y-53131166D01*
X151212512Y-53173091D01*
X151207774Y-53223757D01*
X151207199Y-53244679D01*
X151207129Y-53310693D01*
X151587083Y-53310693D01*
X151578983Y-53345273D01*
X151559104Y-53386170D01*
X151524347Y-53421514D01*
X151482998Y-53444282D01*
X151456649Y-53449010D01*
X151420916Y-53443273D01*
X151378282Y-53428882D01*
X151363799Y-53422262D01*
X151310240Y-53395513D01*
X151264533Y-53430376D01*
X151238158Y-53453955D01*
X151224124Y-53473417D01*
X151223414Y-53479129D01*
X151235951Y-53492973D01*
X151263428Y-53514012D01*
X151288366Y-53530425D01*
X151355664Y-53559930D01*
X151431110Y-53573284D01*
X151505888Y-53569812D01*
X151565495Y-53551663D01*
X151626941Y-53512784D01*
X151670608Y-53461595D01*
X151697926Y-53395367D01*
X151710322Y-53311371D01*
X151711421Y-53272936D01*
X151707022Y-53184861D01*
X151706482Y-53182299D01*
X151580582Y-53182299D01*
X151577115Y-53190558D01*
X151562863Y-53195113D01*
X151533470Y-53197065D01*
X151484575Y-53197517D01*
X151465748Y-53197525D01*
X151408467Y-53196843D01*
X151372141Y-53194364D01*
X151352604Y-53189443D01*
X151345690Y-53181434D01*
X151345445Y-53178862D01*
X151353336Y-53158423D01*
X151373085Y-53129789D01*
X151381575Y-53119763D01*
X151413094Y-53091408D01*
X151445949Y-53080259D01*
X151463651Y-53079327D01*
X151511539Y-53090981D01*
X151551699Y-53122285D01*
X151577173Y-53167752D01*
X151577625Y-53169233D01*
X151580582Y-53182299D01*
X151706482Y-53182299D01*
X151692392Y-53115510D01*
X151666038Y-53060025D01*
X151633807Y-53020639D01*
X151574217Y-52977931D01*
X151504168Y-52955109D01*
X151429661Y-52953046D01*
X151356699Y-52972614D01*
G37*
X151356699Y-52972614D02*
X151344168Y-52978514D01*
X151300799Y-53010283D01*
X151259790Y-53056646D01*
X151229168Y-53107696D01*
X151220459Y-53131166D01*
X151212512Y-53173091D01*
X151207774Y-53223757D01*
X151207199Y-53244679D01*
X151207129Y-53310693D01*
X151587083Y-53310693D01*
X151578983Y-53345273D01*
X151559104Y-53386170D01*
X151524347Y-53421514D01*
X151482998Y-53444282D01*
X151456649Y-53449010D01*
X151420916Y-53443273D01*
X151378282Y-53428882D01*
X151363799Y-53422262D01*
X151310240Y-53395513D01*
X151264533Y-53430376D01*
X151238158Y-53453955D01*
X151224124Y-53473417D01*
X151223414Y-53479129D01*
X151235951Y-53492973D01*
X151263428Y-53514012D01*
X151288366Y-53530425D01*
X151355664Y-53559930D01*
X151431110Y-53573284D01*
X151505888Y-53569812D01*
X151565495Y-53551663D01*
X151626941Y-53512784D01*
X151670608Y-53461595D01*
X151697926Y-53395367D01*
X151710322Y-53311371D01*
X151711421Y-53272936D01*
X151707022Y-53184861D01*
X151706482Y-53182299D01*
X151580582Y-53182299D01*
X151577115Y-53190558D01*
X151562863Y-53195113D01*
X151533470Y-53197065D01*
X151484575Y-53197517D01*
X151465748Y-53197525D01*
X151408467Y-53196843D01*
X151372141Y-53194364D01*
X151352604Y-53189443D01*
X151345690Y-53181434D01*
X151345445Y-53178862D01*
X151353336Y-53158423D01*
X151373085Y-53129789D01*
X151381575Y-53119763D01*
X151413094Y-53091408D01*
X151445949Y-53080259D01*
X151463651Y-53079327D01*
X151511539Y-53090981D01*
X151551699Y-53122285D01*
X151577173Y-53167752D01*
X151577625Y-53169233D01*
X151580582Y-53182299D01*
X151706482Y-53182299D01*
X151692392Y-53115510D01*
X151666038Y-53060025D01*
X151633807Y-53020639D01*
X151574217Y-52977931D01*
X151504168Y-52955109D01*
X151429661Y-52953046D01*
X151356699Y-52972614D01*
G36*
X149985983Y-52956452D02*
G01*
X149938366Y-52965482D01*
X149888966Y-52984370D01*
X149883688Y-52986777D01*
X149846226Y-53006476D01*
X149820283Y-53024781D01*
X149811897Y-53036508D01*
X149819883Y-53055632D01*
X149839280Y-53083850D01*
X149847890Y-53094384D01*
X149883372Y-53135847D01*
X149929115Y-53108858D01*
X149972650Y-53090878D01*
X150022950Y-53081267D01*
X150071188Y-53080660D01*
X150108533Y-53089691D01*
X150117495Y-53095327D01*
X150134563Y-53121171D01*
X150136637Y-53150941D01*
X150123866Y-53174197D01*
X150116312Y-53178708D01*
X150093675Y-53184309D01*
X150053885Y-53190892D01*
X150004834Y-53197183D01*
X149995785Y-53198170D01*
X149917004Y-53211798D01*
X149859864Y-53234946D01*
X149821970Y-53269752D01*
X149800921Y-53318354D01*
X149794365Y-53377718D01*
X149803423Y-53445198D01*
X149832836Y-53498188D01*
X149882722Y-53536783D01*
X149953200Y-53561081D01*
X150031435Y-53570667D01*
X150095234Y-53570552D01*
X150146984Y-53561845D01*
X150182327Y-53549825D01*
X150226983Y-53528880D01*
X150268253Y-53504574D01*
X150282921Y-53493876D01*
X150320643Y-53463084D01*
X150275148Y-53417049D01*
X150229653Y-53371013D01*
X150177928Y-53405243D01*
X150126048Y-53430952D01*
X150070649Y-53444399D01*
X150017395Y-53445818D01*
X149971951Y-53435443D01*
X149939984Y-53413507D01*
X149929662Y-53394998D01*
X149931211Y-53365314D01*
X149956860Y-53342615D01*
X150006540Y-53326940D01*
X150060969Y-53319695D01*
X150144736Y-53305873D01*
X150206967Y-53279796D01*
X150248493Y-53240699D01*
X150270147Y-53187820D01*
X150273147Y-53125126D01*
X150258329Y-53059642D01*
X150224546Y-53010144D01*
X150171495Y-52976408D01*
X150098874Y-52958207D01*
X150045072Y-52954639D01*
X149985983Y-52956452D01*
G37*
X149985983Y-52956452D02*
X149938366Y-52965482D01*
X149888966Y-52984370D01*
X149883688Y-52986777D01*
X149846226Y-53006476D01*
X149820283Y-53024781D01*
X149811897Y-53036508D01*
X149819883Y-53055632D01*
X149839280Y-53083850D01*
X149847890Y-53094384D01*
X149883372Y-53135847D01*
X149929115Y-53108858D01*
X149972650Y-53090878D01*
X150022950Y-53081267D01*
X150071188Y-53080660D01*
X150108533Y-53089691D01*
X150117495Y-53095327D01*
X150134563Y-53121171D01*
X150136637Y-53150941D01*
X150123866Y-53174197D01*
X150116312Y-53178708D01*
X150093675Y-53184309D01*
X150053885Y-53190892D01*
X150004834Y-53197183D01*
X149995785Y-53198170D01*
X149917004Y-53211798D01*
X149859864Y-53234946D01*
X149821970Y-53269752D01*
X149800921Y-53318354D01*
X149794365Y-53377718D01*
X149803423Y-53445198D01*
X149832836Y-53498188D01*
X149882722Y-53536783D01*
X149953200Y-53561081D01*
X150031435Y-53570667D01*
X150095234Y-53570552D01*
X150146984Y-53561845D01*
X150182327Y-53549825D01*
X150226983Y-53528880D01*
X150268253Y-53504574D01*
X150282921Y-53493876D01*
X150320643Y-53463084D01*
X150275148Y-53417049D01*
X150229653Y-53371013D01*
X150177928Y-53405243D01*
X150126048Y-53430952D01*
X150070649Y-53444399D01*
X150017395Y-53445818D01*
X149971951Y-53435443D01*
X149939984Y-53413507D01*
X149929662Y-53394998D01*
X149931211Y-53365314D01*
X149956860Y-53342615D01*
X150006540Y-53326940D01*
X150060969Y-53319695D01*
X150144736Y-53305873D01*
X150206967Y-53279796D01*
X150248493Y-53240699D01*
X150270147Y-53187820D01*
X150273147Y-53125126D01*
X150258329Y-53059642D01*
X150224546Y-53010144D01*
X150171495Y-52976408D01*
X150098874Y-52958207D01*
X150045072Y-52954639D01*
X149985983Y-52956452D01*
G36*
X149389238Y-52966055D02*
G01*
X149325637Y-53000692D01*
X149275877Y-53055372D01*
X149252432Y-53099842D01*
X149242366Y-53139121D01*
X149235844Y-53195116D01*
X149233049Y-53259621D01*
X149234164Y-53324429D01*
X149239374Y-53381334D01*
X149245459Y-53411727D01*
X149265986Y-53453306D01*
X149301537Y-53497468D01*
X149344381Y-53536087D01*
X149386789Y-53561034D01*
X149387823Y-53561430D01*
X149440447Y-53572331D01*
X149502812Y-53572601D01*
X149562076Y-53562676D01*
X149584960Y-53554722D01*
X149643898Y-53521300D01*
X149686110Y-53477511D01*
X149713844Y-53419538D01*
X149729349Y-53343565D01*
X149732857Y-53303771D01*
X149732410Y-53253766D01*
X149597624Y-53253766D01*
X149593083Y-53326732D01*
X149580014Y-53382334D01*
X149559244Y-53417861D01*
X149544448Y-53428020D01*
X149506536Y-53435104D01*
X149461473Y-53433007D01*
X149422513Y-53422812D01*
X149412296Y-53417204D01*
X149385341Y-53384538D01*
X149367549Y-53334545D01*
X149359976Y-53273705D01*
X149363675Y-53208497D01*
X149371943Y-53169253D01*
X149395680Y-53123805D01*
X149433151Y-53095396D01*
X149478280Y-53085573D01*
X149524989Y-53095887D01*
X149560868Y-53121112D01*
X149579723Y-53141925D01*
X149590728Y-53162439D01*
X149595974Y-53190203D01*
X149597551Y-53232762D01*
X149597624Y-53253766D01*
X149732410Y-53253766D01*
X149731906Y-53197580D01*
X149714612Y-53110501D01*
X149680971Y-53042530D01*
X149630982Y-52993664D01*
X149564644Y-52963899D01*
X149550399Y-52960448D01*
X149464790Y-52952345D01*
X149389238Y-52966055D01*
G37*
X149389238Y-52966055D02*
X149325637Y-53000692D01*
X149275877Y-53055372D01*
X149252432Y-53099842D01*
X149242366Y-53139121D01*
X149235844Y-53195116D01*
X149233049Y-53259621D01*
X149234164Y-53324429D01*
X149239374Y-53381334D01*
X149245459Y-53411727D01*
X149265986Y-53453306D01*
X149301537Y-53497468D01*
X149344381Y-53536087D01*
X149386789Y-53561034D01*
X149387823Y-53561430D01*
X149440447Y-53572331D01*
X149502812Y-53572601D01*
X149562076Y-53562676D01*
X149584960Y-53554722D01*
X149643898Y-53521300D01*
X149686110Y-53477511D01*
X149713844Y-53419538D01*
X149729349Y-53343565D01*
X149732857Y-53303771D01*
X149732410Y-53253766D01*
X149597624Y-53253766D01*
X149593083Y-53326732D01*
X149580014Y-53382334D01*
X149559244Y-53417861D01*
X149544448Y-53428020D01*
X149506536Y-53435104D01*
X149461473Y-53433007D01*
X149422513Y-53422812D01*
X149412296Y-53417204D01*
X149385341Y-53384538D01*
X149367549Y-53334545D01*
X149359976Y-53273705D01*
X149363675Y-53208497D01*
X149371943Y-53169253D01*
X149395680Y-53123805D01*
X149433151Y-53095396D01*
X149478280Y-53085573D01*
X149524989Y-53095887D01*
X149560868Y-53121112D01*
X149579723Y-53141925D01*
X149590728Y-53162439D01*
X149595974Y-53190203D01*
X149597551Y-53232762D01*
X149597624Y-53253766D01*
X149732410Y-53253766D01*
X149731906Y-53197580D01*
X149714612Y-53110501D01*
X149680971Y-53042530D01*
X149630982Y-52993664D01*
X149564644Y-52963899D01*
X149550399Y-52960448D01*
X149464790Y-52952345D01*
X149389238Y-52966055D01*
G36*
X149006633Y-53154342D02*
G01*
X149005445Y-53246563D01*
X149001103Y-53316610D01*
X148992442Y-53367381D01*
X148978296Y-53401772D01*
X148957500Y-53422679D01*
X148928890Y-53433000D01*
X148893465Y-53435636D01*
X148856364Y-53432682D01*
X148828182Y-53421889D01*
X148807757Y-53400360D01*
X148793921Y-53365199D01*
X148785509Y-53313510D01*
X148781357Y-53242394D01*
X148780297Y-53154342D01*
X148780297Y-52958614D01*
X148641980Y-52958614D01*
X148641980Y-53562179D01*
X148711138Y-53562179D01*
X148752830Y-53560489D01*
X148774299Y-53554556D01*
X148780297Y-53543293D01*
X148783909Y-53533261D01*
X148798286Y-53535383D01*
X148827264Y-53549580D01*
X148893681Y-53571480D01*
X148964125Y-53569928D01*
X149031623Y-53546147D01*
X149063767Y-53527362D01*
X149088285Y-53507022D01*
X149106196Y-53481573D01*
X149118521Y-53447458D01*
X149126277Y-53401121D01*
X149130484Y-53339007D01*
X149132160Y-53257561D01*
X149132376Y-53194578D01*
X149132376Y-52958614D01*
X149006633Y-52958614D01*
X149006633Y-53154342D01*
G37*
X149006633Y-53154342D02*
X149005445Y-53246563D01*
X149001103Y-53316610D01*
X148992442Y-53367381D01*
X148978296Y-53401772D01*
X148957500Y-53422679D01*
X148928890Y-53433000D01*
X148893465Y-53435636D01*
X148856364Y-53432682D01*
X148828182Y-53421889D01*
X148807757Y-53400360D01*
X148793921Y-53365199D01*
X148785509Y-53313510D01*
X148781357Y-53242394D01*
X148780297Y-53154342D01*
X148780297Y-52958614D01*
X148641980Y-52958614D01*
X148641980Y-53562179D01*
X148711138Y-53562179D01*
X148752830Y-53560489D01*
X148774299Y-53554556D01*
X148780297Y-53543293D01*
X148783909Y-53533261D01*
X148798286Y-53535383D01*
X148827264Y-53549580D01*
X148893681Y-53571480D01*
X148964125Y-53569928D01*
X149031623Y-53546147D01*
X149063767Y-53527362D01*
X149088285Y-53507022D01*
X149106196Y-53481573D01*
X149118521Y-53447458D01*
X149126277Y-53401121D01*
X149130484Y-53339007D01*
X149132160Y-53257561D01*
X149132376Y-53194578D01*
X149132376Y-52958614D01*
X149006633Y-52958614D01*
X149006633Y-53154342D01*
G36*
X147782774Y-52963880D02*
G01*
X147709920Y-52994830D01*
X147686973Y-53009895D01*
X147657646Y-53033048D01*
X147639236Y-53051253D01*
X147636039Y-53057183D01*
X147645065Y-53070340D01*
X147668163Y-53092667D01*
X147686656Y-53108250D01*
X147737272Y-53148926D01*
X147777240Y-53115295D01*
X147808126Y-53093584D01*
X147838241Y-53086090D01*
X147872708Y-53087920D01*
X147927439Y-53101528D01*
X147965114Y-53129772D01*
X147988009Y-53175433D01*
X147998403Y-53241289D01*
X147998405Y-53241331D01*
X147997506Y-53314939D01*
X147983537Y-53368946D01*
X147955672Y-53405716D01*
X147936675Y-53418168D01*
X147886224Y-53433673D01*
X147832337Y-53433683D01*
X147785454Y-53418638D01*
X147774356Y-53411287D01*
X147746524Y-53392511D01*
X147724764Y-53389434D01*
X147701296Y-53403409D01*
X147675351Y-53428510D01*
X147634284Y-53470880D01*
X147679879Y-53508464D01*
X147750326Y-53550882D01*
X147829767Y-53571785D01*
X147912785Y-53570272D01*
X147967306Y-53556411D01*
X148031030Y-53522135D01*
X148081995Y-53468212D01*
X148105149Y-53430149D01*
X148123901Y-53375536D01*
X148133285Y-53306369D01*
X148133357Y-53231407D01*
X148124176Y-53159409D01*
X148105801Y-53099137D01*
X148102907Y-53092958D01*
X148060048Y-53032351D01*
X148002021Y-52988224D01*
X147933409Y-52961493D01*
X147858799Y-52953073D01*
X147782774Y-52963880D01*
G37*
X147782774Y-52963880D02*
X147709920Y-52994830D01*
X147686973Y-53009895D01*
X147657646Y-53033048D01*
X147639236Y-53051253D01*
X147636039Y-53057183D01*
X147645065Y-53070340D01*
X147668163Y-53092667D01*
X147686656Y-53108250D01*
X147737272Y-53148926D01*
X147777240Y-53115295D01*
X147808126Y-53093584D01*
X147838241Y-53086090D01*
X147872708Y-53087920D01*
X147927439Y-53101528D01*
X147965114Y-53129772D01*
X147988009Y-53175433D01*
X147998403Y-53241289D01*
X147998405Y-53241331D01*
X147997506Y-53314939D01*
X147983537Y-53368946D01*
X147955672Y-53405716D01*
X147936675Y-53418168D01*
X147886224Y-53433673D01*
X147832337Y-53433683D01*
X147785454Y-53418638D01*
X147774356Y-53411287D01*
X147746524Y-53392511D01*
X147724764Y-53389434D01*
X147701296Y-53403409D01*
X147675351Y-53428510D01*
X147634284Y-53470880D01*
X147679879Y-53508464D01*
X147750326Y-53550882D01*
X147829767Y-53571785D01*
X147912785Y-53570272D01*
X147967306Y-53556411D01*
X148031030Y-53522135D01*
X148081995Y-53468212D01*
X148105149Y-53430149D01*
X148123901Y-53375536D01*
X148133285Y-53306369D01*
X148133357Y-53231407D01*
X148124176Y-53159409D01*
X148105801Y-53099137D01*
X148102907Y-53092958D01*
X148060048Y-53032351D01*
X148002021Y-52988224D01*
X147933409Y-52961493D01*
X147858799Y-52953073D01*
X147782774Y-52963880D01*
G36*
X147322102Y-52956457D02*
G01*
X147289904Y-52964279D01*
X147228175Y-52992921D01*
X147175390Y-53036667D01*
X147138859Y-53089117D01*
X147133840Y-53100893D01*
X147126955Y-53131740D01*
X147122136Y-53177371D01*
X147120495Y-53223492D01*
X147120495Y-53310693D01*
X147302822Y-53310693D01*
X147378021Y-53310978D01*
X147430997Y-53312704D01*
X147464675Y-53317181D01*
X147481980Y-53325720D01*
X147485837Y-53339630D01*
X147479171Y-53360222D01*
X147467230Y-53384315D01*
X147433920Y-53424525D01*
X147387632Y-53444558D01*
X147331056Y-53443905D01*
X147266969Y-53422101D01*
X147211583Y-53395193D01*
X147165625Y-53431532D01*
X147119667Y-53467872D01*
X147162904Y-53507819D01*
X147220626Y-53545563D01*
X147291614Y-53568320D01*
X147367971Y-53574688D01*
X147441801Y-53563268D01*
X147453713Y-53559393D01*
X147518601Y-53525506D01*
X147566870Y-53474986D01*
X147599535Y-53406325D01*
X147617615Y-53318014D01*
X147617825Y-53316121D01*
X147619444Y-53219878D01*
X147612900Y-53185542D01*
X147485148Y-53185542D01*
X147473416Y-53190822D01*
X147441562Y-53194867D01*
X147394603Y-53197176D01*
X147364846Y-53197525D01*
X147309352Y-53197306D01*
X147274654Y-53195916D01*
X147256399Y-53192251D01*
X147250234Y-53185210D01*
X147251805Y-53173690D01*
X147253122Y-53169233D01*
X147275618Y-53127355D01*
X147310997Y-53093604D01*
X147342220Y-53078773D01*
X147383699Y-53079668D01*
X147425731Y-53098164D01*
X147460988Y-53128786D01*
X147482146Y-53166062D01*
X147485148Y-53185542D01*
X147612900Y-53185542D01*
X147603310Y-53135229D01*
X147571302Y-53064191D01*
X147525299Y-53008779D01*
X147467179Y-52971009D01*
X147398820Y-52952896D01*
X147322102Y-52956457D01*
G37*
X147322102Y-52956457D02*
X147289904Y-52964279D01*
X147228175Y-52992921D01*
X147175390Y-53036667D01*
X147138859Y-53089117D01*
X147133840Y-53100893D01*
X147126955Y-53131740D01*
X147122136Y-53177371D01*
X147120495Y-53223492D01*
X147120495Y-53310693D01*
X147302822Y-53310693D01*
X147378021Y-53310978D01*
X147430997Y-53312704D01*
X147464675Y-53317181D01*
X147481980Y-53325720D01*
X147485837Y-53339630D01*
X147479171Y-53360222D01*
X147467230Y-53384315D01*
X147433920Y-53424525D01*
X147387632Y-53444558D01*
X147331056Y-53443905D01*
X147266969Y-53422101D01*
X147211583Y-53395193D01*
X147165625Y-53431532D01*
X147119667Y-53467872D01*
X147162904Y-53507819D01*
X147220626Y-53545563D01*
X147291614Y-53568320D01*
X147367971Y-53574688D01*
X147441801Y-53563268D01*
X147453713Y-53559393D01*
X147518601Y-53525506D01*
X147566870Y-53474986D01*
X147599535Y-53406325D01*
X147617615Y-53318014D01*
X147617825Y-53316121D01*
X147619444Y-53219878D01*
X147612900Y-53185542D01*
X147485148Y-53185542D01*
X147473416Y-53190822D01*
X147441562Y-53194867D01*
X147394603Y-53197176D01*
X147364846Y-53197525D01*
X147309352Y-53197306D01*
X147274654Y-53195916D01*
X147256399Y-53192251D01*
X147250234Y-53185210D01*
X147251805Y-53173690D01*
X147253122Y-53169233D01*
X147275618Y-53127355D01*
X147310997Y-53093604D01*
X147342220Y-53078773D01*
X147383699Y-53079668D01*
X147425731Y-53098164D01*
X147460988Y-53128786D01*
X147482146Y-53166062D01*
X147485148Y-53185542D01*
X147612900Y-53185542D01*
X147603310Y-53135229D01*
X147571302Y-53064191D01*
X147525299Y-53008779D01*
X147467179Y-52971009D01*
X147398820Y-52952896D01*
X147322102Y-52956457D01*
G36*
X150754012Y-52969002D02*
G01*
X150722717Y-52983950D01*
X150692409Y-53005541D01*
X150669318Y-53030391D01*
X150652500Y-53062087D01*
X150641006Y-53104214D01*
X150633891Y-53160358D01*
X150630207Y-53234106D01*
X150629008Y-53329044D01*
X150628989Y-53338985D01*
X150628713Y-53562179D01*
X150767030Y-53562179D01*
X150767030Y-53356418D01*
X150767128Y-53280189D01*
X150767809Y-53224939D01*
X150769651Y-53186501D01*
X150773233Y-53160706D01*
X150779132Y-53143384D01*
X150787927Y-53130368D01*
X150800180Y-53117507D01*
X150843047Y-53089873D01*
X150889843Y-53084745D01*
X150934424Y-53102217D01*
X150949928Y-53115221D01*
X150961310Y-53127447D01*
X150969481Y-53140540D01*
X150974974Y-53158615D01*
X150978320Y-53185787D01*
X150980051Y-53226170D01*
X150980697Y-53283879D01*
X150980792Y-53354132D01*
X150980792Y-53562179D01*
X151119109Y-53562179D01*
X151119109Y-52958614D01*
X151049950Y-52958614D01*
X151008428Y-52960256D01*
X150987006Y-52966087D01*
X150980795Y-52977461D01*
X150980792Y-52977798D01*
X150977910Y-52988938D01*
X150965199Y-52987674D01*
X150939926Y-52975434D01*
X150882605Y-52957424D01*
X150817037Y-52955421D01*
X150754012Y-52969002D01*
G37*
X150754012Y-52969002D02*
X150722717Y-52983950D01*
X150692409Y-53005541D01*
X150669318Y-53030391D01*
X150652500Y-53062087D01*
X150641006Y-53104214D01*
X150633891Y-53160358D01*
X150630207Y-53234106D01*
X150629008Y-53329044D01*
X150628989Y-53338985D01*
X150628713Y-53562179D01*
X150767030Y-53562179D01*
X150767030Y-53356418D01*
X150767128Y-53280189D01*
X150767809Y-53224939D01*
X150769651Y-53186501D01*
X150773233Y-53160706D01*
X150779132Y-53143384D01*
X150787927Y-53130368D01*
X150800180Y-53117507D01*
X150843047Y-53089873D01*
X150889843Y-53084745D01*
X150934424Y-53102217D01*
X150949928Y-53115221D01*
X150961310Y-53127447D01*
X150969481Y-53140540D01*
X150974974Y-53158615D01*
X150978320Y-53185787D01*
X150980051Y-53226170D01*
X150980697Y-53283879D01*
X150980792Y-53354132D01*
X150980792Y-53562179D01*
X151119109Y-53562179D01*
X151119109Y-52958614D01*
X151049950Y-52958614D01*
X151008428Y-52960256D01*
X150987006Y-52966087D01*
X150980795Y-52977461D01*
X150980792Y-52977798D01*
X150977910Y-52988938D01*
X150965199Y-52987674D01*
X150939926Y-52975434D01*
X150882605Y-52957424D01*
X150817037Y-52955421D01*
X150754012Y-52969002D01*
G36*
X148200540Y-52958030D02*
G01*
X148157289Y-52971245D01*
X148129442Y-52987941D01*
X148120371Y-53001145D01*
X148122868Y-53016797D01*
X148139069Y-53041385D01*
X148152768Y-53058800D01*
X148181008Y-53090283D01*
X148202225Y-53103529D01*
X148220312Y-53102664D01*
X148273965Y-53089010D01*
X148313370Y-53089630D01*
X148345368Y-53105104D01*
X148356110Y-53114161D01*
X148390495Y-53146027D01*
X148390495Y-53562179D01*
X148528812Y-53562179D01*
X148528812Y-52958614D01*
X148459653Y-52958614D01*
X148418131Y-52960256D01*
X148396709Y-52966087D01*
X148390498Y-52977461D01*
X148390495Y-52977798D01*
X148387561Y-52989713D01*
X148374296Y-52988159D01*
X148355916Y-52979563D01*
X148317954Y-52963568D01*
X148287128Y-52953945D01*
X148247464Y-52951478D01*
X148200540Y-52958030D01*
G37*
X148200540Y-52958030D02*
X148157289Y-52971245D01*
X148129442Y-52987941D01*
X148120371Y-53001145D01*
X148122868Y-53016797D01*
X148139069Y-53041385D01*
X148152768Y-53058800D01*
X148181008Y-53090283D01*
X148202225Y-53103529D01*
X148220312Y-53102664D01*
X148273965Y-53089010D01*
X148313370Y-53089630D01*
X148345368Y-53105104D01*
X148356110Y-53114161D01*
X148390495Y-53146027D01*
X148390495Y-53562179D01*
X148528812Y-53562179D01*
X148528812Y-52958614D01*
X148459653Y-52958614D01*
X148418131Y-52960256D01*
X148396709Y-52966087D01*
X148390498Y-52977461D01*
X148390495Y-52977798D01*
X148387561Y-52989713D01*
X148374296Y-52988159D01*
X148355916Y-52979563D01*
X148317954Y-52963568D01*
X148287128Y-52953945D01*
X148247464Y-52951478D01*
X148200540Y-52958030D01*
G36*
X149623036Y-48790018D02*
G01*
X149566188Y-49091570D01*
X149146662Y-49264512D01*
X148895016Y-49093395D01*
X148824542Y-49045750D01*
X148760837Y-49003210D01*
X148706874Y-48967715D01*
X148665627Y-48941210D01*
X148640066Y-48925636D01*
X148633105Y-48922278D01*
X148620565Y-48930914D01*
X148593769Y-48954792D01*
X148555720Y-48990859D01*
X148509421Y-49036067D01*
X148457877Y-49087364D01*
X148404091Y-49141701D01*
X148351065Y-49196028D01*
X148301805Y-49247295D01*
X148259313Y-49292451D01*
X148226593Y-49328446D01*
X148206649Y-49352230D01*
X148201881Y-49360190D01*
X148208743Y-49374865D01*
X148227980Y-49407014D01*
X148257570Y-49453492D01*
X148295490Y-49511156D01*
X148339718Y-49576860D01*
X148365346Y-49614336D01*
X148412059Y-49682768D01*
X148453568Y-49744520D01*
X148487860Y-49796519D01*
X148512920Y-49835692D01*
X148526736Y-49858965D01*
X148528812Y-49863855D01*
X148524105Y-49877755D01*
X148511277Y-49910150D01*
X148492262Y-49956485D01*
X148468997Y-50012206D01*
X148443416Y-50072758D01*
X148417455Y-50133586D01*
X148393050Y-50190136D01*
X148372137Y-50237852D01*
X148356651Y-50272181D01*
X148348528Y-50288568D01*
X148348048Y-50289212D01*
X148335293Y-50292341D01*
X148301323Y-50299321D01*
X148249660Y-50309467D01*
X148183824Y-50322092D01*
X148107336Y-50336509D01*
X148062710Y-50344823D01*
X147980979Y-50360384D01*
X147907157Y-50375192D01*
X147844979Y-50388436D01*
X147798178Y-50399305D01*
X147770491Y-50406989D01*
X147764926Y-50409427D01*
X147759474Y-50425930D01*
X147755076Y-50463200D01*
X147751728Y-50516880D01*
X147749426Y-50582612D01*
X147748168Y-50656037D01*
X147747952Y-50732796D01*
X147748773Y-50808532D01*
X147750629Y-50878886D01*
X147753518Y-50939500D01*
X147757435Y-50986016D01*
X147762378Y-51014075D01*
X147765343Y-51019916D01*
X147783066Y-51026917D01*
X147820619Y-51036927D01*
X147873036Y-51048769D01*
X147935348Y-51061267D01*
X147957100Y-51065310D01*
X148061976Y-51084520D01*
X148144820Y-51099991D01*
X148208370Y-51112337D01*
X148255363Y-51122173D01*
X148288537Y-51130114D01*
X148310629Y-51136776D01*
X148324376Y-51142773D01*
X148332516Y-51148719D01*
X148333655Y-51149894D01*
X148345023Y-51168826D01*
X148362365Y-51205669D01*
X148383950Y-51255913D01*
X148408046Y-51315046D01*
X148432921Y-51378556D01*
X148456843Y-51441932D01*
X148478081Y-51500662D01*
X148494903Y-51550235D01*
X148505578Y-51586139D01*
X148508373Y-51603862D01*
X148508140Y-51604483D01*
X148498669Y-51618970D01*
X148477182Y-51650844D01*
X148445937Y-51696789D01*
X148407193Y-51753485D01*
X148363207Y-51817617D01*
X148350681Y-51835842D01*
X148306016Y-51901914D01*
X148266712Y-51962200D01*
X148234912Y-52013235D01*
X148212755Y-52051560D01*
X148202383Y-52073711D01*
X148201881Y-52076432D01*
X148210595Y-52090736D01*
X148234675Y-52119072D01*
X148271024Y-52158396D01*
X148316547Y-52205661D01*
X148368148Y-52257823D01*
X148422733Y-52311835D01*
X148477206Y-52364653D01*
X148528471Y-52413231D01*
X148573433Y-52454523D01*
X148608996Y-52485485D01*
X148632065Y-52503070D01*
X148638446Y-52505941D01*
X148653301Y-52499178D01*
X148683714Y-52480939D01*
X148724732Y-52454297D01*
X148756291Y-52432852D01*
X148813475Y-52393503D01*
X148881194Y-52347171D01*
X148949120Y-52300913D01*
X148985639Y-52276155D01*
X149109248Y-52192547D01*
X149213009Y-52248650D01*
X149260280Y-52273228D01*
X149300477Y-52292331D01*
X149327674Y-52303227D01*
X149334598Y-52304743D01*
X149342923Y-52293549D01*
X149359346Y-52261917D01*
X149382643Y-52212765D01*
X149411586Y-52149010D01*
X149444950Y-52073571D01*
X149481509Y-51989364D01*
X149520036Y-51899308D01*
X149559306Y-51806321D01*
X149598092Y-51713320D01*
X149635170Y-51623223D01*
X149669311Y-51538948D01*
X149699292Y-51463413D01*
X149723884Y-51399534D01*
X149741864Y-51350231D01*
X149752003Y-51318421D01*
X149753634Y-51307496D01*
X149740709Y-51293561D01*
X149712411Y-51270940D01*
X149674654Y-51244333D01*
X149671485Y-51242228D01*
X149573900Y-51164114D01*
X149495214Y-51072982D01*
X149436109Y-50971745D01*
X149397268Y-50863318D01*
X149379372Y-50750614D01*
X149383103Y-50636548D01*
X149409143Y-50524034D01*
X149458175Y-50415985D01*
X149472600Y-50392345D01*
X149547631Y-50296887D01*
X149636270Y-50220232D01*
X149735451Y-50162780D01*
X149842105Y-50124929D01*
X149953164Y-50107078D01*
X150065561Y-50109625D01*
X150176227Y-50132970D01*
X150282094Y-50177510D01*
X150380095Y-50243645D01*
X150410410Y-50270487D01*
X150487562Y-50354512D01*
X150543782Y-50442966D01*
X150582347Y-50542115D01*
X150603826Y-50640303D01*
X150609128Y-50750697D01*
X150591448Y-50861640D01*
X150552581Y-50969381D01*
X150494323Y-51070169D01*
X150418469Y-51160256D01*
X150326817Y-51235892D01*
X150314772Y-51243864D01*
X150276611Y-51269974D01*
X150247601Y-51292595D01*
X150233732Y-51307039D01*
X150233531Y-51307496D01*
X150236508Y-51323121D01*
X150248311Y-51358582D01*
X150267714Y-51410962D01*
X150293488Y-51477345D01*
X150324409Y-51554814D01*
X150359249Y-51640450D01*
X150396783Y-51731337D01*
X150435783Y-51824559D01*
X150475023Y-51917197D01*
X150513276Y-52006335D01*
X150549317Y-52089055D01*
X150581917Y-52162441D01*
X150609852Y-52223575D01*
X150631895Y-52269541D01*
X150646818Y-52297421D01*
X150652828Y-52304743D01*
X150671191Y-52299041D01*
X150705552Y-52283749D01*
X150749984Y-52261599D01*
X150774417Y-52248650D01*
X150878178Y-52192547D01*
X151001787Y-52276155D01*
X151064886Y-52318987D01*
X151133970Y-52366122D01*
X151198707Y-52410503D01*
X151231134Y-52432852D01*
X151276741Y-52463477D01*
X151315360Y-52487747D01*
X151341952Y-52502587D01*
X151350590Y-52505724D01*
X151363161Y-52497261D01*
X151390984Y-52473636D01*
X151431361Y-52437302D01*
X151481595Y-52390711D01*
X151538988Y-52336317D01*
X151575286Y-52301392D01*
X151638790Y-52238996D01*
X151693673Y-52183188D01*
X151737714Y-52136354D01*
X151768695Y-52100882D01*
X151784398Y-52079161D01*
X151785905Y-52074752D01*
X151778914Y-52057985D01*
X151759594Y-52024082D01*
X151730091Y-51976476D01*
X151692545Y-51918599D01*
X151649100Y-51853884D01*
X151636745Y-51835842D01*
X151591727Y-51770267D01*
X151551340Y-51711228D01*
X151517840Y-51662042D01*
X151493486Y-51626028D01*
X151480536Y-51606502D01*
X151479285Y-51604483D01*
X151481156Y-51588922D01*
X151491087Y-51554709D01*
X151507347Y-51506355D01*
X151528205Y-51448371D01*
X151551927Y-51385270D01*
X151576784Y-51321563D01*
X151601042Y-51261761D01*
X151622971Y-51210376D01*
X151640838Y-51171919D01*
X151652913Y-51150902D01*
X151653771Y-51149894D01*
X151661154Y-51143888D01*
X151673625Y-51137948D01*
X151693920Y-51131460D01*
X151724778Y-51123809D01*
X151768934Y-51114380D01*
X151829126Y-51102559D01*
X151908093Y-51087729D01*
X152008570Y-51069277D01*
X152030325Y-51065310D01*
X152094802Y-51052853D01*
X152151011Y-51040666D01*
X152193987Y-51029926D01*
X152218760Y-51021809D01*
X152222082Y-51019916D01*
X152227556Y-51003138D01*
X152232006Y-50965645D01*
X152235428Y-50911794D01*
X152237819Y-50845944D01*
X152239177Y-50772453D01*
X152239499Y-50695680D01*
X152238781Y-50619983D01*
X152237021Y-50549720D01*
X152234216Y-50489250D01*
X152230362Y-50442930D01*
X152225457Y-50415119D01*
X152222500Y-50409427D01*
X152206037Y-50403686D01*
X152168551Y-50394345D01*
X152113775Y-50382215D01*
X152045445Y-50368107D01*
X151967294Y-50352830D01*
X151924716Y-50344823D01*
X151843929Y-50329721D01*
X151771887Y-50316040D01*
X151712111Y-50304467D01*
X151668121Y-50295687D01*
X151643439Y-50290387D01*
X151639377Y-50289212D01*
X151632511Y-50275965D01*
X151617998Y-50244057D01*
X151597771Y-50198047D01*
X151573766Y-50142492D01*
X151547918Y-50081953D01*
X151522160Y-50020986D01*
X151498427Y-49964151D01*
X151478654Y-49916006D01*
X151464776Y-49881110D01*
X151458726Y-49864021D01*
X151458614Y-49863274D01*
X151465472Y-49849793D01*
X151484698Y-49818770D01*
X151514272Y-49773289D01*
X151552173Y-49716432D01*
X151596380Y-49651283D01*
X151622079Y-49613862D01*
X151668907Y-49545247D01*
X151710499Y-49482952D01*
X151744825Y-49430129D01*
X151769857Y-49389927D01*
X151783565Y-49365500D01*
X151785544Y-49360024D01*
X151777034Y-49347278D01*
X151753507Y-49320063D01*
X151717968Y-49281428D01*
X151673423Y-49234423D01*
X151622877Y-49182095D01*
X151569336Y-49127495D01*
X151515805Y-49073670D01*
X151465289Y-49023670D01*
X151420794Y-48980543D01*
X151385325Y-48947339D01*
X151361887Y-48927106D01*
X151354046Y-48922278D01*
X151341280Y-48929067D01*
X151310744Y-48948142D01*
X151265410Y-48977561D01*
X151208244Y-49015381D01*
X151142216Y-49059661D01*
X151092410Y-49093395D01*
X150840764Y-49264512D01*
X150631001Y-49178041D01*
X150421237Y-49091570D01*
X150364389Y-48790018D01*
X150307540Y-48488466D01*
X149679885Y-48488466D01*
X149623036Y-48790018D01*
G37*
X149623036Y-48790018D02*
X149566188Y-49091570D01*
X149146662Y-49264512D01*
X148895016Y-49093395D01*
X148824542Y-49045750D01*
X148760837Y-49003210D01*
X148706874Y-48967715D01*
X148665627Y-48941210D01*
X148640066Y-48925636D01*
X148633105Y-48922278D01*
X148620565Y-48930914D01*
X148593769Y-48954792D01*
X148555720Y-48990859D01*
X148509421Y-49036067D01*
X148457877Y-49087364D01*
X148404091Y-49141701D01*
X148351065Y-49196028D01*
X148301805Y-49247295D01*
X148259313Y-49292451D01*
X148226593Y-49328446D01*
X148206649Y-49352230D01*
X148201881Y-49360190D01*
X148208743Y-49374865D01*
X148227980Y-49407014D01*
X148257570Y-49453492D01*
X148295490Y-49511156D01*
X148339718Y-49576860D01*
X148365346Y-49614336D01*
X148412059Y-49682768D01*
X148453568Y-49744520D01*
X148487860Y-49796519D01*
X148512920Y-49835692D01*
X148526736Y-49858965D01*
X148528812Y-49863855D01*
X148524105Y-49877755D01*
X148511277Y-49910150D01*
X148492262Y-49956485D01*
X148468997Y-50012206D01*
X148443416Y-50072758D01*
X148417455Y-50133586D01*
X148393050Y-50190136D01*
X148372137Y-50237852D01*
X148356651Y-50272181D01*
X148348528Y-50288568D01*
X148348048Y-50289212D01*
X148335293Y-50292341D01*
X148301323Y-50299321D01*
X148249660Y-50309467D01*
X148183824Y-50322092D01*
X148107336Y-50336509D01*
X148062710Y-50344823D01*
X147980979Y-50360384D01*
X147907157Y-50375192D01*
X147844979Y-50388436D01*
X147798178Y-50399305D01*
X147770491Y-50406989D01*
X147764926Y-50409427D01*
X147759474Y-50425930D01*
X147755076Y-50463200D01*
X147751728Y-50516880D01*
X147749426Y-50582612D01*
X147748168Y-50656037D01*
X147747952Y-50732796D01*
X147748773Y-50808532D01*
X147750629Y-50878886D01*
X147753518Y-50939500D01*
X147757435Y-50986016D01*
X147762378Y-51014075D01*
X147765343Y-51019916D01*
X147783066Y-51026917D01*
X147820619Y-51036927D01*
X147873036Y-51048769D01*
X147935348Y-51061267D01*
X147957100Y-51065310D01*
X148061976Y-51084520D01*
X148144820Y-51099991D01*
X148208370Y-51112337D01*
X148255363Y-51122173D01*
X148288537Y-51130114D01*
X148310629Y-51136776D01*
X148324376Y-51142773D01*
X148332516Y-51148719D01*
X148333655Y-51149894D01*
X148345023Y-51168826D01*
X148362365Y-51205669D01*
X148383950Y-51255913D01*
X148408046Y-51315046D01*
X148432921Y-51378556D01*
X148456843Y-51441932D01*
X148478081Y-51500662D01*
X148494903Y-51550235D01*
X148505578Y-51586139D01*
X148508373Y-51603862D01*
X148508140Y-51604483D01*
X148498669Y-51618970D01*
X148477182Y-51650844D01*
X148445937Y-51696789D01*
X148407193Y-51753485D01*
X148363207Y-51817617D01*
X148350681Y-51835842D01*
X148306016Y-51901914D01*
X148266712Y-51962200D01*
X148234912Y-52013235D01*
X148212755Y-52051560D01*
X148202383Y-52073711D01*
X148201881Y-52076432D01*
X148210595Y-52090736D01*
X148234675Y-52119072D01*
X148271024Y-52158396D01*
X148316547Y-52205661D01*
X148368148Y-52257823D01*
X148422733Y-52311835D01*
X148477206Y-52364653D01*
X148528471Y-52413231D01*
X148573433Y-52454523D01*
X148608996Y-52485485D01*
X148632065Y-52503070D01*
X148638446Y-52505941D01*
X148653301Y-52499178D01*
X148683714Y-52480939D01*
X148724732Y-52454297D01*
X148756291Y-52432852D01*
X148813475Y-52393503D01*
X148881194Y-52347171D01*
X148949120Y-52300913D01*
X148985639Y-52276155D01*
X149109248Y-52192547D01*
X149213009Y-52248650D01*
X149260280Y-52273228D01*
X149300477Y-52292331D01*
X149327674Y-52303227D01*
X149334598Y-52304743D01*
X149342923Y-52293549D01*
X149359346Y-52261917D01*
X149382643Y-52212765D01*
X149411586Y-52149010D01*
X149444950Y-52073571D01*
X149481509Y-51989364D01*
X149520036Y-51899308D01*
X149559306Y-51806321D01*
X149598092Y-51713320D01*
X149635170Y-51623223D01*
X149669311Y-51538948D01*
X149699292Y-51463413D01*
X149723884Y-51399534D01*
X149741864Y-51350231D01*
X149752003Y-51318421D01*
X149753634Y-51307496D01*
X149740709Y-51293561D01*
X149712411Y-51270940D01*
X149674654Y-51244333D01*
X149671485Y-51242228D01*
X149573900Y-51164114D01*
X149495214Y-51072982D01*
X149436109Y-50971745D01*
X149397268Y-50863318D01*
X149379372Y-50750614D01*
X149383103Y-50636548D01*
X149409143Y-50524034D01*
X149458175Y-50415985D01*
X149472600Y-50392345D01*
X149547631Y-50296887D01*
X149636270Y-50220232D01*
X149735451Y-50162780D01*
X149842105Y-50124929D01*
X149953164Y-50107078D01*
X150065561Y-50109625D01*
X150176227Y-50132970D01*
X150282094Y-50177510D01*
X150380095Y-50243645D01*
X150410410Y-50270487D01*
X150487562Y-50354512D01*
X150543782Y-50442966D01*
X150582347Y-50542115D01*
X150603826Y-50640303D01*
X150609128Y-50750697D01*
X150591448Y-50861640D01*
X150552581Y-50969381D01*
X150494323Y-51070169D01*
X150418469Y-51160256D01*
X150326817Y-51235892D01*
X150314772Y-51243864D01*
X150276611Y-51269974D01*
X150247601Y-51292595D01*
X150233732Y-51307039D01*
X150233531Y-51307496D01*
X150236508Y-51323121D01*
X150248311Y-51358582D01*
X150267714Y-51410962D01*
X150293488Y-51477345D01*
X150324409Y-51554814D01*
X150359249Y-51640450D01*
X150396783Y-51731337D01*
X150435783Y-51824559D01*
X150475023Y-51917197D01*
X150513276Y-52006335D01*
X150549317Y-52089055D01*
X150581917Y-52162441D01*
X150609852Y-52223575D01*
X150631895Y-52269541D01*
X150646818Y-52297421D01*
X150652828Y-52304743D01*
X150671191Y-52299041D01*
X150705552Y-52283749D01*
X150749984Y-52261599D01*
X150774417Y-52248650D01*
X150878178Y-52192547D01*
X151001787Y-52276155D01*
X151064886Y-52318987D01*
X151133970Y-52366122D01*
X151198707Y-52410503D01*
X151231134Y-52432852D01*
X151276741Y-52463477D01*
X151315360Y-52487747D01*
X151341952Y-52502587D01*
X151350590Y-52505724D01*
X151363161Y-52497261D01*
X151390984Y-52473636D01*
X151431361Y-52437302D01*
X151481595Y-52390711D01*
X151538988Y-52336317D01*
X151575286Y-52301392D01*
X151638790Y-52238996D01*
X151693673Y-52183188D01*
X151737714Y-52136354D01*
X151768695Y-52100882D01*
X151784398Y-52079161D01*
X151785905Y-52074752D01*
X151778914Y-52057985D01*
X151759594Y-52024082D01*
X151730091Y-51976476D01*
X151692545Y-51918599D01*
X151649100Y-51853884D01*
X151636745Y-51835842D01*
X151591727Y-51770267D01*
X151551340Y-51711228D01*
X151517840Y-51662042D01*
X151493486Y-51626028D01*
X151480536Y-51606502D01*
X151479285Y-51604483D01*
X151481156Y-51588922D01*
X151491087Y-51554709D01*
X151507347Y-51506355D01*
X151528205Y-51448371D01*
X151551927Y-51385270D01*
X151576784Y-51321563D01*
X151601042Y-51261761D01*
X151622971Y-51210376D01*
X151640838Y-51171919D01*
X151652913Y-51150902D01*
X151653771Y-51149894D01*
X151661154Y-51143888D01*
X151673625Y-51137948D01*
X151693920Y-51131460D01*
X151724778Y-51123809D01*
X151768934Y-51114380D01*
X151829126Y-51102559D01*
X151908093Y-51087729D01*
X152008570Y-51069277D01*
X152030325Y-51065310D01*
X152094802Y-51052853D01*
X152151011Y-51040666D01*
X152193987Y-51029926D01*
X152218760Y-51021809D01*
X152222082Y-51019916D01*
X152227556Y-51003138D01*
X152232006Y-50965645D01*
X152235428Y-50911794D01*
X152237819Y-50845944D01*
X152239177Y-50772453D01*
X152239499Y-50695680D01*
X152238781Y-50619983D01*
X152237021Y-50549720D01*
X152234216Y-50489250D01*
X152230362Y-50442930D01*
X152225457Y-50415119D01*
X152222500Y-50409427D01*
X152206037Y-50403686D01*
X152168551Y-50394345D01*
X152113775Y-50382215D01*
X152045445Y-50368107D01*
X151967294Y-50352830D01*
X151924716Y-50344823D01*
X151843929Y-50329721D01*
X151771887Y-50316040D01*
X151712111Y-50304467D01*
X151668121Y-50295687D01*
X151643439Y-50290387D01*
X151639377Y-50289212D01*
X151632511Y-50275965D01*
X151617998Y-50244057D01*
X151597771Y-50198047D01*
X151573766Y-50142492D01*
X151547918Y-50081953D01*
X151522160Y-50020986D01*
X151498427Y-49964151D01*
X151478654Y-49916006D01*
X151464776Y-49881110D01*
X151458726Y-49864021D01*
X151458614Y-49863274D01*
X151465472Y-49849793D01*
X151484698Y-49818770D01*
X151514272Y-49773289D01*
X151552173Y-49716432D01*
X151596380Y-49651283D01*
X151622079Y-49613862D01*
X151668907Y-49545247D01*
X151710499Y-49482952D01*
X151744825Y-49430129D01*
X151769857Y-49389927D01*
X151783565Y-49365500D01*
X151785544Y-49360024D01*
X151777034Y-49347278D01*
X151753507Y-49320063D01*
X151717968Y-49281428D01*
X151673423Y-49234423D01*
X151622877Y-49182095D01*
X151569336Y-49127495D01*
X151515805Y-49073670D01*
X151465289Y-49023670D01*
X151420794Y-48980543D01*
X151385325Y-48947339D01*
X151361887Y-48927106D01*
X151354046Y-48922278D01*
X151341280Y-48929067D01*
X151310744Y-48948142D01*
X151265410Y-48977561D01*
X151208244Y-49015381D01*
X151142216Y-49059661D01*
X151092410Y-49093395D01*
X150840764Y-49264512D01*
X150631001Y-49178041D01*
X150421237Y-49091570D01*
X150364389Y-48790018D01*
X150307540Y-48488466D01*
X149679885Y-48488466D01*
X149623036Y-48790018D01*
G36*
X143408759Y-101469184D02*
G01*
X143382247Y-101482282D01*
X143349553Y-101505106D01*
X143325725Y-101529996D01*
X143309406Y-101561249D01*
X143299240Y-101603166D01*
X143293872Y-101660044D01*
X143291944Y-101736184D01*
X143291831Y-101768917D01*
X143292161Y-101840656D01*
X143293527Y-101891927D01*
X143296500Y-101927404D01*
X143301649Y-101951763D01*
X143309543Y-101969680D01*
X143317757Y-101981902D01*
X143370187Y-102033905D01*
X143431930Y-102065184D01*
X143498536Y-102074592D01*
X143565558Y-102060980D01*
X143586792Y-102051354D01*
X143637624Y-102024859D01*
X143637624Y-102440052D01*
X143600525Y-102420868D01*
X143551643Y-102406025D01*
X143491561Y-102402222D01*
X143431564Y-102409243D01*
X143386256Y-102425013D01*
X143348675Y-102455047D01*
X143316564Y-102498024D01*
X143314150Y-102502436D01*
X143303967Y-102523221D01*
X143296530Y-102544170D01*
X143291411Y-102569548D01*
X143288181Y-102603618D01*
X143286413Y-102650641D01*
X143285677Y-102714882D01*
X143285544Y-102787176D01*
X143285544Y-103017822D01*
X143423861Y-103017822D01*
X143423861Y-102592533D01*
X143462549Y-102559979D01*
X143502738Y-102533940D01*
X143540797Y-102529205D01*
X143579066Y-102541389D01*
X143599462Y-102553320D01*
X143614642Y-102570313D01*
X143625438Y-102595995D01*
X143632683Y-102633991D01*
X143637208Y-102687926D01*
X143639844Y-102761425D01*
X143640772Y-102810347D01*
X143643911Y-103011535D01*
X143709926Y-103015336D01*
X143775940Y-103019136D01*
X143775940Y-101770650D01*
X143637624Y-101770650D01*
X143634097Y-101840254D01*
X143622215Y-101888569D01*
X143600020Y-101918631D01*
X143565559Y-101933471D01*
X143530742Y-101936436D01*
X143491329Y-101933028D01*
X143465171Y-101919617D01*
X143448814Y-101901896D01*
X143435937Y-101882835D01*
X143428272Y-101861601D01*
X143424861Y-101831849D01*
X143424749Y-101787236D01*
X143425897Y-101749880D01*
X143428532Y-101693604D01*
X143432456Y-101656658D01*
X143439063Y-101633223D01*
X143449749Y-101617480D01*
X143459833Y-101608380D01*
X143501970Y-101588537D01*
X143551840Y-101585332D01*
X143580476Y-101592168D01*
X143608828Y-101616464D01*
X143627609Y-101663728D01*
X143636712Y-101733624D01*
X143637624Y-101770650D01*
X143775940Y-101770650D01*
X143775940Y-101458614D01*
X143706782Y-101458614D01*
X143665260Y-101460256D01*
X143643838Y-101466087D01*
X143637626Y-101477461D01*
X143637624Y-101477798D01*
X143634742Y-101488938D01*
X143622030Y-101487673D01*
X143596757Y-101475433D01*
X143537869Y-101456707D01*
X143471615Y-101454739D01*
X143408759Y-101469184D01*
G37*
X143408759Y-101469184D02*
X143382247Y-101482282D01*
X143349553Y-101505106D01*
X143325725Y-101529996D01*
X143309406Y-101561249D01*
X143299240Y-101603166D01*
X143293872Y-101660044D01*
X143291944Y-101736184D01*
X143291831Y-101768917D01*
X143292161Y-101840656D01*
X143293527Y-101891927D01*
X143296500Y-101927404D01*
X143301649Y-101951763D01*
X143309543Y-101969680D01*
X143317757Y-101981902D01*
X143370187Y-102033905D01*
X143431930Y-102065184D01*
X143498536Y-102074592D01*
X143565558Y-102060980D01*
X143586792Y-102051354D01*
X143637624Y-102024859D01*
X143637624Y-102440052D01*
X143600525Y-102420868D01*
X143551643Y-102406025D01*
X143491561Y-102402222D01*
X143431564Y-102409243D01*
X143386256Y-102425013D01*
X143348675Y-102455047D01*
X143316564Y-102498024D01*
X143314150Y-102502436D01*
X143303967Y-102523221D01*
X143296530Y-102544170D01*
X143291411Y-102569548D01*
X143288181Y-102603618D01*
X143286413Y-102650641D01*
X143285677Y-102714882D01*
X143285544Y-102787176D01*
X143285544Y-103017822D01*
X143423861Y-103017822D01*
X143423861Y-102592533D01*
X143462549Y-102559979D01*
X143502738Y-102533940D01*
X143540797Y-102529205D01*
X143579066Y-102541389D01*
X143599462Y-102553320D01*
X143614642Y-102570313D01*
X143625438Y-102595995D01*
X143632683Y-102633991D01*
X143637208Y-102687926D01*
X143639844Y-102761425D01*
X143640772Y-102810347D01*
X143643911Y-103011535D01*
X143709926Y-103015336D01*
X143775940Y-103019136D01*
X143775940Y-101770650D01*
X143637624Y-101770650D01*
X143634097Y-101840254D01*
X143622215Y-101888569D01*
X143600020Y-101918631D01*
X143565559Y-101933471D01*
X143530742Y-101936436D01*
X143491329Y-101933028D01*
X143465171Y-101919617D01*
X143448814Y-101901896D01*
X143435937Y-101882835D01*
X143428272Y-101861601D01*
X143424861Y-101831849D01*
X143424749Y-101787236D01*
X143425897Y-101749880D01*
X143428532Y-101693604D01*
X143432456Y-101656658D01*
X143439063Y-101633223D01*
X143449749Y-101617480D01*
X143459833Y-101608380D01*
X143501970Y-101588537D01*
X143551840Y-101585332D01*
X143580476Y-101592168D01*
X143608828Y-101616464D01*
X143627609Y-101663728D01*
X143636712Y-101733624D01*
X143637624Y-101770650D01*
X143775940Y-101770650D01*
X143775940Y-101458614D01*
X143706782Y-101458614D01*
X143665260Y-101460256D01*
X143643838Y-101466087D01*
X143637626Y-101477461D01*
X143637624Y-101477798D01*
X143634742Y-101488938D01*
X143622030Y-101487673D01*
X143596757Y-101475433D01*
X143537869Y-101456707D01*
X143471615Y-101454739D01*
X143408759Y-101469184D01*
G36*
X142884210Y-102406555D02*
G01*
X142825055Y-102422339D01*
X142780023Y-102450948D01*
X142748246Y-102488419D01*
X142738366Y-102504411D01*
X142731073Y-102521163D01*
X142725974Y-102542592D01*
X142722679Y-102572616D01*
X142720797Y-102615154D01*
X142719937Y-102674122D01*
X142719707Y-102753440D01*
X142719703Y-102774484D01*
X142719703Y-103017822D01*
X142780059Y-103017822D01*
X142818557Y-103015126D01*
X142847023Y-103008295D01*
X142854155Y-103004083D01*
X142873652Y-102996813D01*
X142893566Y-103004083D01*
X142926353Y-103013160D01*
X142973978Y-103016813D01*
X143026764Y-103015228D01*
X143075036Y-103008589D01*
X143103218Y-103000072D01*
X143157753Y-102965063D01*
X143191835Y-102916479D01*
X143207157Y-102851882D01*
X143207299Y-102850223D01*
X143205955Y-102821566D01*
X143084356Y-102821566D01*
X143073726Y-102854161D01*
X143056410Y-102872505D01*
X143021652Y-102886379D01*
X142975773Y-102891917D01*
X142928988Y-102889191D01*
X142891514Y-102878274D01*
X142881015Y-102871269D01*
X142862668Y-102838904D01*
X142858020Y-102802111D01*
X142858020Y-102753763D01*
X142927582Y-102753763D01*
X142993667Y-102758850D01*
X143043764Y-102773263D01*
X143074929Y-102795729D01*
X143084356Y-102821566D01*
X143205955Y-102821566D01*
X143203987Y-102779647D01*
X143180710Y-102723845D01*
X143136948Y-102681647D01*
X143130899Y-102677808D01*
X143104907Y-102665309D01*
X143072735Y-102657740D01*
X143027760Y-102654061D01*
X142974331Y-102653216D01*
X142858020Y-102653169D01*
X142858020Y-102604411D01*
X142862953Y-102566581D01*
X142875543Y-102541236D01*
X142877017Y-102539887D01*
X142905034Y-102528800D01*
X142947326Y-102524503D01*
X142994064Y-102526615D01*
X143035418Y-102534756D01*
X143059957Y-102546965D01*
X143073253Y-102556746D01*
X143087294Y-102558613D01*
X143106671Y-102550600D01*
X143135976Y-102530739D01*
X143179803Y-102497063D01*
X143183825Y-102493909D01*
X143181764Y-102482236D01*
X143164568Y-102462822D01*
X143138433Y-102441248D01*
X143109552Y-102423096D01*
X143100478Y-102418809D01*
X143067380Y-102410256D01*
X143018880Y-102404155D01*
X142964695Y-102401708D01*
X142962161Y-102401703D01*
X142884210Y-102406555D01*
G37*
X142884210Y-102406555D02*
X142825055Y-102422339D01*
X142780023Y-102450948D01*
X142748246Y-102488419D01*
X142738366Y-102504411D01*
X142731073Y-102521163D01*
X142725974Y-102542592D01*
X142722679Y-102572616D01*
X142720797Y-102615154D01*
X142719937Y-102674122D01*
X142719707Y-102753440D01*
X142719703Y-102774484D01*
X142719703Y-103017822D01*
X142780059Y-103017822D01*
X142818557Y-103015126D01*
X142847023Y-103008295D01*
X142854155Y-103004083D01*
X142873652Y-102996813D01*
X142893566Y-103004083D01*
X142926353Y-103013160D01*
X142973978Y-103016813D01*
X143026764Y-103015228D01*
X143075036Y-103008589D01*
X143103218Y-103000072D01*
X143157753Y-102965063D01*
X143191835Y-102916479D01*
X143207157Y-102851882D01*
X143207299Y-102850223D01*
X143205955Y-102821566D01*
X143084356Y-102821566D01*
X143073726Y-102854161D01*
X143056410Y-102872505D01*
X143021652Y-102886379D01*
X142975773Y-102891917D01*
X142928988Y-102889191D01*
X142891514Y-102878274D01*
X142881015Y-102871269D01*
X142862668Y-102838904D01*
X142858020Y-102802111D01*
X142858020Y-102753763D01*
X142927582Y-102753763D01*
X142993667Y-102758850D01*
X143043764Y-102773263D01*
X143074929Y-102795729D01*
X143084356Y-102821566D01*
X143205955Y-102821566D01*
X143203987Y-102779647D01*
X143180710Y-102723845D01*
X143136948Y-102681647D01*
X143130899Y-102677808D01*
X143104907Y-102665309D01*
X143072735Y-102657740D01*
X143027760Y-102654061D01*
X142974331Y-102653216D01*
X142858020Y-102653169D01*
X142858020Y-102604411D01*
X142862953Y-102566581D01*
X142875543Y-102541236D01*
X142877017Y-102539887D01*
X142905034Y-102528800D01*
X142947326Y-102524503D01*
X142994064Y-102526615D01*
X143035418Y-102534756D01*
X143059957Y-102546965D01*
X143073253Y-102556746D01*
X143087294Y-102558613D01*
X143106671Y-102550600D01*
X143135976Y-102530739D01*
X143179803Y-102497063D01*
X143183825Y-102493909D01*
X143181764Y-102482236D01*
X143164568Y-102462822D01*
X143138433Y-102441248D01*
X143109552Y-102423096D01*
X143100478Y-102418809D01*
X143067380Y-102410256D01*
X143018880Y-102404155D01*
X142964695Y-102401708D01*
X142962161Y-102401703D01*
X142884210Y-102406555D01*
G36*
X142493356Y-102403020D02*
G01*
X142474539Y-102408660D01*
X142468473Y-102421053D01*
X142468218Y-102426647D01*
X142467129Y-102442230D01*
X142459632Y-102444676D01*
X142439381Y-102433993D01*
X142427351Y-102426694D01*
X142389400Y-102411063D01*
X142344072Y-102403334D01*
X142296544Y-102402740D01*
X142251995Y-102408513D01*
X142215602Y-102419884D01*
X142192543Y-102436088D01*
X142187996Y-102456355D01*
X142190291Y-102461843D01*
X142207020Y-102484626D01*
X142232963Y-102512647D01*
X142237655Y-102517177D01*
X142262383Y-102538005D01*
X142283718Y-102544735D01*
X142313555Y-102540038D01*
X142325508Y-102536917D01*
X142362705Y-102529421D01*
X142388859Y-102532792D01*
X142410946Y-102544681D01*
X142431178Y-102560635D01*
X142446079Y-102580700D01*
X142456434Y-102608702D01*
X142463029Y-102648467D01*
X142466649Y-102703823D01*
X142468078Y-102778594D01*
X142468218Y-102823740D01*
X142468218Y-103017822D01*
X142593960Y-103017822D01*
X142593960Y-102401683D01*
X142531089Y-102401683D01*
X142493356Y-102403020D01*
G37*
X142493356Y-102403020D02*
X142474539Y-102408660D01*
X142468473Y-102421053D01*
X142468218Y-102426647D01*
X142467129Y-102442230D01*
X142459632Y-102444676D01*
X142439381Y-102433993D01*
X142427351Y-102426694D01*
X142389400Y-102411063D01*
X142344072Y-102403334D01*
X142296544Y-102402740D01*
X142251995Y-102408513D01*
X142215602Y-102419884D01*
X142192543Y-102436088D01*
X142187996Y-102456355D01*
X142190291Y-102461843D01*
X142207020Y-102484626D01*
X142232963Y-102512647D01*
X142237655Y-102517177D01*
X142262383Y-102538005D01*
X142283718Y-102544735D01*
X142313555Y-102540038D01*
X142325508Y-102536917D01*
X142362705Y-102529421D01*
X142388859Y-102532792D01*
X142410946Y-102544681D01*
X142431178Y-102560635D01*
X142446079Y-102580700D01*
X142456434Y-102608702D01*
X142463029Y-102648467D01*
X142466649Y-102703823D01*
X142468078Y-102778594D01*
X142468218Y-102823740D01*
X142468218Y-103017822D01*
X142593960Y-103017822D01*
X142593960Y-102401683D01*
X142531089Y-102401683D01*
X142493356Y-102403020D01*
G36*
X141701188Y-103017822D02*
G01*
X141770346Y-103017822D01*
X141810488Y-103016645D01*
X141831394Y-103011772D01*
X141838922Y-103001186D01*
X141839505Y-102994029D01*
X141840774Y-102979676D01*
X141848779Y-102976923D01*
X141869815Y-102985771D01*
X141886173Y-102994029D01*
X141948977Y-103013597D01*
X142017248Y-103014729D01*
X142072752Y-103000135D01*
X142124438Y-102964877D01*
X142163838Y-102912835D01*
X142185413Y-102851450D01*
X142185962Y-102848018D01*
X142189167Y-102810571D01*
X142190761Y-102756813D01*
X142190633Y-102716155D01*
X142053279Y-102716155D01*
X142050097Y-102770194D01*
X142042859Y-102814735D01*
X142033060Y-102839888D01*
X141995989Y-102874260D01*
X141951974Y-102886582D01*
X141906584Y-102876618D01*
X141867797Y-102846895D01*
X141853108Y-102826905D01*
X141844519Y-102803050D01*
X141840496Y-102768230D01*
X141839505Y-102715930D01*
X141841278Y-102664139D01*
X141845963Y-102618634D01*
X141852603Y-102588181D01*
X141853710Y-102585452D01*
X141880491Y-102553000D01*
X141919579Y-102535183D01*
X141963315Y-102532306D01*
X142004038Y-102544674D01*
X142034087Y-102572593D01*
X142037204Y-102578148D01*
X142046961Y-102612022D01*
X142052277Y-102660728D01*
X142053279Y-102716155D01*
X142190633Y-102716155D01*
X142190568Y-102695540D01*
X142189664Y-102662563D01*
X142183514Y-102580981D01*
X142170733Y-102519730D01*
X142149471Y-102474449D01*
X142117878Y-102440779D01*
X142087207Y-102421014D01*
X142044354Y-102407120D01*
X141991056Y-102402354D01*
X141936480Y-102406236D01*
X141889792Y-102418282D01*
X141865124Y-102432693D01*
X141839505Y-102455878D01*
X141839505Y-102162773D01*
X141701188Y-102162773D01*
X141701188Y-103017822D01*
G37*
X141701188Y-103017822D02*
X141770346Y-103017822D01*
X141810488Y-103016645D01*
X141831394Y-103011772D01*
X141838922Y-103001186D01*
X141839505Y-102994029D01*
X141840774Y-102979676D01*
X141848779Y-102976923D01*
X141869815Y-102985771D01*
X141886173Y-102994029D01*
X141948977Y-103013597D01*
X142017248Y-103014729D01*
X142072752Y-103000135D01*
X142124438Y-102964877D01*
X142163838Y-102912835D01*
X142185413Y-102851450D01*
X142185962Y-102848018D01*
X142189167Y-102810571D01*
X142190761Y-102756813D01*
X142190633Y-102716155D01*
X142053279Y-102716155D01*
X142050097Y-102770194D01*
X142042859Y-102814735D01*
X142033060Y-102839888D01*
X141995989Y-102874260D01*
X141951974Y-102886582D01*
X141906584Y-102876618D01*
X141867797Y-102846895D01*
X141853108Y-102826905D01*
X141844519Y-102803050D01*
X141840496Y-102768230D01*
X141839505Y-102715930D01*
X141841278Y-102664139D01*
X141845963Y-102618634D01*
X141852603Y-102588181D01*
X141853710Y-102585452D01*
X141880491Y-102553000D01*
X141919579Y-102535183D01*
X141963315Y-102532306D01*
X142004038Y-102544674D01*
X142034087Y-102572593D01*
X142037204Y-102578148D01*
X142046961Y-102612022D01*
X142052277Y-102660728D01*
X142053279Y-102716155D01*
X142190633Y-102716155D01*
X142190568Y-102695540D01*
X142189664Y-102662563D01*
X142183514Y-102580981D01*
X142170733Y-102519730D01*
X142149471Y-102474449D01*
X142117878Y-102440779D01*
X142087207Y-102421014D01*
X142044354Y-102407120D01*
X141991056Y-102402354D01*
X141936480Y-102406236D01*
X141889792Y-102418282D01*
X141865124Y-102432693D01*
X141839505Y-102455878D01*
X141839505Y-102162773D01*
X141701188Y-102162773D01*
X141701188Y-103017822D01*
G36*
X141218476Y-102404237D02*
G01*
X141168745Y-102407971D01*
X141038709Y-102797773D01*
X141018322Y-102728614D01*
X141006054Y-102685874D01*
X140989915Y-102628115D01*
X140972488Y-102564625D01*
X140963274Y-102530570D01*
X140928612Y-102401683D01*
X140785609Y-102401683D01*
X140828354Y-102536857D01*
X140849404Y-102603342D01*
X140874833Y-102683539D01*
X140901390Y-102767193D01*
X140925098Y-102841782D01*
X140979098Y-103011535D01*
X141037402Y-103015328D01*
X141095705Y-103019122D01*
X141127321Y-102914734D01*
X141146818Y-102849889D01*
X141168096Y-102778400D01*
X141186692Y-102715263D01*
X141187426Y-102712750D01*
X141201316Y-102669969D01*
X141213571Y-102640779D01*
X141222154Y-102629741D01*
X141223918Y-102631018D01*
X141230109Y-102648130D01*
X141241872Y-102684787D01*
X141257775Y-102736378D01*
X141276386Y-102798294D01*
X141286457Y-102832352D01*
X141340993Y-103017822D01*
X141456736Y-103017822D01*
X141549263Y-102725471D01*
X141575256Y-102643462D01*
X141598934Y-102568987D01*
X141619180Y-102505544D01*
X141634874Y-102456632D01*
X141644898Y-102425749D01*
X141647945Y-102416726D01*
X141645533Y-102407487D01*
X141626592Y-102403441D01*
X141587177Y-102403846D01*
X141581007Y-102404152D01*
X141507914Y-102407971D01*
X141460043Y-102584010D01*
X141442447Y-102648211D01*
X141426723Y-102704649D01*
X141414254Y-102748422D01*
X141406426Y-102774630D01*
X141404980Y-102778903D01*
X141398986Y-102773990D01*
X141386899Y-102748532D01*
X141370107Y-102705997D01*
X141349997Y-102649850D01*
X141332997Y-102599130D01*
X141268206Y-102400504D01*
X141218476Y-102404237D01*
G37*
X141218476Y-102404237D02*
X141168745Y-102407971D01*
X141038709Y-102797773D01*
X141018322Y-102728614D01*
X141006054Y-102685874D01*
X140989915Y-102628115D01*
X140972488Y-102564625D01*
X140963274Y-102530570D01*
X140928612Y-102401683D01*
X140785609Y-102401683D01*
X140828354Y-102536857D01*
X140849404Y-102603342D01*
X140874833Y-102683539D01*
X140901390Y-102767193D01*
X140925098Y-102841782D01*
X140979098Y-103011535D01*
X141037402Y-103015328D01*
X141095705Y-103019122D01*
X141127321Y-102914734D01*
X141146818Y-102849889D01*
X141168096Y-102778400D01*
X141186692Y-102715263D01*
X141187426Y-102712750D01*
X141201316Y-102669969D01*
X141213571Y-102640779D01*
X141222154Y-102629741D01*
X141223918Y-102631018D01*
X141230109Y-102648130D01*
X141241872Y-102684787D01*
X141257775Y-102736378D01*
X141276386Y-102798294D01*
X141286457Y-102832352D01*
X141340993Y-103017822D01*
X141456736Y-103017822D01*
X141549263Y-102725471D01*
X141575256Y-102643462D01*
X141598934Y-102568987D01*
X141619180Y-102505544D01*
X141634874Y-102456632D01*
X141644898Y-102425749D01*
X141647945Y-102416726D01*
X141645533Y-102407487D01*
X141626592Y-102403441D01*
X141587177Y-102403846D01*
X141581007Y-102404152D01*
X141507914Y-102407971D01*
X141460043Y-102584010D01*
X141442447Y-102648211D01*
X141426723Y-102704649D01*
X141414254Y-102748422D01*
X141406426Y-102774630D01*
X141404980Y-102778903D01*
X141398986Y-102773990D01*
X141386899Y-102748532D01*
X141370107Y-102705997D01*
X141349997Y-102649850D01*
X141332997Y-102599130D01*
X141268206Y-102400504D01*
X141218476Y-102404237D01*
G36*
X140461589Y-102405417D02*
G01*
X140408589Y-102418290D01*
X140393269Y-102425110D01*
X140363572Y-102442974D01*
X140340780Y-102463093D01*
X140323917Y-102488962D01*
X140312002Y-102524073D01*
X140304058Y-102571920D01*
X140299106Y-102635996D01*
X140296169Y-102719794D01*
X140295053Y-102775768D01*
X140290948Y-103017822D01*
X140361068Y-103017822D01*
X140403607Y-103016038D01*
X140425524Y-103009942D01*
X140431188Y-102999706D01*
X140434179Y-102988637D01*
X140447549Y-102990754D01*
X140465767Y-102999629D01*
X140511376Y-103013233D01*
X140569993Y-103016899D01*
X140631646Y-103010903D01*
X140686362Y-102995521D01*
X140691270Y-102993386D01*
X140741277Y-102958255D01*
X140774244Y-102909419D01*
X140789413Y-102852333D01*
X140788254Y-102831824D01*
X140664492Y-102831824D01*
X140653587Y-102859425D01*
X140621255Y-102879204D01*
X140569090Y-102889819D01*
X140541213Y-102891228D01*
X140494753Y-102887620D01*
X140463871Y-102873597D01*
X140456336Y-102866931D01*
X140435924Y-102830666D01*
X140431188Y-102797773D01*
X140431188Y-102753763D01*
X140492487Y-102753763D01*
X140563744Y-102757395D01*
X140613724Y-102768818D01*
X140645304Y-102788824D01*
X140652374Y-102797743D01*
X140664492Y-102831824D01*
X140788254Y-102831824D01*
X140786029Y-102792456D01*
X140763337Y-102735244D01*
X140732376Y-102696580D01*
X140713624Y-102679864D01*
X140695267Y-102668878D01*
X140671381Y-102662180D01*
X140636043Y-102658326D01*
X140583331Y-102655873D01*
X140562423Y-102655168D01*
X140431188Y-102650879D01*
X140431380Y-102611158D01*
X140436463Y-102569405D01*
X140454838Y-102544158D01*
X140491961Y-102528030D01*
X140492957Y-102527742D01*
X140545590Y-102521400D01*
X140597094Y-102529684D01*
X140635370Y-102549827D01*
X140650728Y-102559773D01*
X140667270Y-102558397D01*
X140692725Y-102543987D01*
X140707672Y-102533817D01*
X140736909Y-102512088D01*
X140755020Y-102495800D01*
X140757926Y-102491137D01*
X140745960Y-102467005D01*
X140710604Y-102438185D01*
X140695247Y-102428461D01*
X140651099Y-102411714D01*
X140591602Y-102402227D01*
X140525513Y-102400095D01*
X140461589Y-102405417D01*
G37*
X140461589Y-102405417D02*
X140408589Y-102418290D01*
X140393269Y-102425110D01*
X140363572Y-102442974D01*
X140340780Y-102463093D01*
X140323917Y-102488962D01*
X140312002Y-102524073D01*
X140304058Y-102571920D01*
X140299106Y-102635996D01*
X140296169Y-102719794D01*
X140295053Y-102775768D01*
X140290948Y-103017822D01*
X140361068Y-103017822D01*
X140403607Y-103016038D01*
X140425524Y-103009942D01*
X140431188Y-102999706D01*
X140434179Y-102988637D01*
X140447549Y-102990754D01*
X140465767Y-102999629D01*
X140511376Y-103013233D01*
X140569993Y-103016899D01*
X140631646Y-103010903D01*
X140686362Y-102995521D01*
X140691270Y-102993386D01*
X140741277Y-102958255D01*
X140774244Y-102909419D01*
X140789413Y-102852333D01*
X140788254Y-102831824D01*
X140664492Y-102831824D01*
X140653587Y-102859425D01*
X140621255Y-102879204D01*
X140569090Y-102889819D01*
X140541213Y-102891228D01*
X140494753Y-102887620D01*
X140463871Y-102873597D01*
X140456336Y-102866931D01*
X140435924Y-102830666D01*
X140431188Y-102797773D01*
X140431188Y-102753763D01*
X140492487Y-102753763D01*
X140563744Y-102757395D01*
X140613724Y-102768818D01*
X140645304Y-102788824D01*
X140652374Y-102797743D01*
X140664492Y-102831824D01*
X140788254Y-102831824D01*
X140786029Y-102792456D01*
X140763337Y-102735244D01*
X140732376Y-102696580D01*
X140713624Y-102679864D01*
X140695267Y-102668878D01*
X140671381Y-102662180D01*
X140636043Y-102658326D01*
X140583331Y-102655873D01*
X140562423Y-102655168D01*
X140431188Y-102650879D01*
X140431380Y-102611158D01*
X140436463Y-102569405D01*
X140454838Y-102544158D01*
X140491961Y-102528030D01*
X140492957Y-102527742D01*
X140545590Y-102521400D01*
X140597094Y-102529684D01*
X140635370Y-102549827D01*
X140650728Y-102559773D01*
X140667270Y-102558397D01*
X140692725Y-102543987D01*
X140707672Y-102533817D01*
X140736909Y-102512088D01*
X140755020Y-102495800D01*
X140757926Y-102491137D01*
X140745960Y-102467005D01*
X140710604Y-102438185D01*
X140695247Y-102428461D01*
X140651099Y-102411714D01*
X140591602Y-102402227D01*
X140525513Y-102400095D01*
X140461589Y-102405417D01*
G36*
X139864745Y-102401486D02*
G01*
X139816405Y-102411015D01*
X139788886Y-102425125D01*
X139759936Y-102448568D01*
X139801124Y-102500571D01*
X139826518Y-102532064D01*
X139843762Y-102547428D01*
X139860898Y-102549776D01*
X139885973Y-102542217D01*
X139897743Y-102537941D01*
X139945730Y-102531631D01*
X139989676Y-102545156D01*
X140021940Y-102575710D01*
X140027181Y-102585452D01*
X140032888Y-102611258D01*
X140037294Y-102658817D01*
X140040189Y-102724758D01*
X140041369Y-102805710D01*
X140041386Y-102817226D01*
X140041386Y-103017822D01*
X140179703Y-103017822D01*
X140179703Y-102401683D01*
X140110544Y-102401683D01*
X140070667Y-102402725D01*
X140049893Y-102407358D01*
X140042211Y-102417849D01*
X140041386Y-102427745D01*
X140041386Y-102453806D01*
X140008255Y-102427745D01*
X139970265Y-102409965D01*
X139919230Y-102401174D01*
X139864745Y-102401486D01*
G37*
X139864745Y-102401486D02*
X139816405Y-102411015D01*
X139788886Y-102425125D01*
X139759936Y-102448568D01*
X139801124Y-102500571D01*
X139826518Y-102532064D01*
X139843762Y-102547428D01*
X139860898Y-102549776D01*
X139885973Y-102542217D01*
X139897743Y-102537941D01*
X139945730Y-102531631D01*
X139989676Y-102545156D01*
X140021940Y-102575710D01*
X140027181Y-102585452D01*
X140032888Y-102611258D01*
X140037294Y-102658817D01*
X140040189Y-102724758D01*
X140041369Y-102805710D01*
X140041386Y-102817226D01*
X140041386Y-103017822D01*
X140179703Y-103017822D01*
X140179703Y-102401683D01*
X140110544Y-102401683D01*
X140070667Y-102402725D01*
X140049893Y-102407358D01*
X140042211Y-102417849D01*
X140041386Y-102427745D01*
X140041386Y-102453806D01*
X140008255Y-102427745D01*
X139970265Y-102409965D01*
X139919230Y-102401174D01*
X139864745Y-102401486D01*
G36*
X139467419Y-102404970D02*
G01*
X139407315Y-102420597D01*
X139356979Y-102452848D01*
X139332607Y-102476940D01*
X139292655Y-102533895D01*
X139269758Y-102599965D01*
X139261892Y-102681182D01*
X139261852Y-102687748D01*
X139261782Y-102753763D01*
X139641736Y-102753763D01*
X139633637Y-102788342D01*
X139619013Y-102819659D01*
X139593419Y-102852291D01*
X139588065Y-102857500D01*
X139542057Y-102885694D01*
X139489590Y-102890475D01*
X139429197Y-102871926D01*
X139418960Y-102866931D01*
X139387561Y-102851745D01*
X139366530Y-102843094D01*
X139362861Y-102842293D01*
X139350052Y-102850063D01*
X139325622Y-102869072D01*
X139313221Y-102879460D01*
X139287524Y-102903321D01*
X139279085Y-102919077D01*
X139284942Y-102933571D01*
X139288072Y-102937534D01*
X139309275Y-102954879D01*
X139344262Y-102975959D01*
X139368663Y-102988265D01*
X139437928Y-103009946D01*
X139514612Y-103016971D01*
X139587235Y-103008647D01*
X139607574Y-103002686D01*
X139670524Y-102968952D01*
X139717185Y-102917045D01*
X139747827Y-102846459D01*
X139762718Y-102756692D01*
X139764353Y-102709753D01*
X139759579Y-102641413D01*
X139639010Y-102641413D01*
X139627348Y-102646465D01*
X139596002Y-102650429D01*
X139550429Y-102652768D01*
X139519554Y-102653169D01*
X139464019Y-102652783D01*
X139428967Y-102650975D01*
X139409738Y-102646773D01*
X139401670Y-102639203D01*
X139400099Y-102628218D01*
X139410879Y-102594381D01*
X139438020Y-102560940D01*
X139473723Y-102535272D01*
X139509440Y-102524772D01*
X139557952Y-102534086D01*
X139599947Y-102561013D01*
X139629064Y-102599827D01*
X139639010Y-102641413D01*
X139759579Y-102641413D01*
X139757401Y-102610236D01*
X139735945Y-102530949D01*
X139699530Y-102471263D01*
X139647703Y-102430549D01*
X139580010Y-102408179D01*
X139543338Y-102403871D01*
X139467419Y-102404970D01*
G37*
X139467419Y-102404970D02*
X139407315Y-102420597D01*
X139356979Y-102452848D01*
X139332607Y-102476940D01*
X139292655Y-102533895D01*
X139269758Y-102599965D01*
X139261892Y-102681182D01*
X139261852Y-102687748D01*
X139261782Y-102753763D01*
X139641736Y-102753763D01*
X139633637Y-102788342D01*
X139619013Y-102819659D01*
X139593419Y-102852291D01*
X139588065Y-102857500D01*
X139542057Y-102885694D01*
X139489590Y-102890475D01*
X139429197Y-102871926D01*
X139418960Y-102866931D01*
X139387561Y-102851745D01*
X139366530Y-102843094D01*
X139362861Y-102842293D01*
X139350052Y-102850063D01*
X139325622Y-102869072D01*
X139313221Y-102879460D01*
X139287524Y-102903321D01*
X139279085Y-102919077D01*
X139284942Y-102933571D01*
X139288072Y-102937534D01*
X139309275Y-102954879D01*
X139344262Y-102975959D01*
X139368663Y-102988265D01*
X139437928Y-103009946D01*
X139514612Y-103016971D01*
X139587235Y-103008647D01*
X139607574Y-103002686D01*
X139670524Y-102968952D01*
X139717185Y-102917045D01*
X139747827Y-102846459D01*
X139762718Y-102756692D01*
X139764353Y-102709753D01*
X139759579Y-102641413D01*
X139639010Y-102641413D01*
X139627348Y-102646465D01*
X139596002Y-102650429D01*
X139550429Y-102652768D01*
X139519554Y-102653169D01*
X139464019Y-102652783D01*
X139428967Y-102650975D01*
X139409738Y-102646773D01*
X139401670Y-102639203D01*
X139400099Y-102628218D01*
X139410879Y-102594381D01*
X139438020Y-102560940D01*
X139473723Y-102535272D01*
X139509440Y-102524772D01*
X139557952Y-102534086D01*
X139599947Y-102561013D01*
X139629064Y-102599827D01*
X139639010Y-102641413D01*
X139759579Y-102641413D01*
X139757401Y-102610236D01*
X139735945Y-102530949D01*
X139699530Y-102471263D01*
X139647703Y-102430549D01*
X139580010Y-102408179D01*
X139543338Y-102403871D01*
X139467419Y-102404970D01*
G36*
X144038261Y-101465148D02*
G01*
X143972479Y-101494231D01*
X143922540Y-101542793D01*
X143888374Y-101610908D01*
X143869907Y-101698651D01*
X143868583Y-101712351D01*
X143867546Y-101808939D01*
X143880993Y-101893602D01*
X143908108Y-101962221D01*
X143922627Y-101984294D01*
X143973201Y-102031011D01*
X144037609Y-102061268D01*
X144109666Y-102073824D01*
X144183185Y-102067439D01*
X144239072Y-102047772D01*
X144287132Y-102014629D01*
X144326412Y-101971175D01*
X144327092Y-101970158D01*
X144343044Y-101943338D01*
X144353410Y-101916368D01*
X144359688Y-101882332D01*
X144363373Y-101834310D01*
X144364997Y-101794931D01*
X144365672Y-101759219D01*
X144239955Y-101759219D01*
X144238726Y-101794770D01*
X144234266Y-101842094D01*
X144226397Y-101872465D01*
X144212207Y-101894072D01*
X144198917Y-101906694D01*
X144151802Y-101933122D01*
X144102505Y-101936653D01*
X144056593Y-101917639D01*
X144033638Y-101896331D01*
X144017096Y-101874859D01*
X144007421Y-101854313D01*
X144003174Y-101827574D01*
X144002920Y-101787523D01*
X144004228Y-101750638D01*
X144007043Y-101697947D01*
X144011505Y-101663772D01*
X144019548Y-101641480D01*
X144033103Y-101624442D01*
X144043845Y-101614703D01*
X144088777Y-101589123D01*
X144137249Y-101587847D01*
X144177894Y-101602999D01*
X144212567Y-101634642D01*
X144233224Y-101686620D01*
X144239955Y-101759219D01*
X144365672Y-101759219D01*
X144366479Y-101716621D01*
X144363948Y-101658056D01*
X144356362Y-101614007D01*
X144342681Y-101579248D01*
X144321865Y-101548551D01*
X144314147Y-101539436D01*
X144265889Y-101494021D01*
X144214128Y-101467493D01*
X144150828Y-101456379D01*
X144119961Y-101455471D01*
X144038261Y-101465148D01*
G37*
X144038261Y-101465148D02*
X143972479Y-101494231D01*
X143922540Y-101542793D01*
X143888374Y-101610908D01*
X143869907Y-101698651D01*
X143868583Y-101712351D01*
X143867546Y-101808939D01*
X143880993Y-101893602D01*
X143908108Y-101962221D01*
X143922627Y-101984294D01*
X143973201Y-102031011D01*
X144037609Y-102061268D01*
X144109666Y-102073824D01*
X144183185Y-102067439D01*
X144239072Y-102047772D01*
X144287132Y-102014629D01*
X144326412Y-101971175D01*
X144327092Y-101970158D01*
X144343044Y-101943338D01*
X144353410Y-101916368D01*
X144359688Y-101882332D01*
X144363373Y-101834310D01*
X144364997Y-101794931D01*
X144365672Y-101759219D01*
X144239955Y-101759219D01*
X144238726Y-101794770D01*
X144234266Y-101842094D01*
X144226397Y-101872465D01*
X144212207Y-101894072D01*
X144198917Y-101906694D01*
X144151802Y-101933122D01*
X144102505Y-101936653D01*
X144056593Y-101917639D01*
X144033638Y-101896331D01*
X144017096Y-101874859D01*
X144007421Y-101854313D01*
X144003174Y-101827574D01*
X144002920Y-101787523D01*
X144004228Y-101750638D01*
X144007043Y-101697947D01*
X144011505Y-101663772D01*
X144019548Y-101641480D01*
X144033103Y-101624442D01*
X144043845Y-101614703D01*
X144088777Y-101589123D01*
X144137249Y-101587847D01*
X144177894Y-101602999D01*
X144212567Y-101634642D01*
X144233224Y-101686620D01*
X144239955Y-101759219D01*
X144365672Y-101759219D01*
X144366479Y-101716621D01*
X144363948Y-101658056D01*
X144356362Y-101614007D01*
X144342681Y-101579248D01*
X144321865Y-101548551D01*
X144314147Y-101539436D01*
X144265889Y-101494021D01*
X144214128Y-101467493D01*
X144150828Y-101456379D01*
X144119961Y-101455471D01*
X144038261Y-101465148D01*
G36*
X142856699Y-101472614D02*
G01*
X142844168Y-101478514D01*
X142800799Y-101510283D01*
X142759790Y-101556646D01*
X142729168Y-101607696D01*
X142720459Y-101631166D01*
X142712512Y-101673091D01*
X142707774Y-101723757D01*
X142707199Y-101744679D01*
X142707129Y-101810693D01*
X143087083Y-101810693D01*
X143078983Y-101845273D01*
X143059104Y-101886170D01*
X143024347Y-101921514D01*
X142982998Y-101944282D01*
X142956649Y-101949010D01*
X142920916Y-101943273D01*
X142878282Y-101928882D01*
X142863799Y-101922262D01*
X142810240Y-101895513D01*
X142764533Y-101930376D01*
X142738158Y-101953955D01*
X142724124Y-101973417D01*
X142723414Y-101979129D01*
X142735951Y-101992973D01*
X142763428Y-102014012D01*
X142788366Y-102030425D01*
X142855664Y-102059930D01*
X142931110Y-102073284D01*
X143005888Y-102069812D01*
X143065495Y-102051663D01*
X143126941Y-102012784D01*
X143170608Y-101961595D01*
X143197926Y-101895367D01*
X143210322Y-101811371D01*
X143211421Y-101772936D01*
X143207022Y-101684861D01*
X143206482Y-101682299D01*
X143080582Y-101682299D01*
X143077115Y-101690558D01*
X143062863Y-101695113D01*
X143033470Y-101697065D01*
X142984575Y-101697517D01*
X142965748Y-101697525D01*
X142908467Y-101696843D01*
X142872141Y-101694364D01*
X142852604Y-101689443D01*
X142845690Y-101681434D01*
X142845445Y-101678862D01*
X142853336Y-101658423D01*
X142873085Y-101629789D01*
X142881575Y-101619763D01*
X142913094Y-101591408D01*
X142945949Y-101580259D01*
X142963651Y-101579327D01*
X143011539Y-101590981D01*
X143051699Y-101622285D01*
X143077173Y-101667752D01*
X143077625Y-101669233D01*
X143080582Y-101682299D01*
X143206482Y-101682299D01*
X143192392Y-101615510D01*
X143166038Y-101560025D01*
X143133807Y-101520639D01*
X143074217Y-101477931D01*
X143004168Y-101455109D01*
X142929661Y-101453046D01*
X142856699Y-101472614D01*
G37*
X142856699Y-101472614D02*
X142844168Y-101478514D01*
X142800799Y-101510283D01*
X142759790Y-101556646D01*
X142729168Y-101607696D01*
X142720459Y-101631166D01*
X142712512Y-101673091D01*
X142707774Y-101723757D01*
X142707199Y-101744679D01*
X142707129Y-101810693D01*
X143087083Y-101810693D01*
X143078983Y-101845273D01*
X143059104Y-101886170D01*
X143024347Y-101921514D01*
X142982998Y-101944282D01*
X142956649Y-101949010D01*
X142920916Y-101943273D01*
X142878282Y-101928882D01*
X142863799Y-101922262D01*
X142810240Y-101895513D01*
X142764533Y-101930376D01*
X142738158Y-101953955D01*
X142724124Y-101973417D01*
X142723414Y-101979129D01*
X142735951Y-101992973D01*
X142763428Y-102014012D01*
X142788366Y-102030425D01*
X142855664Y-102059930D01*
X142931110Y-102073284D01*
X143005888Y-102069812D01*
X143065495Y-102051663D01*
X143126941Y-102012784D01*
X143170608Y-101961595D01*
X143197926Y-101895367D01*
X143210322Y-101811371D01*
X143211421Y-101772936D01*
X143207022Y-101684861D01*
X143206482Y-101682299D01*
X143080582Y-101682299D01*
X143077115Y-101690558D01*
X143062863Y-101695113D01*
X143033470Y-101697065D01*
X142984575Y-101697517D01*
X142965748Y-101697525D01*
X142908467Y-101696843D01*
X142872141Y-101694364D01*
X142852604Y-101689443D01*
X142845690Y-101681434D01*
X142845445Y-101678862D01*
X142853336Y-101658423D01*
X142873085Y-101629789D01*
X142881575Y-101619763D01*
X142913094Y-101591408D01*
X142945949Y-101580259D01*
X142963651Y-101579327D01*
X143011539Y-101590981D01*
X143051699Y-101622285D01*
X143077173Y-101667752D01*
X143077625Y-101669233D01*
X143080582Y-101682299D01*
X143206482Y-101682299D01*
X143192392Y-101615510D01*
X143166038Y-101560025D01*
X143133807Y-101520639D01*
X143074217Y-101477931D01*
X143004168Y-101455109D01*
X142929661Y-101453046D01*
X142856699Y-101472614D01*
G36*
X141485983Y-101456452D02*
G01*
X141438366Y-101465482D01*
X141388966Y-101484370D01*
X141383688Y-101486777D01*
X141346226Y-101506476D01*
X141320283Y-101524781D01*
X141311897Y-101536508D01*
X141319883Y-101555632D01*
X141339280Y-101583850D01*
X141347890Y-101594384D01*
X141383372Y-101635847D01*
X141429115Y-101608858D01*
X141472650Y-101590878D01*
X141522950Y-101581267D01*
X141571188Y-101580660D01*
X141608533Y-101589691D01*
X141617495Y-101595327D01*
X141634563Y-101621171D01*
X141636637Y-101650941D01*
X141623866Y-101674197D01*
X141616312Y-101678708D01*
X141593675Y-101684309D01*
X141553885Y-101690892D01*
X141504834Y-101697183D01*
X141495785Y-101698170D01*
X141417004Y-101711798D01*
X141359864Y-101734946D01*
X141321970Y-101769752D01*
X141300921Y-101818354D01*
X141294365Y-101877718D01*
X141303423Y-101945198D01*
X141332836Y-101998188D01*
X141382722Y-102036783D01*
X141453200Y-102061081D01*
X141531435Y-102070667D01*
X141595234Y-102070552D01*
X141646984Y-102061845D01*
X141682327Y-102049825D01*
X141726983Y-102028880D01*
X141768253Y-102004574D01*
X141782921Y-101993876D01*
X141820643Y-101963084D01*
X141775148Y-101917049D01*
X141729653Y-101871013D01*
X141677928Y-101905243D01*
X141626048Y-101930952D01*
X141570649Y-101944399D01*
X141517395Y-101945818D01*
X141471951Y-101935443D01*
X141439984Y-101913507D01*
X141429662Y-101894998D01*
X141431211Y-101865314D01*
X141456860Y-101842615D01*
X141506540Y-101826940D01*
X141560969Y-101819695D01*
X141644736Y-101805873D01*
X141706967Y-101779796D01*
X141748493Y-101740699D01*
X141770147Y-101687820D01*
X141773147Y-101625126D01*
X141758329Y-101559642D01*
X141724546Y-101510144D01*
X141671495Y-101476408D01*
X141598874Y-101458207D01*
X141545072Y-101454639D01*
X141485983Y-101456452D01*
G37*
X141485983Y-101456452D02*
X141438366Y-101465482D01*
X141388966Y-101484370D01*
X141383688Y-101486777D01*
X141346226Y-101506476D01*
X141320283Y-101524781D01*
X141311897Y-101536508D01*
X141319883Y-101555632D01*
X141339280Y-101583850D01*
X141347890Y-101594384D01*
X141383372Y-101635847D01*
X141429115Y-101608858D01*
X141472650Y-101590878D01*
X141522950Y-101581267D01*
X141571188Y-101580660D01*
X141608533Y-101589691D01*
X141617495Y-101595327D01*
X141634563Y-101621171D01*
X141636637Y-101650941D01*
X141623866Y-101674197D01*
X141616312Y-101678708D01*
X141593675Y-101684309D01*
X141553885Y-101690892D01*
X141504834Y-101697183D01*
X141495785Y-101698170D01*
X141417004Y-101711798D01*
X141359864Y-101734946D01*
X141321970Y-101769752D01*
X141300921Y-101818354D01*
X141294365Y-101877718D01*
X141303423Y-101945198D01*
X141332836Y-101998188D01*
X141382722Y-102036783D01*
X141453200Y-102061081D01*
X141531435Y-102070667D01*
X141595234Y-102070552D01*
X141646984Y-102061845D01*
X141682327Y-102049825D01*
X141726983Y-102028880D01*
X141768253Y-102004574D01*
X141782921Y-101993876D01*
X141820643Y-101963084D01*
X141775148Y-101917049D01*
X141729653Y-101871013D01*
X141677928Y-101905243D01*
X141626048Y-101930952D01*
X141570649Y-101944399D01*
X141517395Y-101945818D01*
X141471951Y-101935443D01*
X141439984Y-101913507D01*
X141429662Y-101894998D01*
X141431211Y-101865314D01*
X141456860Y-101842615D01*
X141506540Y-101826940D01*
X141560969Y-101819695D01*
X141644736Y-101805873D01*
X141706967Y-101779796D01*
X141748493Y-101740699D01*
X141770147Y-101687820D01*
X141773147Y-101625126D01*
X141758329Y-101559642D01*
X141724546Y-101510144D01*
X141671495Y-101476408D01*
X141598874Y-101458207D01*
X141545072Y-101454639D01*
X141485983Y-101456452D01*
G36*
X140889238Y-101466055D02*
G01*
X140825637Y-101500692D01*
X140775877Y-101555372D01*
X140752432Y-101599842D01*
X140742366Y-101639121D01*
X140735844Y-101695116D01*
X140733049Y-101759621D01*
X140734164Y-101824429D01*
X140739374Y-101881334D01*
X140745459Y-101911727D01*
X140765986Y-101953306D01*
X140801537Y-101997468D01*
X140844381Y-102036087D01*
X140886789Y-102061034D01*
X140887823Y-102061430D01*
X140940447Y-102072331D01*
X141002812Y-102072601D01*
X141062076Y-102062676D01*
X141084960Y-102054722D01*
X141143898Y-102021300D01*
X141186110Y-101977511D01*
X141213844Y-101919538D01*
X141229349Y-101843565D01*
X141232857Y-101803771D01*
X141232410Y-101753766D01*
X141097624Y-101753766D01*
X141093083Y-101826732D01*
X141080014Y-101882334D01*
X141059244Y-101917861D01*
X141044448Y-101928020D01*
X141006536Y-101935104D01*
X140961473Y-101933007D01*
X140922513Y-101922812D01*
X140912296Y-101917204D01*
X140885341Y-101884538D01*
X140867549Y-101834545D01*
X140859976Y-101773705D01*
X140863675Y-101708497D01*
X140871943Y-101669253D01*
X140895680Y-101623805D01*
X140933151Y-101595396D01*
X140978280Y-101585573D01*
X141024989Y-101595887D01*
X141060868Y-101621112D01*
X141079723Y-101641925D01*
X141090728Y-101662439D01*
X141095974Y-101690203D01*
X141097551Y-101732762D01*
X141097624Y-101753766D01*
X141232410Y-101753766D01*
X141231906Y-101697580D01*
X141214612Y-101610501D01*
X141180971Y-101542530D01*
X141130982Y-101493664D01*
X141064644Y-101463899D01*
X141050399Y-101460448D01*
X140964790Y-101452345D01*
X140889238Y-101466055D01*
G37*
X140889238Y-101466055D02*
X140825637Y-101500692D01*
X140775877Y-101555372D01*
X140752432Y-101599842D01*
X140742366Y-101639121D01*
X140735844Y-101695116D01*
X140733049Y-101759621D01*
X140734164Y-101824429D01*
X140739374Y-101881334D01*
X140745459Y-101911727D01*
X140765986Y-101953306D01*
X140801537Y-101997468D01*
X140844381Y-102036087D01*
X140886789Y-102061034D01*
X140887823Y-102061430D01*
X140940447Y-102072331D01*
X141002812Y-102072601D01*
X141062076Y-102062676D01*
X141084960Y-102054722D01*
X141143898Y-102021300D01*
X141186110Y-101977511D01*
X141213844Y-101919538D01*
X141229349Y-101843565D01*
X141232857Y-101803771D01*
X141232410Y-101753766D01*
X141097624Y-101753766D01*
X141093083Y-101826732D01*
X141080014Y-101882334D01*
X141059244Y-101917861D01*
X141044448Y-101928020D01*
X141006536Y-101935104D01*
X140961473Y-101933007D01*
X140922513Y-101922812D01*
X140912296Y-101917204D01*
X140885341Y-101884538D01*
X140867549Y-101834545D01*
X140859976Y-101773705D01*
X140863675Y-101708497D01*
X140871943Y-101669253D01*
X140895680Y-101623805D01*
X140933151Y-101595396D01*
X140978280Y-101585573D01*
X141024989Y-101595887D01*
X141060868Y-101621112D01*
X141079723Y-101641925D01*
X141090728Y-101662439D01*
X141095974Y-101690203D01*
X141097551Y-101732762D01*
X141097624Y-101753766D01*
X141232410Y-101753766D01*
X141231906Y-101697580D01*
X141214612Y-101610501D01*
X141180971Y-101542530D01*
X141130982Y-101493664D01*
X141064644Y-101463899D01*
X141050399Y-101460448D01*
X140964790Y-101452345D01*
X140889238Y-101466055D01*
G36*
X140506633Y-101654342D02*
G01*
X140505445Y-101746563D01*
X140501103Y-101816610D01*
X140492442Y-101867381D01*
X140478296Y-101901772D01*
X140457500Y-101922679D01*
X140428890Y-101933000D01*
X140393465Y-101935636D01*
X140356364Y-101932682D01*
X140328182Y-101921889D01*
X140307757Y-101900360D01*
X140293921Y-101865199D01*
X140285509Y-101813510D01*
X140281357Y-101742394D01*
X140280297Y-101654342D01*
X140280297Y-101458614D01*
X140141980Y-101458614D01*
X140141980Y-102062179D01*
X140211138Y-102062179D01*
X140252830Y-102060489D01*
X140274299Y-102054556D01*
X140280297Y-102043293D01*
X140283909Y-102033261D01*
X140298286Y-102035383D01*
X140327264Y-102049580D01*
X140393681Y-102071480D01*
X140464125Y-102069928D01*
X140531623Y-102046147D01*
X140563767Y-102027362D01*
X140588285Y-102007022D01*
X140606196Y-101981573D01*
X140618521Y-101947458D01*
X140626277Y-101901121D01*
X140630484Y-101839007D01*
X140632160Y-101757561D01*
X140632376Y-101694578D01*
X140632376Y-101458614D01*
X140506633Y-101458614D01*
X140506633Y-101654342D01*
G37*
X140506633Y-101654342D02*
X140505445Y-101746563D01*
X140501103Y-101816610D01*
X140492442Y-101867381D01*
X140478296Y-101901772D01*
X140457500Y-101922679D01*
X140428890Y-101933000D01*
X140393465Y-101935636D01*
X140356364Y-101932682D01*
X140328182Y-101921889D01*
X140307757Y-101900360D01*
X140293921Y-101865199D01*
X140285509Y-101813510D01*
X140281357Y-101742394D01*
X140280297Y-101654342D01*
X140280297Y-101458614D01*
X140141980Y-101458614D01*
X140141980Y-102062179D01*
X140211138Y-102062179D01*
X140252830Y-102060489D01*
X140274299Y-102054556D01*
X140280297Y-102043293D01*
X140283909Y-102033261D01*
X140298286Y-102035383D01*
X140327264Y-102049580D01*
X140393681Y-102071480D01*
X140464125Y-102069928D01*
X140531623Y-102046147D01*
X140563767Y-102027362D01*
X140588285Y-102007022D01*
X140606196Y-101981573D01*
X140618521Y-101947458D01*
X140626277Y-101901121D01*
X140630484Y-101839007D01*
X140632160Y-101757561D01*
X140632376Y-101694578D01*
X140632376Y-101458614D01*
X140506633Y-101458614D01*
X140506633Y-101654342D01*
G36*
X139282774Y-101463880D02*
G01*
X139209920Y-101494830D01*
X139186973Y-101509895D01*
X139157646Y-101533048D01*
X139139236Y-101551253D01*
X139136039Y-101557183D01*
X139145065Y-101570340D01*
X139168163Y-101592667D01*
X139186656Y-101608250D01*
X139237272Y-101648926D01*
X139277240Y-101615295D01*
X139308126Y-101593584D01*
X139338241Y-101586090D01*
X139372708Y-101587920D01*
X139427439Y-101601528D01*
X139465114Y-101629772D01*
X139488009Y-101675433D01*
X139498403Y-101741289D01*
X139498405Y-101741331D01*
X139497506Y-101814939D01*
X139483537Y-101868946D01*
X139455672Y-101905716D01*
X139436675Y-101918168D01*
X139386224Y-101933673D01*
X139332337Y-101933683D01*
X139285454Y-101918638D01*
X139274356Y-101911287D01*
X139246524Y-101892511D01*
X139224764Y-101889434D01*
X139201296Y-101903409D01*
X139175351Y-101928510D01*
X139134284Y-101970880D01*
X139179879Y-102008464D01*
X139250326Y-102050882D01*
X139329767Y-102071785D01*
X139412785Y-102070272D01*
X139467306Y-102056411D01*
X139531030Y-102022135D01*
X139581995Y-101968212D01*
X139605149Y-101930149D01*
X139623901Y-101875536D01*
X139633285Y-101806369D01*
X139633357Y-101731407D01*
X139624176Y-101659409D01*
X139605801Y-101599137D01*
X139602907Y-101592958D01*
X139560048Y-101532351D01*
X139502021Y-101488224D01*
X139433409Y-101461493D01*
X139358799Y-101453073D01*
X139282774Y-101463880D01*
G37*
X139282774Y-101463880D02*
X139209920Y-101494830D01*
X139186973Y-101509895D01*
X139157646Y-101533048D01*
X139139236Y-101551253D01*
X139136039Y-101557183D01*
X139145065Y-101570340D01*
X139168163Y-101592667D01*
X139186656Y-101608250D01*
X139237272Y-101648926D01*
X139277240Y-101615295D01*
X139308126Y-101593584D01*
X139338241Y-101586090D01*
X139372708Y-101587920D01*
X139427439Y-101601528D01*
X139465114Y-101629772D01*
X139488009Y-101675433D01*
X139498403Y-101741289D01*
X139498405Y-101741331D01*
X139497506Y-101814939D01*
X139483537Y-101868946D01*
X139455672Y-101905716D01*
X139436675Y-101918168D01*
X139386224Y-101933673D01*
X139332337Y-101933683D01*
X139285454Y-101918638D01*
X139274356Y-101911287D01*
X139246524Y-101892511D01*
X139224764Y-101889434D01*
X139201296Y-101903409D01*
X139175351Y-101928510D01*
X139134284Y-101970880D01*
X139179879Y-102008464D01*
X139250326Y-102050882D01*
X139329767Y-102071785D01*
X139412785Y-102070272D01*
X139467306Y-102056411D01*
X139531030Y-102022135D01*
X139581995Y-101968212D01*
X139605149Y-101930149D01*
X139623901Y-101875536D01*
X139633285Y-101806369D01*
X139633357Y-101731407D01*
X139624176Y-101659409D01*
X139605801Y-101599137D01*
X139602907Y-101592958D01*
X139560048Y-101532351D01*
X139502021Y-101488224D01*
X139433409Y-101461493D01*
X139358799Y-101453073D01*
X139282774Y-101463880D01*
G36*
X138822102Y-101456457D02*
G01*
X138789904Y-101464279D01*
X138728175Y-101492921D01*
X138675390Y-101536667D01*
X138638859Y-101589117D01*
X138633840Y-101600893D01*
X138626955Y-101631740D01*
X138622136Y-101677371D01*
X138620495Y-101723492D01*
X138620495Y-101810693D01*
X138802822Y-101810693D01*
X138878021Y-101810978D01*
X138930997Y-101812704D01*
X138964675Y-101817181D01*
X138981980Y-101825720D01*
X138985837Y-101839630D01*
X138979171Y-101860222D01*
X138967230Y-101884315D01*
X138933920Y-101924525D01*
X138887632Y-101944558D01*
X138831056Y-101943905D01*
X138766969Y-101922101D01*
X138711583Y-101895193D01*
X138665625Y-101931532D01*
X138619667Y-101967872D01*
X138662904Y-102007819D01*
X138720626Y-102045563D01*
X138791614Y-102068320D01*
X138867971Y-102074688D01*
X138941801Y-102063268D01*
X138953713Y-102059393D01*
X139018601Y-102025506D01*
X139066870Y-101974986D01*
X139099535Y-101906325D01*
X139117615Y-101818014D01*
X139117825Y-101816121D01*
X139119444Y-101719878D01*
X139112900Y-101685542D01*
X138985148Y-101685542D01*
X138973416Y-101690822D01*
X138941562Y-101694867D01*
X138894603Y-101697176D01*
X138864846Y-101697525D01*
X138809352Y-101697306D01*
X138774654Y-101695916D01*
X138756399Y-101692251D01*
X138750234Y-101685210D01*
X138751805Y-101673690D01*
X138753122Y-101669233D01*
X138775618Y-101627355D01*
X138810997Y-101593604D01*
X138842220Y-101578773D01*
X138883699Y-101579668D01*
X138925731Y-101598164D01*
X138960988Y-101628786D01*
X138982146Y-101666062D01*
X138985148Y-101685542D01*
X139112900Y-101685542D01*
X139103310Y-101635229D01*
X139071302Y-101564191D01*
X139025299Y-101508779D01*
X138967179Y-101471009D01*
X138898820Y-101452896D01*
X138822102Y-101456457D01*
G37*
X138822102Y-101456457D02*
X138789904Y-101464279D01*
X138728175Y-101492921D01*
X138675390Y-101536667D01*
X138638859Y-101589117D01*
X138633840Y-101600893D01*
X138626955Y-101631740D01*
X138622136Y-101677371D01*
X138620495Y-101723492D01*
X138620495Y-101810693D01*
X138802822Y-101810693D01*
X138878021Y-101810978D01*
X138930997Y-101812704D01*
X138964675Y-101817181D01*
X138981980Y-101825720D01*
X138985837Y-101839630D01*
X138979171Y-101860222D01*
X138967230Y-101884315D01*
X138933920Y-101924525D01*
X138887632Y-101944558D01*
X138831056Y-101943905D01*
X138766969Y-101922101D01*
X138711583Y-101895193D01*
X138665625Y-101931532D01*
X138619667Y-101967872D01*
X138662904Y-102007819D01*
X138720626Y-102045563D01*
X138791614Y-102068320D01*
X138867971Y-102074688D01*
X138941801Y-102063268D01*
X138953713Y-102059393D01*
X139018601Y-102025506D01*
X139066870Y-101974986D01*
X139099535Y-101906325D01*
X139117615Y-101818014D01*
X139117825Y-101816121D01*
X139119444Y-101719878D01*
X139112900Y-101685542D01*
X138985148Y-101685542D01*
X138973416Y-101690822D01*
X138941562Y-101694867D01*
X138894603Y-101697176D01*
X138864846Y-101697525D01*
X138809352Y-101697306D01*
X138774654Y-101695916D01*
X138756399Y-101692251D01*
X138750234Y-101685210D01*
X138751805Y-101673690D01*
X138753122Y-101669233D01*
X138775618Y-101627355D01*
X138810997Y-101593604D01*
X138842220Y-101578773D01*
X138883699Y-101579668D01*
X138925731Y-101598164D01*
X138960988Y-101628786D01*
X138982146Y-101666062D01*
X138985148Y-101685542D01*
X139112900Y-101685542D01*
X139103310Y-101635229D01*
X139071302Y-101564191D01*
X139025299Y-101508779D01*
X138967179Y-101471009D01*
X138898820Y-101452896D01*
X138822102Y-101456457D01*
G36*
X142254012Y-101469002D02*
G01*
X142222717Y-101483950D01*
X142192409Y-101505541D01*
X142169318Y-101530391D01*
X142152500Y-101562087D01*
X142141006Y-101604214D01*
X142133891Y-101660358D01*
X142130207Y-101734106D01*
X142129008Y-101829044D01*
X142128989Y-101838985D01*
X142128713Y-102062179D01*
X142267030Y-102062179D01*
X142267030Y-101856418D01*
X142267128Y-101780189D01*
X142267809Y-101724939D01*
X142269651Y-101686501D01*
X142273233Y-101660706D01*
X142279132Y-101643384D01*
X142287927Y-101630368D01*
X142300180Y-101617507D01*
X142343047Y-101589873D01*
X142389843Y-101584745D01*
X142434424Y-101602217D01*
X142449928Y-101615221D01*
X142461310Y-101627447D01*
X142469481Y-101640540D01*
X142474974Y-101658615D01*
X142478320Y-101685787D01*
X142480051Y-101726170D01*
X142480697Y-101783879D01*
X142480792Y-101854132D01*
X142480792Y-102062179D01*
X142619109Y-102062179D01*
X142619109Y-101458614D01*
X142549950Y-101458614D01*
X142508428Y-101460256D01*
X142487006Y-101466087D01*
X142480795Y-101477461D01*
X142480792Y-101477798D01*
X142477910Y-101488938D01*
X142465199Y-101487674D01*
X142439926Y-101475434D01*
X142382605Y-101457424D01*
X142317037Y-101455421D01*
X142254012Y-101469002D01*
G37*
X142254012Y-101469002D02*
X142222717Y-101483950D01*
X142192409Y-101505541D01*
X142169318Y-101530391D01*
X142152500Y-101562087D01*
X142141006Y-101604214D01*
X142133891Y-101660358D01*
X142130207Y-101734106D01*
X142129008Y-101829044D01*
X142128989Y-101838985D01*
X142128713Y-102062179D01*
X142267030Y-102062179D01*
X142267030Y-101856418D01*
X142267128Y-101780189D01*
X142267809Y-101724939D01*
X142269651Y-101686501D01*
X142273233Y-101660706D01*
X142279132Y-101643384D01*
X142287927Y-101630368D01*
X142300180Y-101617507D01*
X142343047Y-101589873D01*
X142389843Y-101584745D01*
X142434424Y-101602217D01*
X142449928Y-101615221D01*
X142461310Y-101627447D01*
X142469481Y-101640540D01*
X142474974Y-101658615D01*
X142478320Y-101685787D01*
X142480051Y-101726170D01*
X142480697Y-101783879D01*
X142480792Y-101854132D01*
X142480792Y-102062179D01*
X142619109Y-102062179D01*
X142619109Y-101458614D01*
X142549950Y-101458614D01*
X142508428Y-101460256D01*
X142487006Y-101466087D01*
X142480795Y-101477461D01*
X142480792Y-101477798D01*
X142477910Y-101488938D01*
X142465199Y-101487674D01*
X142439926Y-101475434D01*
X142382605Y-101457424D01*
X142317037Y-101455421D01*
X142254012Y-101469002D01*
G36*
X139700540Y-101458030D02*
G01*
X139657289Y-101471245D01*
X139629442Y-101487941D01*
X139620371Y-101501145D01*
X139622868Y-101516797D01*
X139639069Y-101541385D01*
X139652768Y-101558800D01*
X139681008Y-101590283D01*
X139702225Y-101603529D01*
X139720312Y-101602664D01*
X139773965Y-101589010D01*
X139813370Y-101589630D01*
X139845368Y-101605104D01*
X139856110Y-101614161D01*
X139890495Y-101646027D01*
X139890495Y-102062179D01*
X140028812Y-102062179D01*
X140028812Y-101458614D01*
X139959653Y-101458614D01*
X139918131Y-101460256D01*
X139896709Y-101466087D01*
X139890498Y-101477461D01*
X139890495Y-101477798D01*
X139887561Y-101489713D01*
X139874296Y-101488159D01*
X139855916Y-101479563D01*
X139817954Y-101463568D01*
X139787128Y-101453945D01*
X139747464Y-101451478D01*
X139700540Y-101458030D01*
G37*
X139700540Y-101458030D02*
X139657289Y-101471245D01*
X139629442Y-101487941D01*
X139620371Y-101501145D01*
X139622868Y-101516797D01*
X139639069Y-101541385D01*
X139652768Y-101558800D01*
X139681008Y-101590283D01*
X139702225Y-101603529D01*
X139720312Y-101602664D01*
X139773965Y-101589010D01*
X139813370Y-101589630D01*
X139845368Y-101605104D01*
X139856110Y-101614161D01*
X139890495Y-101646027D01*
X139890495Y-102062179D01*
X140028812Y-102062179D01*
X140028812Y-101458614D01*
X139959653Y-101458614D01*
X139918131Y-101460256D01*
X139896709Y-101466087D01*
X139890498Y-101477461D01*
X139890495Y-101477798D01*
X139887561Y-101489713D01*
X139874296Y-101488159D01*
X139855916Y-101479563D01*
X139817954Y-101463568D01*
X139787128Y-101453945D01*
X139747464Y-101451478D01*
X139700540Y-101458030D01*
G36*
X141123036Y-97290018D02*
G01*
X141066188Y-97591570D01*
X140646662Y-97764512D01*
X140395016Y-97593395D01*
X140324542Y-97545750D01*
X140260837Y-97503210D01*
X140206874Y-97467715D01*
X140165627Y-97441210D01*
X140140066Y-97425636D01*
X140133105Y-97422278D01*
X140120565Y-97430914D01*
X140093769Y-97454792D01*
X140055720Y-97490859D01*
X140009421Y-97536067D01*
X139957877Y-97587364D01*
X139904091Y-97641701D01*
X139851065Y-97696028D01*
X139801805Y-97747295D01*
X139759313Y-97792451D01*
X139726593Y-97828446D01*
X139706649Y-97852230D01*
X139701881Y-97860190D01*
X139708743Y-97874865D01*
X139727980Y-97907014D01*
X139757570Y-97953492D01*
X139795490Y-98011156D01*
X139839718Y-98076860D01*
X139865346Y-98114336D01*
X139912059Y-98182768D01*
X139953568Y-98244520D01*
X139987860Y-98296519D01*
X140012920Y-98335692D01*
X140026736Y-98358965D01*
X140028812Y-98363855D01*
X140024105Y-98377755D01*
X140011277Y-98410150D01*
X139992262Y-98456485D01*
X139968997Y-98512206D01*
X139943416Y-98572758D01*
X139917455Y-98633586D01*
X139893050Y-98690136D01*
X139872137Y-98737852D01*
X139856651Y-98772181D01*
X139848528Y-98788568D01*
X139848048Y-98789212D01*
X139835293Y-98792341D01*
X139801323Y-98799321D01*
X139749660Y-98809467D01*
X139683824Y-98822092D01*
X139607336Y-98836509D01*
X139562710Y-98844823D01*
X139480979Y-98860384D01*
X139407157Y-98875192D01*
X139344979Y-98888436D01*
X139298178Y-98899305D01*
X139270491Y-98906989D01*
X139264926Y-98909427D01*
X139259474Y-98925930D01*
X139255076Y-98963200D01*
X139251728Y-99016880D01*
X139249426Y-99082612D01*
X139248168Y-99156037D01*
X139247952Y-99232796D01*
X139248773Y-99308532D01*
X139250629Y-99378886D01*
X139253518Y-99439500D01*
X139257435Y-99486016D01*
X139262378Y-99514075D01*
X139265343Y-99519916D01*
X139283066Y-99526917D01*
X139320619Y-99536927D01*
X139373036Y-99548769D01*
X139435348Y-99561267D01*
X139457100Y-99565310D01*
X139561976Y-99584520D01*
X139644820Y-99599991D01*
X139708370Y-99612337D01*
X139755363Y-99622173D01*
X139788537Y-99630114D01*
X139810629Y-99636776D01*
X139824376Y-99642773D01*
X139832516Y-99648719D01*
X139833655Y-99649894D01*
X139845023Y-99668826D01*
X139862365Y-99705669D01*
X139883950Y-99755913D01*
X139908046Y-99815046D01*
X139932921Y-99878556D01*
X139956843Y-99941932D01*
X139978081Y-100000662D01*
X139994903Y-100050235D01*
X140005578Y-100086139D01*
X140008373Y-100103862D01*
X140008140Y-100104483D01*
X139998669Y-100118970D01*
X139977182Y-100150844D01*
X139945937Y-100196789D01*
X139907193Y-100253485D01*
X139863207Y-100317617D01*
X139850681Y-100335842D01*
X139806016Y-100401914D01*
X139766712Y-100462200D01*
X139734912Y-100513235D01*
X139712755Y-100551560D01*
X139702383Y-100573711D01*
X139701881Y-100576432D01*
X139710595Y-100590736D01*
X139734675Y-100619072D01*
X139771024Y-100658396D01*
X139816547Y-100705661D01*
X139868148Y-100757823D01*
X139922733Y-100811835D01*
X139977206Y-100864653D01*
X140028471Y-100913231D01*
X140073433Y-100954523D01*
X140108996Y-100985485D01*
X140132065Y-101003070D01*
X140138446Y-101005941D01*
X140153301Y-100999178D01*
X140183714Y-100980939D01*
X140224732Y-100954297D01*
X140256291Y-100932852D01*
X140313475Y-100893503D01*
X140381194Y-100847171D01*
X140449120Y-100800913D01*
X140485639Y-100776155D01*
X140609248Y-100692547D01*
X140713009Y-100748650D01*
X140760280Y-100773228D01*
X140800477Y-100792331D01*
X140827674Y-100803227D01*
X140834598Y-100804743D01*
X140842923Y-100793549D01*
X140859346Y-100761917D01*
X140882643Y-100712765D01*
X140911586Y-100649010D01*
X140944950Y-100573571D01*
X140981509Y-100489364D01*
X141020036Y-100399308D01*
X141059306Y-100306321D01*
X141098092Y-100213320D01*
X141135170Y-100123223D01*
X141169311Y-100038948D01*
X141199292Y-99963413D01*
X141223884Y-99899534D01*
X141241864Y-99850231D01*
X141252003Y-99818421D01*
X141253634Y-99807496D01*
X141240709Y-99793561D01*
X141212411Y-99770940D01*
X141174654Y-99744333D01*
X141171485Y-99742228D01*
X141073900Y-99664114D01*
X140995214Y-99572982D01*
X140936109Y-99471745D01*
X140897268Y-99363318D01*
X140879372Y-99250614D01*
X140883103Y-99136548D01*
X140909143Y-99024034D01*
X140958175Y-98915985D01*
X140972600Y-98892345D01*
X141047631Y-98796887D01*
X141136270Y-98720232D01*
X141235451Y-98662780D01*
X141342105Y-98624929D01*
X141453164Y-98607078D01*
X141565561Y-98609625D01*
X141676227Y-98632970D01*
X141782094Y-98677510D01*
X141880095Y-98743645D01*
X141910410Y-98770487D01*
X141987562Y-98854512D01*
X142043782Y-98942966D01*
X142082347Y-99042115D01*
X142103826Y-99140303D01*
X142109128Y-99250697D01*
X142091448Y-99361640D01*
X142052581Y-99469381D01*
X141994323Y-99570169D01*
X141918469Y-99660256D01*
X141826817Y-99735892D01*
X141814772Y-99743864D01*
X141776611Y-99769974D01*
X141747601Y-99792595D01*
X141733732Y-99807039D01*
X141733531Y-99807496D01*
X141736508Y-99823121D01*
X141748311Y-99858582D01*
X141767714Y-99910962D01*
X141793488Y-99977345D01*
X141824409Y-100054814D01*
X141859249Y-100140450D01*
X141896783Y-100231337D01*
X141935783Y-100324559D01*
X141975023Y-100417197D01*
X142013276Y-100506335D01*
X142049317Y-100589055D01*
X142081917Y-100662441D01*
X142109852Y-100723575D01*
X142131895Y-100769541D01*
X142146818Y-100797421D01*
X142152828Y-100804743D01*
X142171191Y-100799041D01*
X142205552Y-100783749D01*
X142249984Y-100761599D01*
X142274417Y-100748650D01*
X142378178Y-100692547D01*
X142501787Y-100776155D01*
X142564886Y-100818987D01*
X142633970Y-100866122D01*
X142698707Y-100910503D01*
X142731134Y-100932852D01*
X142776741Y-100963477D01*
X142815360Y-100987747D01*
X142841952Y-101002587D01*
X142850590Y-101005724D01*
X142863161Y-100997261D01*
X142890984Y-100973636D01*
X142931361Y-100937302D01*
X142981595Y-100890711D01*
X143038988Y-100836317D01*
X143075286Y-100801392D01*
X143138790Y-100738996D01*
X143193673Y-100683188D01*
X143237714Y-100636354D01*
X143268695Y-100600882D01*
X143284398Y-100579161D01*
X143285905Y-100574752D01*
X143278914Y-100557985D01*
X143259594Y-100524082D01*
X143230091Y-100476476D01*
X143192545Y-100418599D01*
X143149100Y-100353884D01*
X143136745Y-100335842D01*
X143091727Y-100270267D01*
X143051340Y-100211228D01*
X143017840Y-100162042D01*
X142993486Y-100126028D01*
X142980536Y-100106502D01*
X142979285Y-100104483D01*
X142981156Y-100088922D01*
X142991087Y-100054709D01*
X143007347Y-100006355D01*
X143028205Y-99948371D01*
X143051927Y-99885270D01*
X143076784Y-99821563D01*
X143101042Y-99761761D01*
X143122971Y-99710376D01*
X143140838Y-99671919D01*
X143152913Y-99650902D01*
X143153771Y-99649894D01*
X143161154Y-99643888D01*
X143173625Y-99637948D01*
X143193920Y-99631460D01*
X143224778Y-99623809D01*
X143268934Y-99614380D01*
X143329126Y-99602559D01*
X143408093Y-99587729D01*
X143508570Y-99569277D01*
X143530325Y-99565310D01*
X143594802Y-99552853D01*
X143651011Y-99540666D01*
X143693987Y-99529926D01*
X143718760Y-99521809D01*
X143722082Y-99519916D01*
X143727556Y-99503138D01*
X143732006Y-99465645D01*
X143735428Y-99411794D01*
X143737819Y-99345944D01*
X143739177Y-99272453D01*
X143739499Y-99195680D01*
X143738781Y-99119983D01*
X143737021Y-99049720D01*
X143734216Y-98989250D01*
X143730362Y-98942930D01*
X143725457Y-98915119D01*
X143722500Y-98909427D01*
X143706037Y-98903686D01*
X143668551Y-98894345D01*
X143613775Y-98882215D01*
X143545445Y-98868107D01*
X143467294Y-98852830D01*
X143424716Y-98844823D01*
X143343929Y-98829721D01*
X143271887Y-98816040D01*
X143212111Y-98804467D01*
X143168121Y-98795687D01*
X143143439Y-98790387D01*
X143139377Y-98789212D01*
X143132511Y-98775965D01*
X143117998Y-98744057D01*
X143097771Y-98698047D01*
X143073766Y-98642492D01*
X143047918Y-98581953D01*
X143022160Y-98520986D01*
X142998427Y-98464151D01*
X142978654Y-98416006D01*
X142964776Y-98381110D01*
X142958726Y-98364021D01*
X142958614Y-98363274D01*
X142965472Y-98349793D01*
X142984698Y-98318770D01*
X143014272Y-98273289D01*
X143052173Y-98216432D01*
X143096380Y-98151283D01*
X143122079Y-98113862D01*
X143168907Y-98045247D01*
X143210499Y-97982952D01*
X143244825Y-97930129D01*
X143269857Y-97889927D01*
X143283565Y-97865500D01*
X143285544Y-97860024D01*
X143277034Y-97847278D01*
X143253507Y-97820063D01*
X143217968Y-97781428D01*
X143173423Y-97734423D01*
X143122877Y-97682095D01*
X143069336Y-97627495D01*
X143015805Y-97573670D01*
X142965289Y-97523670D01*
X142920794Y-97480543D01*
X142885325Y-97447339D01*
X142861887Y-97427106D01*
X142854046Y-97422278D01*
X142841280Y-97429067D01*
X142810744Y-97448142D01*
X142765410Y-97477561D01*
X142708244Y-97515381D01*
X142642216Y-97559661D01*
X142592410Y-97593395D01*
X142340764Y-97764512D01*
X142131001Y-97678041D01*
X141921237Y-97591570D01*
X141864389Y-97290018D01*
X141807540Y-96988466D01*
X141179885Y-96988466D01*
X141123036Y-97290018D01*
G37*
X141123036Y-97290018D02*
X141066188Y-97591570D01*
X140646662Y-97764512D01*
X140395016Y-97593395D01*
X140324542Y-97545750D01*
X140260837Y-97503210D01*
X140206874Y-97467715D01*
X140165627Y-97441210D01*
X140140066Y-97425636D01*
X140133105Y-97422278D01*
X140120565Y-97430914D01*
X140093769Y-97454792D01*
X140055720Y-97490859D01*
X140009421Y-97536067D01*
X139957877Y-97587364D01*
X139904091Y-97641701D01*
X139851065Y-97696028D01*
X139801805Y-97747295D01*
X139759313Y-97792451D01*
X139726593Y-97828446D01*
X139706649Y-97852230D01*
X139701881Y-97860190D01*
X139708743Y-97874865D01*
X139727980Y-97907014D01*
X139757570Y-97953492D01*
X139795490Y-98011156D01*
X139839718Y-98076860D01*
X139865346Y-98114336D01*
X139912059Y-98182768D01*
X139953568Y-98244520D01*
X139987860Y-98296519D01*
X140012920Y-98335692D01*
X140026736Y-98358965D01*
X140028812Y-98363855D01*
X140024105Y-98377755D01*
X140011277Y-98410150D01*
X139992262Y-98456485D01*
X139968997Y-98512206D01*
X139943416Y-98572758D01*
X139917455Y-98633586D01*
X139893050Y-98690136D01*
X139872137Y-98737852D01*
X139856651Y-98772181D01*
X139848528Y-98788568D01*
X139848048Y-98789212D01*
X139835293Y-98792341D01*
X139801323Y-98799321D01*
X139749660Y-98809467D01*
X139683824Y-98822092D01*
X139607336Y-98836509D01*
X139562710Y-98844823D01*
X139480979Y-98860384D01*
X139407157Y-98875192D01*
X139344979Y-98888436D01*
X139298178Y-98899305D01*
X139270491Y-98906989D01*
X139264926Y-98909427D01*
X139259474Y-98925930D01*
X139255076Y-98963200D01*
X139251728Y-99016880D01*
X139249426Y-99082612D01*
X139248168Y-99156037D01*
X139247952Y-99232796D01*
X139248773Y-99308532D01*
X139250629Y-99378886D01*
X139253518Y-99439500D01*
X139257435Y-99486016D01*
X139262378Y-99514075D01*
X139265343Y-99519916D01*
X139283066Y-99526917D01*
X139320619Y-99536927D01*
X139373036Y-99548769D01*
X139435348Y-99561267D01*
X139457100Y-99565310D01*
X139561976Y-99584520D01*
X139644820Y-99599991D01*
X139708370Y-99612337D01*
X139755363Y-99622173D01*
X139788537Y-99630114D01*
X139810629Y-99636776D01*
X139824376Y-99642773D01*
X139832516Y-99648719D01*
X139833655Y-99649894D01*
X139845023Y-99668826D01*
X139862365Y-99705669D01*
X139883950Y-99755913D01*
X139908046Y-99815046D01*
X139932921Y-99878556D01*
X139956843Y-99941932D01*
X139978081Y-100000662D01*
X139994903Y-100050235D01*
X140005578Y-100086139D01*
X140008373Y-100103862D01*
X140008140Y-100104483D01*
X139998669Y-100118970D01*
X139977182Y-100150844D01*
X139945937Y-100196789D01*
X139907193Y-100253485D01*
X139863207Y-100317617D01*
X139850681Y-100335842D01*
X139806016Y-100401914D01*
X139766712Y-100462200D01*
X139734912Y-100513235D01*
X139712755Y-100551560D01*
X139702383Y-100573711D01*
X139701881Y-100576432D01*
X139710595Y-100590736D01*
X139734675Y-100619072D01*
X139771024Y-100658396D01*
X139816547Y-100705661D01*
X139868148Y-100757823D01*
X139922733Y-100811835D01*
X139977206Y-100864653D01*
X140028471Y-100913231D01*
X140073433Y-100954523D01*
X140108996Y-100985485D01*
X140132065Y-101003070D01*
X140138446Y-101005941D01*
X140153301Y-100999178D01*
X140183714Y-100980939D01*
X140224732Y-100954297D01*
X140256291Y-100932852D01*
X140313475Y-100893503D01*
X140381194Y-100847171D01*
X140449120Y-100800913D01*
X140485639Y-100776155D01*
X140609248Y-100692547D01*
X140713009Y-100748650D01*
X140760280Y-100773228D01*
X140800477Y-100792331D01*
X140827674Y-100803227D01*
X140834598Y-100804743D01*
X140842923Y-100793549D01*
X140859346Y-100761917D01*
X140882643Y-100712765D01*
X140911586Y-100649010D01*
X140944950Y-100573571D01*
X140981509Y-100489364D01*
X141020036Y-100399308D01*
X141059306Y-100306321D01*
X141098092Y-100213320D01*
X141135170Y-100123223D01*
X141169311Y-100038948D01*
X141199292Y-99963413D01*
X141223884Y-99899534D01*
X141241864Y-99850231D01*
X141252003Y-99818421D01*
X141253634Y-99807496D01*
X141240709Y-99793561D01*
X141212411Y-99770940D01*
X141174654Y-99744333D01*
X141171485Y-99742228D01*
X141073900Y-99664114D01*
X140995214Y-99572982D01*
X140936109Y-99471745D01*
X140897268Y-99363318D01*
X140879372Y-99250614D01*
X140883103Y-99136548D01*
X140909143Y-99024034D01*
X140958175Y-98915985D01*
X140972600Y-98892345D01*
X141047631Y-98796887D01*
X141136270Y-98720232D01*
X141235451Y-98662780D01*
X141342105Y-98624929D01*
X141453164Y-98607078D01*
X141565561Y-98609625D01*
X141676227Y-98632970D01*
X141782094Y-98677510D01*
X141880095Y-98743645D01*
X141910410Y-98770487D01*
X141987562Y-98854512D01*
X142043782Y-98942966D01*
X142082347Y-99042115D01*
X142103826Y-99140303D01*
X142109128Y-99250697D01*
X142091448Y-99361640D01*
X142052581Y-99469381D01*
X141994323Y-99570169D01*
X141918469Y-99660256D01*
X141826817Y-99735892D01*
X141814772Y-99743864D01*
X141776611Y-99769974D01*
X141747601Y-99792595D01*
X141733732Y-99807039D01*
X141733531Y-99807496D01*
X141736508Y-99823121D01*
X141748311Y-99858582D01*
X141767714Y-99910962D01*
X141793488Y-99977345D01*
X141824409Y-100054814D01*
X141859249Y-100140450D01*
X141896783Y-100231337D01*
X141935783Y-100324559D01*
X141975023Y-100417197D01*
X142013276Y-100506335D01*
X142049317Y-100589055D01*
X142081917Y-100662441D01*
X142109852Y-100723575D01*
X142131895Y-100769541D01*
X142146818Y-100797421D01*
X142152828Y-100804743D01*
X142171191Y-100799041D01*
X142205552Y-100783749D01*
X142249984Y-100761599D01*
X142274417Y-100748650D01*
X142378178Y-100692547D01*
X142501787Y-100776155D01*
X142564886Y-100818987D01*
X142633970Y-100866122D01*
X142698707Y-100910503D01*
X142731134Y-100932852D01*
X142776741Y-100963477D01*
X142815360Y-100987747D01*
X142841952Y-101002587D01*
X142850590Y-101005724D01*
X142863161Y-100997261D01*
X142890984Y-100973636D01*
X142931361Y-100937302D01*
X142981595Y-100890711D01*
X143038988Y-100836317D01*
X143075286Y-100801392D01*
X143138790Y-100738996D01*
X143193673Y-100683188D01*
X143237714Y-100636354D01*
X143268695Y-100600882D01*
X143284398Y-100579161D01*
X143285905Y-100574752D01*
X143278914Y-100557985D01*
X143259594Y-100524082D01*
X143230091Y-100476476D01*
X143192545Y-100418599D01*
X143149100Y-100353884D01*
X143136745Y-100335842D01*
X143091727Y-100270267D01*
X143051340Y-100211228D01*
X143017840Y-100162042D01*
X142993486Y-100126028D01*
X142980536Y-100106502D01*
X142979285Y-100104483D01*
X142981156Y-100088922D01*
X142991087Y-100054709D01*
X143007347Y-100006355D01*
X143028205Y-99948371D01*
X143051927Y-99885270D01*
X143076784Y-99821563D01*
X143101042Y-99761761D01*
X143122971Y-99710376D01*
X143140838Y-99671919D01*
X143152913Y-99650902D01*
X143153771Y-99649894D01*
X143161154Y-99643888D01*
X143173625Y-99637948D01*
X143193920Y-99631460D01*
X143224778Y-99623809D01*
X143268934Y-99614380D01*
X143329126Y-99602559D01*
X143408093Y-99587729D01*
X143508570Y-99569277D01*
X143530325Y-99565310D01*
X143594802Y-99552853D01*
X143651011Y-99540666D01*
X143693987Y-99529926D01*
X143718760Y-99521809D01*
X143722082Y-99519916D01*
X143727556Y-99503138D01*
X143732006Y-99465645D01*
X143735428Y-99411794D01*
X143737819Y-99345944D01*
X143739177Y-99272453D01*
X143739499Y-99195680D01*
X143738781Y-99119983D01*
X143737021Y-99049720D01*
X143734216Y-98989250D01*
X143730362Y-98942930D01*
X143725457Y-98915119D01*
X143722500Y-98909427D01*
X143706037Y-98903686D01*
X143668551Y-98894345D01*
X143613775Y-98882215D01*
X143545445Y-98868107D01*
X143467294Y-98852830D01*
X143424716Y-98844823D01*
X143343929Y-98829721D01*
X143271887Y-98816040D01*
X143212111Y-98804467D01*
X143168121Y-98795687D01*
X143143439Y-98790387D01*
X143139377Y-98789212D01*
X143132511Y-98775965D01*
X143117998Y-98744057D01*
X143097771Y-98698047D01*
X143073766Y-98642492D01*
X143047918Y-98581953D01*
X143022160Y-98520986D01*
X142998427Y-98464151D01*
X142978654Y-98416006D01*
X142964776Y-98381110D01*
X142958726Y-98364021D01*
X142958614Y-98363274D01*
X142965472Y-98349793D01*
X142984698Y-98318770D01*
X143014272Y-98273289D01*
X143052173Y-98216432D01*
X143096380Y-98151283D01*
X143122079Y-98113862D01*
X143168907Y-98045247D01*
X143210499Y-97982952D01*
X143244825Y-97930129D01*
X143269857Y-97889927D01*
X143283565Y-97865500D01*
X143285544Y-97860024D01*
X143277034Y-97847278D01*
X143253507Y-97820063D01*
X143217968Y-97781428D01*
X143173423Y-97734423D01*
X143122877Y-97682095D01*
X143069336Y-97627495D01*
X143015805Y-97573670D01*
X142965289Y-97523670D01*
X142920794Y-97480543D01*
X142885325Y-97447339D01*
X142861887Y-97427106D01*
X142854046Y-97422278D01*
X142841280Y-97429067D01*
X142810744Y-97448142D01*
X142765410Y-97477561D01*
X142708244Y-97515381D01*
X142642216Y-97559661D01*
X142592410Y-97593395D01*
X142340764Y-97764512D01*
X142131001Y-97678041D01*
X141921237Y-97591570D01*
X141864389Y-97290018D01*
X141807540Y-96988466D01*
X141179885Y-96988466D01*
X141123036Y-97290018D01*
M02*
