G04 #@! TF.GenerationSoftware,KiCad,Pcbnew,(5.1.8)-1*
G04 #@! TF.CreationDate,2020-12-10T13:26:07-05:00*
G04 #@! TF.ProjectId,dl3000-adapters,646c3330-3030-42d6-9164-617074657273,rev?*
G04 #@! TF.SameCoordinates,Original*
G04 #@! TF.FileFunction,Legend,Top*
G04 #@! TF.FilePolarity,Positive*
%FSLAX46Y46*%
G04 Gerber Fmt 4.6, Leading zero omitted, Abs format (unit mm)*
G04 Created by KiCad (PCBNEW (5.1.8)-1) date 2020-12-10 13:26:07*
%MOMM*%
%LPD*%
G01*
G04 APERTURE LIST*
%ADD10C,0.150000*%
%ADD11C,0.381000*%
%ADD12C,0.120000*%
%ADD13C,0.100000*%
G04 APERTURE END LIST*
D10*
X178450000Y-69000000D02*
X176450000Y-69000000D01*
X178450000Y-69000000D02*
X178450000Y-67000000D01*
X178450000Y-61500000D02*
X176450000Y-61500000D01*
X178450000Y-63500000D02*
X178450000Y-61500000D01*
X157450000Y-63500000D02*
X157450000Y-61500000D01*
X157450000Y-69000000D02*
X157450000Y-67000000D01*
X159450000Y-69000000D02*
X157450000Y-69000000D01*
X159450000Y-61500000D02*
X157450000Y-61500000D01*
X121550000Y-61500000D02*
X123550000Y-61500000D01*
X121550000Y-61500000D02*
X121550000Y-63500000D01*
X121550000Y-69000000D02*
X123550000Y-69000000D01*
X121550000Y-67000000D02*
X121550000Y-69000000D01*
X142550000Y-67000000D02*
X142550000Y-69000000D01*
X142550000Y-61500000D02*
X142550000Y-63500000D01*
X140550000Y-61500000D02*
X142550000Y-61500000D01*
X140550000Y-69000000D02*
X142550000Y-69000000D01*
D11*
X156650500Y-95897000D02*
X159000000Y-92404500D01*
X161349500Y-95897000D02*
X156650500Y-95897000D01*
X159000000Y-92404500D02*
X161349500Y-95897000D01*
X159101600Y-93331600D02*
X158542800Y-94449200D01*
X158542800Y-94449200D02*
X159177800Y-94322200D01*
X159177800Y-94322200D02*
X158720600Y-95338200D01*
X158695200Y-94931800D02*
X158720600Y-95338200D01*
X158720600Y-95338200D02*
X159101600Y-95033400D01*
X145301000Y-53294000D02*
X150000000Y-46309000D01*
X154699000Y-53294000D02*
X145301000Y-53294000D01*
X150000000Y-46309000D02*
X154699000Y-53294000D01*
X149502160Y-52699640D02*
X149400560Y-51800480D01*
X150299720Y-49900560D02*
X149502160Y-52699640D01*
X149100840Y-50700660D02*
X150299720Y-49900560D01*
X149900940Y-47700920D02*
X149100840Y-50700660D01*
X149502160Y-52699640D02*
X150101600Y-52001140D01*
X149100840Y-50700660D02*
X150401320Y-47899040D01*
X150701040Y-49600840D02*
X150101600Y-49999620D01*
X149502160Y-52699640D02*
X150701040Y-49600840D01*
D12*
X145236411Y-98287337D02*
G75*
G03*
X145250000Y-101750000I4763589J-1712663D01*
G01*
X148287337Y-104763589D02*
G75*
G03*
X151750000Y-104750000I1712663J4763589D01*
G01*
X154763589Y-101712663D02*
G75*
G03*
X154750000Y-98250000I-4763589J1712663D01*
G01*
X151712663Y-95236411D02*
G75*
G03*
X148250000Y-95250000I-1712663J-4763589D01*
G01*
D13*
G36*
X143000000Y-50500000D02*
G01*
X140000000Y-50500000D01*
X140000000Y-49500000D01*
X143000000Y-49500000D01*
X143000000Y-50500000D01*
G37*
X143000000Y-50500000D02*
X140000000Y-50500000D01*
X140000000Y-49500000D01*
X143000000Y-49500000D01*
X143000000Y-50500000D01*
G36*
X159000000Y-49500000D02*
G01*
X160000000Y-49500000D01*
X160000000Y-50500000D01*
X159000000Y-50500000D01*
X159000000Y-51500000D01*
X158000000Y-51500000D01*
X158000000Y-50500000D01*
X157000000Y-50500000D01*
X157000000Y-49500000D01*
X158000000Y-49500000D01*
X158000000Y-48500000D01*
X159000000Y-48500000D01*
X159000000Y-49500000D01*
G37*
X159000000Y-49500000D02*
X160000000Y-49500000D01*
X160000000Y-50500000D01*
X159000000Y-50500000D01*
X159000000Y-51500000D01*
X158000000Y-51500000D01*
X158000000Y-50500000D01*
X157000000Y-50500000D01*
X157000000Y-49500000D01*
X158000000Y-49500000D01*
X158000000Y-48500000D01*
X159000000Y-48500000D01*
X159000000Y-49500000D01*
G36*
X159000000Y-99500000D02*
G01*
X160000000Y-99500000D01*
X160000000Y-100500000D01*
X159000000Y-100500000D01*
X159000000Y-101500000D01*
X158000000Y-101500000D01*
X158000000Y-100500000D01*
X157000000Y-100500000D01*
X157000000Y-99500000D01*
X158000000Y-99500000D01*
X158000000Y-98500000D01*
X159000000Y-98500000D01*
X159000000Y-99500000D01*
G37*
X159000000Y-99500000D02*
X160000000Y-99500000D01*
X160000000Y-100500000D01*
X159000000Y-100500000D01*
X159000000Y-101500000D01*
X158000000Y-101500000D01*
X158000000Y-100500000D01*
X157000000Y-100500000D01*
X157000000Y-99500000D01*
X158000000Y-99500000D01*
X158000000Y-98500000D01*
X159000000Y-98500000D01*
X159000000Y-99500000D01*
G36*
X143000000Y-100500000D02*
G01*
X140000000Y-100500000D01*
X140000000Y-99500000D01*
X143000000Y-99500000D01*
X143000000Y-100500000D01*
G37*
X143000000Y-100500000D02*
X140000000Y-100500000D01*
X140000000Y-99500000D01*
X143000000Y-99500000D01*
X143000000Y-100500000D01*
M02*
