M48
; DRILL file {KiCad (5.1.8)-1} date 12/10/20 13:26:10
; FORMAT={-:-/ absolute / inch / decimal}
; #@! TF.CreationDate,2020-12-10T13:26:10-05:00
; #@! TF.GenerationSoftware,Kicad,Pcbnew,(5.1.8)-1
; #@! TF.FileFunction,Plated,1,2,PTH
FMAT,2
INCH
T1C0.0276
T2C0.0500
T3C0.0600
T4C0.2756
%
G90
G05
T2
X5.9055Y-3.937
T3
X5.7805Y-3.812
X5.7805Y-4.062
X6.0305Y-3.812
X6.0305Y-4.062
T4
X5.1378Y-1.9685
X6.6732Y-1.9685
X5.1378Y-3.937
X6.6732Y-3.937
T1
G00X6.2087Y-2.5925
M15
G01X6.2087Y-2.5453
M16
G05
G00X6.5094Y-2.5925
M15
G01X6.5094Y-2.5453
M16
G05
G00X6.9094Y-2.5925
M15
G01X6.9094Y-2.5453
M16
G05
G00X4.9016Y-2.5453
M15
G01X4.9016Y-2.5925
M16
G05
G00X5.3016Y-2.5453
M15
G01X5.3016Y-2.5925
M16
G05
G00X5.6024Y-2.5453
M15
G01X5.6024Y-2.5925
M16
G05
T0
M30
