G04 #@! TF.GenerationSoftware,KiCad,Pcbnew,(5.1.8)-1*
G04 #@! TF.CreationDate,2020-12-10T13:26:07-05:00*
G04 #@! TF.ProjectId,dl3000-adapters,646c3330-3030-42d6-9164-617074657273,rev?*
G04 #@! TF.SameCoordinates,Original*
G04 #@! TF.FileFunction,Copper,L1,Top*
G04 #@! TF.FilePolarity,Positive*
%FSLAX46Y46*%
G04 Gerber Fmt 4.6, Leading zero omitted, Abs format (unit mm)*
G04 Created by KiCad (PCBNEW (5.1.8)-1) date 2020-12-10 13:26:07*
%MOMM*%
%LPD*%
G01*
G04 APERTURE LIST*
G04 #@! TA.AperFunction,ComponentPad*
%ADD10C,3.810000*%
G04 #@! TD*
G04 #@! TA.AperFunction,ComponentPad*
%ADD11C,3.556000*%
G04 #@! TD*
G04 #@! TA.AperFunction,ComponentPad*
%ADD12C,15.000000*%
G04 #@! TD*
G04 #@! TA.AperFunction,Conductor*
%ADD13C,0.125400*%
G04 #@! TD*
G04 #@! TA.AperFunction,Conductor*
%ADD14C,0.100000*%
G04 #@! TD*
G04 APERTURE END LIST*
G04 #@! TA.AperFunction,ComponentPad*
G36*
G01*
X166040000Y-64300000D02*
X166040000Y-66200000D01*
G75*
G02*
X165690000Y-66550000I-350000J0D01*
G01*
X164990000Y-66550000D01*
G75*
G02*
X164640000Y-66200000I0J350000D01*
G01*
X164640000Y-64300000D01*
G75*
G02*
X164990000Y-63950000I350000J0D01*
G01*
X165690000Y-63950000D01*
G75*
G02*
X166040000Y-64300000I0J-350000D01*
G01*
G37*
G04 #@! TD.AperFunction*
G04 #@! TA.AperFunction,ComponentPad*
G36*
G01*
X158400000Y-64300000D02*
X158400000Y-66200000D01*
G75*
G02*
X158050000Y-66550000I-350000J0D01*
G01*
X157350000Y-66550000D01*
G75*
G02*
X157000000Y-66200000I0J350000D01*
G01*
X157000000Y-64300000D01*
G75*
G02*
X157350000Y-63950000I350000J0D01*
G01*
X158050000Y-63950000D01*
G75*
G02*
X158400000Y-64300000I0J-350000D01*
G01*
G37*
G04 #@! TD.AperFunction*
G04 #@! TA.AperFunction,ComponentPad*
G36*
G01*
X176200000Y-64300000D02*
X176200000Y-66200000D01*
G75*
G02*
X175850000Y-66550000I-350000J0D01*
G01*
X175150000Y-66550000D01*
G75*
G02*
X174800000Y-66200000I0J350000D01*
G01*
X174800000Y-64300000D01*
G75*
G02*
X175150000Y-63950000I350000J0D01*
G01*
X175850000Y-63950000D01*
G75*
G02*
X176200000Y-64300000I0J-350000D01*
G01*
G37*
G04 #@! TD.AperFunction*
G04 #@! TA.AperFunction,ComponentPad*
G36*
G01*
X133960000Y-66200000D02*
X133960000Y-64300000D01*
G75*
G02*
X134310000Y-63950000I350000J0D01*
G01*
X135010000Y-63950000D01*
G75*
G02*
X135360000Y-64300000I0J-350000D01*
G01*
X135360000Y-66200000D01*
G75*
G02*
X135010000Y-66550000I-350000J0D01*
G01*
X134310000Y-66550000D01*
G75*
G02*
X133960000Y-66200000I0J350000D01*
G01*
G37*
G04 #@! TD.AperFunction*
G04 #@! TA.AperFunction,ComponentPad*
G36*
G01*
X141600000Y-66200000D02*
X141600000Y-64300000D01*
G75*
G02*
X141950000Y-63950000I350000J0D01*
G01*
X142650000Y-63950000D01*
G75*
G02*
X143000000Y-64300000I0J-350000D01*
G01*
X143000000Y-66200000D01*
G75*
G02*
X142650000Y-66550000I-350000J0D01*
G01*
X141950000Y-66550000D01*
G75*
G02*
X141600000Y-66200000I0J350000D01*
G01*
G37*
G04 #@! TD.AperFunction*
G04 #@! TA.AperFunction,ComponentPad*
G36*
G01*
X123800000Y-66200000D02*
X123800000Y-64300000D01*
G75*
G02*
X124150000Y-63950000I350000J0D01*
G01*
X124850000Y-63950000D01*
G75*
G02*
X125200000Y-64300000I0J-350000D01*
G01*
X125200000Y-66200000D01*
G75*
G02*
X124850000Y-66550000I-350000J0D01*
G01*
X124150000Y-66550000D01*
G75*
G02*
X123800000Y-66200000I0J350000D01*
G01*
G37*
G04 #@! TD.AperFunction*
D10*
X146825000Y-96825000D03*
D11*
X150000000Y-100000000D03*
D10*
X153175000Y-96825000D03*
X146825000Y-103175000D03*
X153175000Y-103175000D03*
D12*
X130500000Y-50000000D03*
X169500000Y-50000000D03*
X169500000Y-100000000D03*
X130500000Y-100000000D03*
D13*
X155264205Y-97581439D02*
X155346188Y-97344400D01*
X155405800Y-96910842D01*
X155379683Y-96473985D01*
X155268841Y-96050618D01*
X155203140Y-95892003D01*
X154975084Y-95643352D01*
X153793436Y-96825000D01*
X153807578Y-96839142D01*
X153189142Y-97457578D01*
X153175000Y-97443436D01*
X152081136Y-98537300D01*
X151706129Y-98537300D01*
X151428363Y-98259534D01*
X151061370Y-98014317D01*
X150653588Y-97845409D01*
X150220690Y-97759300D01*
X149779310Y-97759300D01*
X149346412Y-97845409D01*
X148938630Y-98014317D01*
X148571637Y-98259534D01*
X148259534Y-98571637D01*
X148014317Y-98938630D01*
X147845409Y-99346412D01*
X147759300Y-99779310D01*
X147759300Y-100220690D01*
X147845409Y-100653588D01*
X148014317Y-101061370D01*
X148259534Y-101428363D01*
X148571637Y-101740466D01*
X148938630Y-101985683D01*
X149346412Y-102154591D01*
X149779310Y-102240700D01*
X150220690Y-102240700D01*
X150653588Y-102154591D01*
X151061370Y-101985683D01*
X151428363Y-101740466D01*
X151706129Y-101462700D01*
X152081136Y-101462700D01*
X153175000Y-102556564D01*
X153189142Y-102542422D01*
X153807578Y-103160858D01*
X153793436Y-103175000D01*
X154975084Y-104356648D01*
X155203140Y-104107997D01*
X155346188Y-103694400D01*
X155405800Y-103260842D01*
X155379683Y-102823985D01*
X155276849Y-102431205D01*
X161357944Y-108512300D01*
X140062700Y-108512300D01*
X140062700Y-104975084D01*
X145643352Y-104975084D01*
X145892003Y-105203140D01*
X146305600Y-105346188D01*
X146739158Y-105405800D01*
X147176015Y-105379683D01*
X147599382Y-105268841D01*
X147757997Y-105203140D01*
X148006648Y-104975084D01*
X151993352Y-104975084D01*
X152242003Y-105203140D01*
X152655600Y-105346188D01*
X153089158Y-105405800D01*
X153526015Y-105379683D01*
X153949382Y-105268841D01*
X154107997Y-105203140D01*
X154356648Y-104975084D01*
X153175000Y-103793436D01*
X151993352Y-104975084D01*
X148006648Y-104975084D01*
X146825000Y-103793436D01*
X145643352Y-104975084D01*
X140062700Y-104975084D01*
X140062700Y-103089158D01*
X144594200Y-103089158D01*
X144620317Y-103526015D01*
X144731159Y-103949382D01*
X144796860Y-104107997D01*
X145024916Y-104356648D01*
X146206564Y-103175000D01*
X147443436Y-103175000D01*
X148625084Y-104356648D01*
X148853140Y-104107997D01*
X148996188Y-103694400D01*
X149055800Y-103260842D01*
X149045537Y-103089158D01*
X150944200Y-103089158D01*
X150970317Y-103526015D01*
X151081159Y-103949382D01*
X151146860Y-104107997D01*
X151374916Y-104356648D01*
X152556564Y-103175000D01*
X151374916Y-101993352D01*
X151146860Y-102242003D01*
X151003812Y-102655600D01*
X150944200Y-103089158D01*
X149045537Y-103089158D01*
X149029683Y-102823985D01*
X148918841Y-102400618D01*
X148853140Y-102242003D01*
X148625084Y-101993352D01*
X147443436Y-103175000D01*
X146206564Y-103175000D01*
X145024916Y-101993352D01*
X144796860Y-102242003D01*
X144653812Y-102655600D01*
X144594200Y-103089158D01*
X140062700Y-103089158D01*
X140062700Y-101374916D01*
X145643352Y-101374916D01*
X146825000Y-102556564D01*
X148006648Y-101374916D01*
X147757997Y-101146860D01*
X147344400Y-101003812D01*
X146910842Y-100944200D01*
X146473985Y-100970317D01*
X146050618Y-101081159D01*
X145892003Y-101146860D01*
X145643352Y-101374916D01*
X140062700Y-101374916D01*
X140062700Y-98625084D01*
X145643352Y-98625084D01*
X145892003Y-98853140D01*
X146305600Y-98996188D01*
X146739158Y-99055800D01*
X147176015Y-99029683D01*
X147599382Y-98918841D01*
X147757997Y-98853140D01*
X148006648Y-98625084D01*
X146825000Y-97443436D01*
X145643352Y-98625084D01*
X140062700Y-98625084D01*
X140062700Y-96739158D01*
X144594200Y-96739158D01*
X144620317Y-97176015D01*
X144731159Y-97599382D01*
X144796860Y-97757997D01*
X145024916Y-98006648D01*
X146206564Y-96825000D01*
X147443436Y-96825000D01*
X148625084Y-98006648D01*
X148853140Y-97757997D01*
X148996188Y-97344400D01*
X149055800Y-96910842D01*
X149045537Y-96739158D01*
X150944200Y-96739158D01*
X150970317Y-97176015D01*
X151081159Y-97599382D01*
X151146860Y-97757997D01*
X151374916Y-98006648D01*
X152556564Y-96825000D01*
X151374916Y-95643352D01*
X151146860Y-95892003D01*
X151003812Y-96305600D01*
X150944200Y-96739158D01*
X149045537Y-96739158D01*
X149029683Y-96473985D01*
X148918841Y-96050618D01*
X148853140Y-95892003D01*
X148625084Y-95643352D01*
X147443436Y-96825000D01*
X146206564Y-96825000D01*
X145024916Y-95643352D01*
X144796860Y-95892003D01*
X144653812Y-96305600D01*
X144594200Y-96739158D01*
X140062700Y-96739158D01*
X140062700Y-95024916D01*
X145643352Y-95024916D01*
X146825000Y-96206564D01*
X148006648Y-95024916D01*
X151993352Y-95024916D01*
X153175000Y-96206564D01*
X154356648Y-95024916D01*
X154107997Y-94796860D01*
X153694400Y-94653812D01*
X153260842Y-94594200D01*
X152823985Y-94620317D01*
X152400618Y-94731159D01*
X152242003Y-94796860D01*
X151993352Y-95024916D01*
X148006648Y-95024916D01*
X147757997Y-94796860D01*
X147344400Y-94653812D01*
X146910842Y-94594200D01*
X146473985Y-94620317D01*
X146050618Y-94731159D01*
X145892003Y-94796860D01*
X145643352Y-95024916D01*
X140062700Y-95024916D01*
X140062700Y-91487700D01*
X161357944Y-91487700D01*
X155264205Y-97581439D01*
G04 #@! TA.AperFunction,Conductor*
D14*
G36*
X155264205Y-97581439D02*
G01*
X155346188Y-97344400D01*
X155405800Y-96910842D01*
X155379683Y-96473985D01*
X155268841Y-96050618D01*
X155203140Y-95892003D01*
X154975084Y-95643352D01*
X153793436Y-96825000D01*
X153807578Y-96839142D01*
X153189142Y-97457578D01*
X153175000Y-97443436D01*
X152081136Y-98537300D01*
X151706129Y-98537300D01*
X151428363Y-98259534D01*
X151061370Y-98014317D01*
X150653588Y-97845409D01*
X150220690Y-97759300D01*
X149779310Y-97759300D01*
X149346412Y-97845409D01*
X148938630Y-98014317D01*
X148571637Y-98259534D01*
X148259534Y-98571637D01*
X148014317Y-98938630D01*
X147845409Y-99346412D01*
X147759300Y-99779310D01*
X147759300Y-100220690D01*
X147845409Y-100653588D01*
X148014317Y-101061370D01*
X148259534Y-101428363D01*
X148571637Y-101740466D01*
X148938630Y-101985683D01*
X149346412Y-102154591D01*
X149779310Y-102240700D01*
X150220690Y-102240700D01*
X150653588Y-102154591D01*
X151061370Y-101985683D01*
X151428363Y-101740466D01*
X151706129Y-101462700D01*
X152081136Y-101462700D01*
X153175000Y-102556564D01*
X153189142Y-102542422D01*
X153807578Y-103160858D01*
X153793436Y-103175000D01*
X154975084Y-104356648D01*
X155203140Y-104107997D01*
X155346188Y-103694400D01*
X155405800Y-103260842D01*
X155379683Y-102823985D01*
X155276849Y-102431205D01*
X161357944Y-108512300D01*
X140062700Y-108512300D01*
X140062700Y-104975084D01*
X145643352Y-104975084D01*
X145892003Y-105203140D01*
X146305600Y-105346188D01*
X146739158Y-105405800D01*
X147176015Y-105379683D01*
X147599382Y-105268841D01*
X147757997Y-105203140D01*
X148006648Y-104975084D01*
X151993352Y-104975084D01*
X152242003Y-105203140D01*
X152655600Y-105346188D01*
X153089158Y-105405800D01*
X153526015Y-105379683D01*
X153949382Y-105268841D01*
X154107997Y-105203140D01*
X154356648Y-104975084D01*
X153175000Y-103793436D01*
X151993352Y-104975084D01*
X148006648Y-104975084D01*
X146825000Y-103793436D01*
X145643352Y-104975084D01*
X140062700Y-104975084D01*
X140062700Y-103089158D01*
X144594200Y-103089158D01*
X144620317Y-103526015D01*
X144731159Y-103949382D01*
X144796860Y-104107997D01*
X145024916Y-104356648D01*
X146206564Y-103175000D01*
X147443436Y-103175000D01*
X148625084Y-104356648D01*
X148853140Y-104107997D01*
X148996188Y-103694400D01*
X149055800Y-103260842D01*
X149045537Y-103089158D01*
X150944200Y-103089158D01*
X150970317Y-103526015D01*
X151081159Y-103949382D01*
X151146860Y-104107997D01*
X151374916Y-104356648D01*
X152556564Y-103175000D01*
X151374916Y-101993352D01*
X151146860Y-102242003D01*
X151003812Y-102655600D01*
X150944200Y-103089158D01*
X149045537Y-103089158D01*
X149029683Y-102823985D01*
X148918841Y-102400618D01*
X148853140Y-102242003D01*
X148625084Y-101993352D01*
X147443436Y-103175000D01*
X146206564Y-103175000D01*
X145024916Y-101993352D01*
X144796860Y-102242003D01*
X144653812Y-102655600D01*
X144594200Y-103089158D01*
X140062700Y-103089158D01*
X140062700Y-101374916D01*
X145643352Y-101374916D01*
X146825000Y-102556564D01*
X148006648Y-101374916D01*
X147757997Y-101146860D01*
X147344400Y-101003812D01*
X146910842Y-100944200D01*
X146473985Y-100970317D01*
X146050618Y-101081159D01*
X145892003Y-101146860D01*
X145643352Y-101374916D01*
X140062700Y-101374916D01*
X140062700Y-98625084D01*
X145643352Y-98625084D01*
X145892003Y-98853140D01*
X146305600Y-98996188D01*
X146739158Y-99055800D01*
X147176015Y-99029683D01*
X147599382Y-98918841D01*
X147757997Y-98853140D01*
X148006648Y-98625084D01*
X146825000Y-97443436D01*
X145643352Y-98625084D01*
X140062700Y-98625084D01*
X140062700Y-96739158D01*
X144594200Y-96739158D01*
X144620317Y-97176015D01*
X144731159Y-97599382D01*
X144796860Y-97757997D01*
X145024916Y-98006648D01*
X146206564Y-96825000D01*
X147443436Y-96825000D01*
X148625084Y-98006648D01*
X148853140Y-97757997D01*
X148996188Y-97344400D01*
X149055800Y-96910842D01*
X149045537Y-96739158D01*
X150944200Y-96739158D01*
X150970317Y-97176015D01*
X151081159Y-97599382D01*
X151146860Y-97757997D01*
X151374916Y-98006648D01*
X152556564Y-96825000D01*
X151374916Y-95643352D01*
X151146860Y-95892003D01*
X151003812Y-96305600D01*
X150944200Y-96739158D01*
X149045537Y-96739158D01*
X149029683Y-96473985D01*
X148918841Y-96050618D01*
X148853140Y-95892003D01*
X148625084Y-95643352D01*
X147443436Y-96825000D01*
X146206564Y-96825000D01*
X145024916Y-95643352D01*
X144796860Y-95892003D01*
X144653812Y-96305600D01*
X144594200Y-96739158D01*
X140062700Y-96739158D01*
X140062700Y-95024916D01*
X145643352Y-95024916D01*
X146825000Y-96206564D01*
X148006648Y-95024916D01*
X151993352Y-95024916D01*
X153175000Y-96206564D01*
X154356648Y-95024916D01*
X154107997Y-94796860D01*
X153694400Y-94653812D01*
X153260842Y-94594200D01*
X152823985Y-94620317D01*
X152400618Y-94731159D01*
X152242003Y-94796860D01*
X151993352Y-95024916D01*
X148006648Y-95024916D01*
X147757997Y-94796860D01*
X147344400Y-94653812D01*
X146910842Y-94594200D01*
X146473985Y-94620317D01*
X146050618Y-94731159D01*
X145892003Y-94796860D01*
X145643352Y-95024916D01*
X140062700Y-95024916D01*
X140062700Y-91487700D01*
X161357944Y-91487700D01*
X155264205Y-97581439D01*
G37*
G04 #@! TD.AperFunction*
D13*
X170625667Y-91563541D02*
X171731552Y-91786527D01*
X172798235Y-92153817D01*
X173806969Y-92658952D01*
X174740030Y-93293060D01*
X175581040Y-94045010D01*
X176315206Y-94901576D01*
X176929639Y-95847720D01*
X177413538Y-96866812D01*
X177758406Y-97940947D01*
X177958182Y-99051261D01*
X178009359Y-100178248D01*
X177911035Y-101302094D01*
X177664937Y-102403074D01*
X177275391Y-103461827D01*
X176749241Y-104459759D01*
X176095728Y-105379343D01*
X175326337Y-106204415D01*
X174454582Y-106920483D01*
X173495777Y-107514967D01*
X172466773Y-107977419D01*
X171385651Y-108299715D01*
X170266328Y-108476999D01*
X169488932Y-108512300D01*
X162100972Y-108512300D01*
X154544336Y-100955664D01*
X154534834Y-100947867D01*
X154523994Y-100942073D01*
X154512232Y-100938505D01*
X154500000Y-100937300D01*
X153959811Y-100937300D01*
X153865633Y-100898290D01*
X153408198Y-100807300D01*
X152941802Y-100807300D01*
X152484367Y-100898290D01*
X152390189Y-100937300D01*
X150062700Y-100937300D01*
X150062700Y-99062700D01*
X152390189Y-99062700D01*
X152484367Y-99101710D01*
X152941802Y-99192700D01*
X153408198Y-99192700D01*
X153865633Y-99101710D01*
X153959811Y-99062700D01*
X154500000Y-99062700D01*
X154512232Y-99061495D01*
X154523994Y-99057927D01*
X154534834Y-99052133D01*
X154544336Y-99044336D01*
X162100972Y-91487700D01*
X169483818Y-91487700D01*
X170625667Y-91563541D01*
G04 #@! TA.AperFunction,Conductor*
D14*
G36*
X170625667Y-91563541D02*
G01*
X171731552Y-91786527D01*
X172798235Y-92153817D01*
X173806969Y-92658952D01*
X174740030Y-93293060D01*
X175581040Y-94045010D01*
X176315206Y-94901576D01*
X176929639Y-95847720D01*
X177413538Y-96866812D01*
X177758406Y-97940947D01*
X177958182Y-99051261D01*
X178009359Y-100178248D01*
X177911035Y-101302094D01*
X177664937Y-102403074D01*
X177275391Y-103461827D01*
X176749241Y-104459759D01*
X176095728Y-105379343D01*
X175326337Y-106204415D01*
X174454582Y-106920483D01*
X173495777Y-107514967D01*
X172466773Y-107977419D01*
X171385651Y-108299715D01*
X170266328Y-108476999D01*
X169488932Y-108512300D01*
X162100972Y-108512300D01*
X154544336Y-100955664D01*
X154534834Y-100947867D01*
X154523994Y-100942073D01*
X154512232Y-100938505D01*
X154500000Y-100937300D01*
X153959811Y-100937300D01*
X153865633Y-100898290D01*
X153408198Y-100807300D01*
X152941802Y-100807300D01*
X152484367Y-100898290D01*
X152390189Y-100937300D01*
X150062700Y-100937300D01*
X150062700Y-99062700D01*
X152390189Y-99062700D01*
X152484367Y-99101710D01*
X152941802Y-99192700D01*
X153408198Y-99192700D01*
X153865633Y-99101710D01*
X153959811Y-99062700D01*
X154500000Y-99062700D01*
X154512232Y-99061495D01*
X154523994Y-99057927D01*
X154534834Y-99052133D01*
X154544336Y-99044336D01*
X162100972Y-91487700D01*
X169483818Y-91487700D01*
X170625667Y-91563541D01*
G37*
G04 #@! TD.AperFunction*
D13*
X142437300Y-108512300D02*
X130516182Y-108512300D01*
X129374331Y-108436459D01*
X128268448Y-108213472D01*
X127201769Y-107846185D01*
X126193031Y-107341048D01*
X125259965Y-106706937D01*
X124418964Y-105954993D01*
X123684794Y-105098424D01*
X123070364Y-104152286D01*
X122586464Y-103133192D01*
X122241594Y-102059053D01*
X122041818Y-100948739D01*
X121990641Y-99821753D01*
X122088965Y-98697906D01*
X122335064Y-97596925D01*
X122724609Y-96538173D01*
X123250761Y-95540237D01*
X123904275Y-94620653D01*
X124673663Y-93795585D01*
X125545418Y-93079517D01*
X126504221Y-92485035D01*
X127533227Y-92022581D01*
X128614349Y-91700285D01*
X129733672Y-91523001D01*
X130511069Y-91487700D01*
X142437300Y-91487700D01*
X142437300Y-108512300D01*
G04 #@! TA.AperFunction,Conductor*
D14*
G36*
X142437300Y-108512300D02*
G01*
X130516182Y-108512300D01*
X129374331Y-108436459D01*
X128268448Y-108213472D01*
X127201769Y-107846185D01*
X126193031Y-107341048D01*
X125259965Y-106706937D01*
X124418964Y-105954993D01*
X123684794Y-105098424D01*
X123070364Y-104152286D01*
X122586464Y-103133192D01*
X122241594Y-102059053D01*
X122041818Y-100948739D01*
X121990641Y-99821753D01*
X122088965Y-98697906D01*
X122335064Y-97596925D01*
X122724609Y-96538173D01*
X123250761Y-95540237D01*
X123904275Y-94620653D01*
X124673663Y-93795585D01*
X125545418Y-93079517D01*
X126504221Y-92485035D01*
X127533227Y-92022581D01*
X128614349Y-91700285D01*
X129733672Y-91523001D01*
X130511069Y-91487700D01*
X142437300Y-91487700D01*
X142437300Y-108512300D01*
G37*
G04 #@! TD.AperFunction*
D13*
X149437300Y-59937300D02*
X121987700Y-59937300D01*
X121987700Y-50016182D01*
X122063541Y-48874333D01*
X122286527Y-47768448D01*
X122653817Y-46701765D01*
X123158952Y-45693031D01*
X123793060Y-44759970D01*
X124545010Y-43918960D01*
X125401576Y-43184794D01*
X126347720Y-42570361D01*
X127366812Y-42086462D01*
X128440947Y-41741594D01*
X129553781Y-41541364D01*
X130513631Y-41487700D01*
X149437300Y-41487700D01*
X149437300Y-59937300D01*
G04 #@! TA.AperFunction,Conductor*
D14*
G36*
X149437300Y-59937300D02*
G01*
X121987700Y-59937300D01*
X121987700Y-50016182D01*
X122063541Y-48874333D01*
X122286527Y-47768448D01*
X122653817Y-46701765D01*
X123158952Y-45693031D01*
X123793060Y-44759970D01*
X124545010Y-43918960D01*
X125401576Y-43184794D01*
X126347720Y-42570361D01*
X127366812Y-42086462D01*
X128440947Y-41741594D01*
X129553781Y-41541364D01*
X130513631Y-41487700D01*
X149437300Y-41487700D01*
X149437300Y-59937300D01*
G37*
G04 #@! TD.AperFunction*
D13*
X149437300Y-68512300D02*
X121987700Y-68512300D01*
X121987700Y-66550000D01*
X123481768Y-66550000D01*
X123487883Y-66612084D01*
X123505992Y-66671782D01*
X123535400Y-66726800D01*
X123574976Y-66775024D01*
X123623200Y-66814600D01*
X123678218Y-66844008D01*
X123737916Y-66862117D01*
X123800000Y-66868232D01*
X123983525Y-66866700D01*
X124062700Y-66787525D01*
X124062700Y-65687300D01*
X124937300Y-65687300D01*
X124937300Y-66787525D01*
X125016475Y-66866700D01*
X125200000Y-66868232D01*
X125262084Y-66862117D01*
X125321782Y-66844008D01*
X125376800Y-66814600D01*
X125425024Y-66775024D01*
X125464600Y-66726800D01*
X125494008Y-66671782D01*
X125512117Y-66612084D01*
X125518232Y-66550000D01*
X133641768Y-66550000D01*
X133647883Y-66612084D01*
X133665992Y-66671782D01*
X133695400Y-66726800D01*
X133734976Y-66775024D01*
X133783200Y-66814600D01*
X133838218Y-66844008D01*
X133897916Y-66862117D01*
X133960000Y-66868232D01*
X134143525Y-66866700D01*
X134222700Y-66787525D01*
X134222700Y-65687300D01*
X135097300Y-65687300D01*
X135097300Y-66787525D01*
X135176475Y-66866700D01*
X135360000Y-66868232D01*
X135422084Y-66862117D01*
X135481782Y-66844008D01*
X135536800Y-66814600D01*
X135585024Y-66775024D01*
X135624600Y-66726800D01*
X135654008Y-66671782D01*
X135672117Y-66612084D01*
X135678232Y-66550000D01*
X141281768Y-66550000D01*
X141287883Y-66612084D01*
X141305992Y-66671782D01*
X141335400Y-66726800D01*
X141374976Y-66775024D01*
X141423200Y-66814600D01*
X141478218Y-66844008D01*
X141537916Y-66862117D01*
X141600000Y-66868232D01*
X141783525Y-66866700D01*
X141862700Y-66787525D01*
X141862700Y-65687300D01*
X142737300Y-65687300D01*
X142737300Y-66787525D01*
X142816475Y-66866700D01*
X143000000Y-66868232D01*
X143062084Y-66862117D01*
X143121782Y-66844008D01*
X143176800Y-66814600D01*
X143225024Y-66775024D01*
X143264600Y-66726800D01*
X143294008Y-66671782D01*
X143312117Y-66612084D01*
X143318232Y-66550000D01*
X143316700Y-65766475D01*
X143237525Y-65687300D01*
X142737300Y-65687300D01*
X141862700Y-65687300D01*
X141362475Y-65687300D01*
X141283300Y-65766475D01*
X141281768Y-66550000D01*
X135678232Y-66550000D01*
X135676700Y-65766475D01*
X135597525Y-65687300D01*
X135097300Y-65687300D01*
X134222700Y-65687300D01*
X133722475Y-65687300D01*
X133643300Y-65766475D01*
X133641768Y-66550000D01*
X125518232Y-66550000D01*
X125516700Y-65766475D01*
X125437525Y-65687300D01*
X124937300Y-65687300D01*
X124062700Y-65687300D01*
X123562475Y-65687300D01*
X123483300Y-65766475D01*
X123481768Y-66550000D01*
X121987700Y-66550000D01*
X121987700Y-63950000D01*
X123481768Y-63950000D01*
X123483300Y-64733525D01*
X123562475Y-64812700D01*
X124062700Y-64812700D01*
X124062700Y-63712475D01*
X124937300Y-63712475D01*
X124937300Y-64812700D01*
X125437525Y-64812700D01*
X125516700Y-64733525D01*
X125518232Y-63950000D01*
X133641768Y-63950000D01*
X133643300Y-64733525D01*
X133722475Y-64812700D01*
X134222700Y-64812700D01*
X134222700Y-63712475D01*
X135097300Y-63712475D01*
X135097300Y-64812700D01*
X135597525Y-64812700D01*
X135676700Y-64733525D01*
X135678232Y-63950000D01*
X141281768Y-63950000D01*
X141283300Y-64733525D01*
X141362475Y-64812700D01*
X141862700Y-64812700D01*
X141862700Y-63712475D01*
X142737300Y-63712475D01*
X142737300Y-64812700D01*
X143237525Y-64812700D01*
X143316700Y-64733525D01*
X143318232Y-63950000D01*
X143312117Y-63887916D01*
X143294008Y-63828218D01*
X143264600Y-63773200D01*
X143225024Y-63724976D01*
X143176800Y-63685400D01*
X143121782Y-63655992D01*
X143062084Y-63637883D01*
X143000000Y-63631768D01*
X142816475Y-63633300D01*
X142737300Y-63712475D01*
X141862700Y-63712475D01*
X141783525Y-63633300D01*
X141600000Y-63631768D01*
X141537916Y-63637883D01*
X141478218Y-63655992D01*
X141423200Y-63685400D01*
X141374976Y-63724976D01*
X141335400Y-63773200D01*
X141305992Y-63828218D01*
X141287883Y-63887916D01*
X141281768Y-63950000D01*
X135678232Y-63950000D01*
X135672117Y-63887916D01*
X135654008Y-63828218D01*
X135624600Y-63773200D01*
X135585024Y-63724976D01*
X135536800Y-63685400D01*
X135481782Y-63655992D01*
X135422084Y-63637883D01*
X135360000Y-63631768D01*
X135176475Y-63633300D01*
X135097300Y-63712475D01*
X134222700Y-63712475D01*
X134143525Y-63633300D01*
X133960000Y-63631768D01*
X133897916Y-63637883D01*
X133838218Y-63655992D01*
X133783200Y-63685400D01*
X133734976Y-63724976D01*
X133695400Y-63773200D01*
X133665992Y-63828218D01*
X133647883Y-63887916D01*
X133641768Y-63950000D01*
X125518232Y-63950000D01*
X125512117Y-63887916D01*
X125494008Y-63828218D01*
X125464600Y-63773200D01*
X125425024Y-63724976D01*
X125376800Y-63685400D01*
X125321782Y-63655992D01*
X125262084Y-63637883D01*
X125200000Y-63631768D01*
X125016475Y-63633300D01*
X124937300Y-63712475D01*
X124062700Y-63712475D01*
X123983525Y-63633300D01*
X123800000Y-63631768D01*
X123737916Y-63637883D01*
X123678218Y-63655992D01*
X123623200Y-63685400D01*
X123574976Y-63724976D01*
X123535400Y-63773200D01*
X123505992Y-63828218D01*
X123487883Y-63887916D01*
X123481768Y-63950000D01*
X121987700Y-63950000D01*
X121987700Y-58562700D01*
X149437300Y-58562700D01*
X149437300Y-68512300D01*
G04 #@! TA.AperFunction,Conductor*
D14*
G36*
X149437300Y-68512300D02*
G01*
X121987700Y-68512300D01*
X121987700Y-66550000D01*
X123481768Y-66550000D01*
X123487883Y-66612084D01*
X123505992Y-66671782D01*
X123535400Y-66726800D01*
X123574976Y-66775024D01*
X123623200Y-66814600D01*
X123678218Y-66844008D01*
X123737916Y-66862117D01*
X123800000Y-66868232D01*
X123983525Y-66866700D01*
X124062700Y-66787525D01*
X124062700Y-65687300D01*
X124937300Y-65687300D01*
X124937300Y-66787525D01*
X125016475Y-66866700D01*
X125200000Y-66868232D01*
X125262084Y-66862117D01*
X125321782Y-66844008D01*
X125376800Y-66814600D01*
X125425024Y-66775024D01*
X125464600Y-66726800D01*
X125494008Y-66671782D01*
X125512117Y-66612084D01*
X125518232Y-66550000D01*
X133641768Y-66550000D01*
X133647883Y-66612084D01*
X133665992Y-66671782D01*
X133695400Y-66726800D01*
X133734976Y-66775024D01*
X133783200Y-66814600D01*
X133838218Y-66844008D01*
X133897916Y-66862117D01*
X133960000Y-66868232D01*
X134143525Y-66866700D01*
X134222700Y-66787525D01*
X134222700Y-65687300D01*
X135097300Y-65687300D01*
X135097300Y-66787525D01*
X135176475Y-66866700D01*
X135360000Y-66868232D01*
X135422084Y-66862117D01*
X135481782Y-66844008D01*
X135536800Y-66814600D01*
X135585024Y-66775024D01*
X135624600Y-66726800D01*
X135654008Y-66671782D01*
X135672117Y-66612084D01*
X135678232Y-66550000D01*
X141281768Y-66550000D01*
X141287883Y-66612084D01*
X141305992Y-66671782D01*
X141335400Y-66726800D01*
X141374976Y-66775024D01*
X141423200Y-66814600D01*
X141478218Y-66844008D01*
X141537916Y-66862117D01*
X141600000Y-66868232D01*
X141783525Y-66866700D01*
X141862700Y-66787525D01*
X141862700Y-65687300D01*
X142737300Y-65687300D01*
X142737300Y-66787525D01*
X142816475Y-66866700D01*
X143000000Y-66868232D01*
X143062084Y-66862117D01*
X143121782Y-66844008D01*
X143176800Y-66814600D01*
X143225024Y-66775024D01*
X143264600Y-66726800D01*
X143294008Y-66671782D01*
X143312117Y-66612084D01*
X143318232Y-66550000D01*
X143316700Y-65766475D01*
X143237525Y-65687300D01*
X142737300Y-65687300D01*
X141862700Y-65687300D01*
X141362475Y-65687300D01*
X141283300Y-65766475D01*
X141281768Y-66550000D01*
X135678232Y-66550000D01*
X135676700Y-65766475D01*
X135597525Y-65687300D01*
X135097300Y-65687300D01*
X134222700Y-65687300D01*
X133722475Y-65687300D01*
X133643300Y-65766475D01*
X133641768Y-66550000D01*
X125518232Y-66550000D01*
X125516700Y-65766475D01*
X125437525Y-65687300D01*
X124937300Y-65687300D01*
X124062700Y-65687300D01*
X123562475Y-65687300D01*
X123483300Y-65766475D01*
X123481768Y-66550000D01*
X121987700Y-66550000D01*
X121987700Y-63950000D01*
X123481768Y-63950000D01*
X123483300Y-64733525D01*
X123562475Y-64812700D01*
X124062700Y-64812700D01*
X124062700Y-63712475D01*
X124937300Y-63712475D01*
X124937300Y-64812700D01*
X125437525Y-64812700D01*
X125516700Y-64733525D01*
X125518232Y-63950000D01*
X133641768Y-63950000D01*
X133643300Y-64733525D01*
X133722475Y-64812700D01*
X134222700Y-64812700D01*
X134222700Y-63712475D01*
X135097300Y-63712475D01*
X135097300Y-64812700D01*
X135597525Y-64812700D01*
X135676700Y-64733525D01*
X135678232Y-63950000D01*
X141281768Y-63950000D01*
X141283300Y-64733525D01*
X141362475Y-64812700D01*
X141862700Y-64812700D01*
X141862700Y-63712475D01*
X142737300Y-63712475D01*
X142737300Y-64812700D01*
X143237525Y-64812700D01*
X143316700Y-64733525D01*
X143318232Y-63950000D01*
X143312117Y-63887916D01*
X143294008Y-63828218D01*
X143264600Y-63773200D01*
X143225024Y-63724976D01*
X143176800Y-63685400D01*
X143121782Y-63655992D01*
X143062084Y-63637883D01*
X143000000Y-63631768D01*
X142816475Y-63633300D01*
X142737300Y-63712475D01*
X141862700Y-63712475D01*
X141783525Y-63633300D01*
X141600000Y-63631768D01*
X141537916Y-63637883D01*
X141478218Y-63655992D01*
X141423200Y-63685400D01*
X141374976Y-63724976D01*
X141335400Y-63773200D01*
X141305992Y-63828218D01*
X141287883Y-63887916D01*
X141281768Y-63950000D01*
X135678232Y-63950000D01*
X135672117Y-63887916D01*
X135654008Y-63828218D01*
X135624600Y-63773200D01*
X135585024Y-63724976D01*
X135536800Y-63685400D01*
X135481782Y-63655992D01*
X135422084Y-63637883D01*
X135360000Y-63631768D01*
X135176475Y-63633300D01*
X135097300Y-63712475D01*
X134222700Y-63712475D01*
X134143525Y-63633300D01*
X133960000Y-63631768D01*
X133897916Y-63637883D01*
X133838218Y-63655992D01*
X133783200Y-63685400D01*
X133734976Y-63724976D01*
X133695400Y-63773200D01*
X133665992Y-63828218D01*
X133647883Y-63887916D01*
X133641768Y-63950000D01*
X125518232Y-63950000D01*
X125512117Y-63887916D01*
X125494008Y-63828218D01*
X125464600Y-63773200D01*
X125425024Y-63724976D01*
X125376800Y-63685400D01*
X125321782Y-63655992D01*
X125262084Y-63637883D01*
X125200000Y-63631768D01*
X125016475Y-63633300D01*
X124937300Y-63712475D01*
X124062700Y-63712475D01*
X123983525Y-63633300D01*
X123800000Y-63631768D01*
X123737916Y-63637883D01*
X123678218Y-63655992D01*
X123623200Y-63685400D01*
X123574976Y-63724976D01*
X123535400Y-63773200D01*
X123505992Y-63828218D01*
X123487883Y-63887916D01*
X123481768Y-63950000D01*
X121987700Y-63950000D01*
X121987700Y-58562700D01*
X149437300Y-58562700D01*
X149437300Y-68512300D01*
G37*
G04 #@! TD.AperFunction*
D13*
X170625667Y-41563541D02*
X171731552Y-41786527D01*
X172798235Y-42153817D01*
X173806969Y-42658952D01*
X174740030Y-43293060D01*
X175581040Y-44045010D01*
X176315206Y-44901576D01*
X176929639Y-45847720D01*
X177413538Y-46866812D01*
X177758406Y-47940947D01*
X177958636Y-49053781D01*
X178012301Y-50013649D01*
X178012300Y-59937300D01*
X150562700Y-59937300D01*
X150562700Y-41487700D01*
X169483818Y-41487700D01*
X170625667Y-41563541D01*
G04 #@! TA.AperFunction,Conductor*
D14*
G36*
X170625667Y-41563541D02*
G01*
X171731552Y-41786527D01*
X172798235Y-42153817D01*
X173806969Y-42658952D01*
X174740030Y-43293060D01*
X175581040Y-44045010D01*
X176315206Y-44901576D01*
X176929639Y-45847720D01*
X177413538Y-46866812D01*
X177758406Y-47940947D01*
X177958636Y-49053781D01*
X178012301Y-50013649D01*
X178012300Y-59937300D01*
X150562700Y-59937300D01*
X150562700Y-41487700D01*
X169483818Y-41487700D01*
X170625667Y-41563541D01*
G37*
G04 #@! TD.AperFunction*
D13*
X178012300Y-68512300D02*
X150562700Y-68512300D01*
X150562700Y-66550000D01*
X156681768Y-66550000D01*
X156687883Y-66612084D01*
X156705992Y-66671782D01*
X156735400Y-66726800D01*
X156774976Y-66775024D01*
X156823200Y-66814600D01*
X156878218Y-66844008D01*
X156937916Y-66862117D01*
X157000000Y-66868232D01*
X157183525Y-66866700D01*
X157262700Y-66787525D01*
X157262700Y-65687300D01*
X158137300Y-65687300D01*
X158137300Y-66787525D01*
X158216475Y-66866700D01*
X158400000Y-66868232D01*
X158462084Y-66862117D01*
X158521782Y-66844008D01*
X158576800Y-66814600D01*
X158625024Y-66775024D01*
X158664600Y-66726800D01*
X158694008Y-66671782D01*
X158712117Y-66612084D01*
X158718232Y-66550000D01*
X164321768Y-66550000D01*
X164327883Y-66612084D01*
X164345992Y-66671782D01*
X164375400Y-66726800D01*
X164414976Y-66775024D01*
X164463200Y-66814600D01*
X164518218Y-66844008D01*
X164577916Y-66862117D01*
X164640000Y-66868232D01*
X164823525Y-66866700D01*
X164902700Y-66787525D01*
X164902700Y-65687300D01*
X165777300Y-65687300D01*
X165777300Y-66787525D01*
X165856475Y-66866700D01*
X166040000Y-66868232D01*
X166102084Y-66862117D01*
X166161782Y-66844008D01*
X166216800Y-66814600D01*
X166265024Y-66775024D01*
X166304600Y-66726800D01*
X166334008Y-66671782D01*
X166352117Y-66612084D01*
X166358232Y-66550000D01*
X174481768Y-66550000D01*
X174487883Y-66612084D01*
X174505992Y-66671782D01*
X174535400Y-66726800D01*
X174574976Y-66775024D01*
X174623200Y-66814600D01*
X174678218Y-66844008D01*
X174737916Y-66862117D01*
X174800000Y-66868232D01*
X174983525Y-66866700D01*
X175062700Y-66787525D01*
X175062700Y-65687300D01*
X175937300Y-65687300D01*
X175937300Y-66787525D01*
X176016475Y-66866700D01*
X176200000Y-66868232D01*
X176262084Y-66862117D01*
X176321782Y-66844008D01*
X176376800Y-66814600D01*
X176425024Y-66775024D01*
X176464600Y-66726800D01*
X176494008Y-66671782D01*
X176512117Y-66612084D01*
X176518232Y-66550000D01*
X176516700Y-65766475D01*
X176437525Y-65687300D01*
X175937300Y-65687300D01*
X175062700Y-65687300D01*
X174562475Y-65687300D01*
X174483300Y-65766475D01*
X174481768Y-66550000D01*
X166358232Y-66550000D01*
X166356700Y-65766475D01*
X166277525Y-65687300D01*
X165777300Y-65687300D01*
X164902700Y-65687300D01*
X164402475Y-65687300D01*
X164323300Y-65766475D01*
X164321768Y-66550000D01*
X158718232Y-66550000D01*
X158716700Y-65766475D01*
X158637525Y-65687300D01*
X158137300Y-65687300D01*
X157262700Y-65687300D01*
X156762475Y-65687300D01*
X156683300Y-65766475D01*
X156681768Y-66550000D01*
X150562700Y-66550000D01*
X150562700Y-63950000D01*
X156681768Y-63950000D01*
X156683300Y-64733525D01*
X156762475Y-64812700D01*
X157262700Y-64812700D01*
X157262700Y-63712475D01*
X158137300Y-63712475D01*
X158137300Y-64812700D01*
X158637525Y-64812700D01*
X158716700Y-64733525D01*
X158718232Y-63950000D01*
X164321768Y-63950000D01*
X164323300Y-64733525D01*
X164402475Y-64812700D01*
X164902700Y-64812700D01*
X164902700Y-63712475D01*
X165777300Y-63712475D01*
X165777300Y-64812700D01*
X166277525Y-64812700D01*
X166356700Y-64733525D01*
X166358232Y-63950000D01*
X174481768Y-63950000D01*
X174483300Y-64733525D01*
X174562475Y-64812700D01*
X175062700Y-64812700D01*
X175062700Y-63712475D01*
X175937300Y-63712475D01*
X175937300Y-64812700D01*
X176437525Y-64812700D01*
X176516700Y-64733525D01*
X176518232Y-63950000D01*
X176512117Y-63887916D01*
X176494008Y-63828218D01*
X176464600Y-63773200D01*
X176425024Y-63724976D01*
X176376800Y-63685400D01*
X176321782Y-63655992D01*
X176262084Y-63637883D01*
X176200000Y-63631768D01*
X176016475Y-63633300D01*
X175937300Y-63712475D01*
X175062700Y-63712475D01*
X174983525Y-63633300D01*
X174800000Y-63631768D01*
X174737916Y-63637883D01*
X174678218Y-63655992D01*
X174623200Y-63685400D01*
X174574976Y-63724976D01*
X174535400Y-63773200D01*
X174505992Y-63828218D01*
X174487883Y-63887916D01*
X174481768Y-63950000D01*
X166358232Y-63950000D01*
X166352117Y-63887916D01*
X166334008Y-63828218D01*
X166304600Y-63773200D01*
X166265024Y-63724976D01*
X166216800Y-63685400D01*
X166161782Y-63655992D01*
X166102084Y-63637883D01*
X166040000Y-63631768D01*
X165856475Y-63633300D01*
X165777300Y-63712475D01*
X164902700Y-63712475D01*
X164823525Y-63633300D01*
X164640000Y-63631768D01*
X164577916Y-63637883D01*
X164518218Y-63655992D01*
X164463200Y-63685400D01*
X164414976Y-63724976D01*
X164375400Y-63773200D01*
X164345992Y-63828218D01*
X164327883Y-63887916D01*
X164321768Y-63950000D01*
X158718232Y-63950000D01*
X158712117Y-63887916D01*
X158694008Y-63828218D01*
X158664600Y-63773200D01*
X158625024Y-63724976D01*
X158576800Y-63685400D01*
X158521782Y-63655992D01*
X158462084Y-63637883D01*
X158400000Y-63631768D01*
X158216475Y-63633300D01*
X158137300Y-63712475D01*
X157262700Y-63712475D01*
X157183525Y-63633300D01*
X157000000Y-63631768D01*
X156937916Y-63637883D01*
X156878218Y-63655992D01*
X156823200Y-63685400D01*
X156774976Y-63724976D01*
X156735400Y-63773200D01*
X156705992Y-63828218D01*
X156687883Y-63887916D01*
X156681768Y-63950000D01*
X150562700Y-63950000D01*
X150562700Y-58562700D01*
X178012301Y-58562700D01*
X178012300Y-68512300D01*
G04 #@! TA.AperFunction,Conductor*
D14*
G36*
X178012300Y-68512300D02*
G01*
X150562700Y-68512300D01*
X150562700Y-66550000D01*
X156681768Y-66550000D01*
X156687883Y-66612084D01*
X156705992Y-66671782D01*
X156735400Y-66726800D01*
X156774976Y-66775024D01*
X156823200Y-66814600D01*
X156878218Y-66844008D01*
X156937916Y-66862117D01*
X157000000Y-66868232D01*
X157183525Y-66866700D01*
X157262700Y-66787525D01*
X157262700Y-65687300D01*
X158137300Y-65687300D01*
X158137300Y-66787525D01*
X158216475Y-66866700D01*
X158400000Y-66868232D01*
X158462084Y-66862117D01*
X158521782Y-66844008D01*
X158576800Y-66814600D01*
X158625024Y-66775024D01*
X158664600Y-66726800D01*
X158694008Y-66671782D01*
X158712117Y-66612084D01*
X158718232Y-66550000D01*
X164321768Y-66550000D01*
X164327883Y-66612084D01*
X164345992Y-66671782D01*
X164375400Y-66726800D01*
X164414976Y-66775024D01*
X164463200Y-66814600D01*
X164518218Y-66844008D01*
X164577916Y-66862117D01*
X164640000Y-66868232D01*
X164823525Y-66866700D01*
X164902700Y-66787525D01*
X164902700Y-65687300D01*
X165777300Y-65687300D01*
X165777300Y-66787525D01*
X165856475Y-66866700D01*
X166040000Y-66868232D01*
X166102084Y-66862117D01*
X166161782Y-66844008D01*
X166216800Y-66814600D01*
X166265024Y-66775024D01*
X166304600Y-66726800D01*
X166334008Y-66671782D01*
X166352117Y-66612084D01*
X166358232Y-66550000D01*
X174481768Y-66550000D01*
X174487883Y-66612084D01*
X174505992Y-66671782D01*
X174535400Y-66726800D01*
X174574976Y-66775024D01*
X174623200Y-66814600D01*
X174678218Y-66844008D01*
X174737916Y-66862117D01*
X174800000Y-66868232D01*
X174983525Y-66866700D01*
X175062700Y-66787525D01*
X175062700Y-65687300D01*
X175937300Y-65687300D01*
X175937300Y-66787525D01*
X176016475Y-66866700D01*
X176200000Y-66868232D01*
X176262084Y-66862117D01*
X176321782Y-66844008D01*
X176376800Y-66814600D01*
X176425024Y-66775024D01*
X176464600Y-66726800D01*
X176494008Y-66671782D01*
X176512117Y-66612084D01*
X176518232Y-66550000D01*
X176516700Y-65766475D01*
X176437525Y-65687300D01*
X175937300Y-65687300D01*
X175062700Y-65687300D01*
X174562475Y-65687300D01*
X174483300Y-65766475D01*
X174481768Y-66550000D01*
X166358232Y-66550000D01*
X166356700Y-65766475D01*
X166277525Y-65687300D01*
X165777300Y-65687300D01*
X164902700Y-65687300D01*
X164402475Y-65687300D01*
X164323300Y-65766475D01*
X164321768Y-66550000D01*
X158718232Y-66550000D01*
X158716700Y-65766475D01*
X158637525Y-65687300D01*
X158137300Y-65687300D01*
X157262700Y-65687300D01*
X156762475Y-65687300D01*
X156683300Y-65766475D01*
X156681768Y-66550000D01*
X150562700Y-66550000D01*
X150562700Y-63950000D01*
X156681768Y-63950000D01*
X156683300Y-64733525D01*
X156762475Y-64812700D01*
X157262700Y-64812700D01*
X157262700Y-63712475D01*
X158137300Y-63712475D01*
X158137300Y-64812700D01*
X158637525Y-64812700D01*
X158716700Y-64733525D01*
X158718232Y-63950000D01*
X164321768Y-63950000D01*
X164323300Y-64733525D01*
X164402475Y-64812700D01*
X164902700Y-64812700D01*
X164902700Y-63712475D01*
X165777300Y-63712475D01*
X165777300Y-64812700D01*
X166277525Y-64812700D01*
X166356700Y-64733525D01*
X166358232Y-63950000D01*
X174481768Y-63950000D01*
X174483300Y-64733525D01*
X174562475Y-64812700D01*
X175062700Y-64812700D01*
X175062700Y-63712475D01*
X175937300Y-63712475D01*
X175937300Y-64812700D01*
X176437525Y-64812700D01*
X176516700Y-64733525D01*
X176518232Y-63950000D01*
X176512117Y-63887916D01*
X176494008Y-63828218D01*
X176464600Y-63773200D01*
X176425024Y-63724976D01*
X176376800Y-63685400D01*
X176321782Y-63655992D01*
X176262084Y-63637883D01*
X176200000Y-63631768D01*
X176016475Y-63633300D01*
X175937300Y-63712475D01*
X175062700Y-63712475D01*
X174983525Y-63633300D01*
X174800000Y-63631768D01*
X174737916Y-63637883D01*
X174678218Y-63655992D01*
X174623200Y-63685400D01*
X174574976Y-63724976D01*
X174535400Y-63773200D01*
X174505992Y-63828218D01*
X174487883Y-63887916D01*
X174481768Y-63950000D01*
X166358232Y-63950000D01*
X166352117Y-63887916D01*
X166334008Y-63828218D01*
X166304600Y-63773200D01*
X166265024Y-63724976D01*
X166216800Y-63685400D01*
X166161782Y-63655992D01*
X166102084Y-63637883D01*
X166040000Y-63631768D01*
X165856475Y-63633300D01*
X165777300Y-63712475D01*
X164902700Y-63712475D01*
X164823525Y-63633300D01*
X164640000Y-63631768D01*
X164577916Y-63637883D01*
X164518218Y-63655992D01*
X164463200Y-63685400D01*
X164414976Y-63724976D01*
X164375400Y-63773200D01*
X164345992Y-63828218D01*
X164327883Y-63887916D01*
X164321768Y-63950000D01*
X158718232Y-63950000D01*
X158712117Y-63887916D01*
X158694008Y-63828218D01*
X158664600Y-63773200D01*
X158625024Y-63724976D01*
X158576800Y-63685400D01*
X158521782Y-63655992D01*
X158462084Y-63637883D01*
X158400000Y-63631768D01*
X158216475Y-63633300D01*
X158137300Y-63712475D01*
X157262700Y-63712475D01*
X157183525Y-63633300D01*
X157000000Y-63631768D01*
X156937916Y-63637883D01*
X156878218Y-63655992D01*
X156823200Y-63685400D01*
X156774976Y-63724976D01*
X156735400Y-63773200D01*
X156705992Y-63828218D01*
X156687883Y-63887916D01*
X156681768Y-63950000D01*
X150562700Y-63950000D01*
X150562700Y-58562700D01*
X178012301Y-58562700D01*
X178012300Y-68512300D01*
G37*
G04 #@! TD.AperFunction*
M02*
